font.ufo
<glyph name="one" format="2">
	<unicode hex="0031"/>
	<advance width="513"/>
	<outline>
		<contour>
			<point x="74" y="0" type="line"/>
			<point x="457" y="0" type="line"/>
			<point x="457" y="94" type="line"/>
			<point x="332" y="94" type="line"/>
			<point x="332" y="636" type="line"/>
			<point x="246" y="636" type="line"/>
			<point x="206" y="612"/>
			<point x="162" y="596"/>
			<point x="99" y="584" type="curve"/>
			<point x="99" y="512" type="line"/>
			<point x="216" y="512" type="line"/>
			<point x="216" y="94" type="line"/>
			<point x="74" y="94" type="line"/>
		</contour>
	</outline>
</glyph>
<glyph name="seven" format="2">
	<unicode hex="0037"/>
	<advance width="513"/>
	<outline>
		<contour>
			<point x="160" y="0" type="curve"/>
			<point x="277" y="0" type="line"/>
			<point x="288" y="248"/>
			<point x="318" y="379"/>
			<point x="471" y="566" type="curve"/>
			<point x="471" y="636" type="line"/>
			<point x="44" y="636" type="line"/>
			<point x="44" y="539" type="line"/>
			<point x="346" y="539" type="line"/>
			<point x="219" y="366"/>
			<point x="172" y="226"/>
		</contour>
	</outline>
</glyph>
<glyph name="F" format="2">
	<unicode hex="0046"/>
	<advance width="510"/>
	<outline>
		<contour>
			<point x="83" y="0" type="line"/>
			<point x="199" y="0" type="line"/>
			<point x="199" y="273" type="line"/>
			<point x="437" y="273" type="line"/>
			<point x="437" y="371" type="line"/>
			<point x="199" y="371" type="line"/>
			<point x="199" y="556" type="line"/>
			<point x="478" y="556" type="line"/>
			<point x="478" y="654" type="line"/>
			<point x="83" y="654" type="line"/>
		</contour>
	</outline>
	<anchor name="aboveUC" x="288" y="676"/>
	<anchor name="belowLC" x="147" y="-22"/>
</glyph>
<glyph name="N" format="2">
	<unicode hex="004E"/>
	<advance width="657"/>
	<outline>
		<contour>
			<point x="83" y="0" type="line"/>
			<point x="194" y="0" type="line"/>
			<point x="194" y="286" type="line" smooth="yes"/>
			<point x="194" y="360"/>
			<point x="186" y="440"/>
			<point x="178" y="508" type="curve"/>
			<point x="182" y="508" type="line"/>
			<point x="202" y="456"/>
			<point x="226" y="404"/>
			<point x="250" y="360" type="curve" smooth="yes"/>
			<point x="446" y="0" type="line"/>
			<point x="573" y="0" type="line"/>
			<point x="573" y="654" type="line"/>
			<point x="462" y="654" type="line"/>
			<point x="462" y="368" type="line" smooth="yes"/>
			<point x="462" y="296"/>
			<point x="470" y="216"/>
			<point x="476" y="146" type="curve"/>
			<point x="472" y="146" type="line"/>
			<point x="452" y="198"/>
			<point x="430" y="250"/>
			<point x="406" y="294" type="curve" smooth="yes"/>
			<point x="210" y="654" type="line"/>
			<point x="83" y="654" type="line"/>
		</contour>
	</outline>
	<anchor name="aboveUC" x="336" y="676"/>
	<anchor name="belowLC" x="338" y="-22"/>
</glyph>
<glyph name="V" format="2">
	<unicode hex="0056"/>
	<advance width="536"/>
	<outline>
		<contour>
			<point x="196" y="0" type="line"/>
			<point x="333" y="0" type="line"/>
			<point x="540" y="654" type="line"/>
			<point x="421" y="654" type="line"/>
			<point x="326" y="325" type="line" smooth="yes"/>
			<point x="305" y="250"/>
			<point x="290" y="188"/>
			<point x="269" y="113" type="curve"/>
			<point x="265" y="113" type="line"/>
			<point x="244" y="188"/>
			<point x="227" y="250"/>
			<point x="207" y="325" type="curve" smooth="yes"/>
			<point x="119" y="654" type="line"/>
			<point x="-4" y="654" type="line"/>
		</contour>
	</outline>
	<anchor name="aboveUC" x="268" y="676"/>
	<anchor name="belowLC" x="267" y="-22"/>
</glyph>
<glyph name="Z" format="2">
	<unicode hex="005A"/>
	<advance width="540"/>
	<outline>
		<contour>
			<point x="40" y="0" type="line"/>
			<point x="502" y="0" type="line"/>
			<point x="502" y="98" type="line"/>
			<point x="183" y="98" type="line"/>
			<point x="500" y="584" type="line"/>
			<point x="500" y="654" type="line"/>
			<point x="69" y="654" type="line"/>
			<point x="69" y="556" type="line"/>
			<point x="356" y="556" type="line"/>
			<point x="40" y="70" type="line"/>
		</contour>
	</outline>
	<anchor name="aboveUC" x="282" y="676"/>
	<anchor name="belowLC" x="282" y="-22"/>
</glyph>
<glyph name="asciicircum" format="2">
	<unicode hex="005E"/>
	<advance width="513"/>
	<outline>
		<contour>
			<point x="55" y="279" type="line"/>
			<point x="152" y="279" type="line"/>
			<point x="207" y="430" type="line"/>
			<point x="254" y="565" type="line"/>
			<point x="258" y="565" type="line"/>
			<point x="306" y="430" type="line"/>
			<point x="361" y="279" type="line"/>
			<point x="458" y="279" type="line"/>
			<point x="304" y="670" type="line"/>
			<point x="208" y="670" type="line"/>
		</contour>
	</outline>
</glyph>
<glyph name="underscore" format="2">
	<unicode hex="005F"/>
	<advance width="500"/>
	<outline>
		<contour>
			<point x="12" y="-133" type="line"/>
			<point x="488" y="-133" type="line"/>
			<point x="488" y="-64" type="line"/>
			<point x="12" y="-64" type="line"/>
		</contour>
	</outline>
</glyph>
<glyph name="brokenbar" format="2">
	<unicode hex="00A6"/>
	<advance width="255"/>
	<outline>
		<contour>
			<point x="89" y="302" type="line"/>
			<point x="166" y="302" type="line"/>
			<point x="166" y="750" type="line"/>
			<point x="89" y="750" type="line"/>
		</contour>
		<contour>
			<point x="89" y="-250" type="line"/>
			<point x="166" y="-250" type="line"/>
			<point x="166" y="209" type="line"/>
			<point x="89" y="209" type="line"/>
		</contour>
	</outline>
</glyph>
<glyph name="section" format="2">
	<unicode hex="00A7"/>
	<advance width="513"/>
	<outline>
		<contour>
			<point x="238" y="-74" type="curve" smooth="yes"/>
			<point x="348" y="-74"/>
			<point x="415" y="-11"/>
			<point x="415" y="73" type="curve" smooth="yes"/>
			<point x="415" y="245"/>
			<point x="140" y="223"/>
			<point x="140" y="342" type="curve" smooth="yes"/>
			<point x="140" y="382"/>
			<point x="165" y="407"/>
			<point x="210" y="426" type="curve"/>
			<point x="154" y="477" type="line"/>
			<point x="88" y="452"/>
			<point x="41" y="398"/>
			<point x="41" y="334" type="curve" smooth="yes"/>
			<point x="41" y="148"/>
			<point x="310" y="164"/>
			<point x="310" y="68" type="curve" smooth="yes"/>
			<point x="310" y="36"/>
			<point x="285" y="12"/>
			<point x="238" y="12" type="curve" smooth="yes"/>
			<point x="192" y="12"/>
			<point x="155" y="31"/>
			<point x="122" y="64" type="curve"/>
			<point x="54" y="4" type="line"/>
			<point x="97" y="-47"/>
			<point x="166" y="-74"/>
		</contour>
		<contour>
			<point x="363" y="139" type="line"/>
			<point x="430" y="172"/>
			<point x="472" y="214"/>
			<point x="472" y="284" type="curve" smooth="yes"/>
			<point x="472" y="466"/>
			<point x="198" y="460"/>
			<point x="198" y="550" type="curve" smooth="yes"/>
			<point x="198" y="579"/>
			<point x="218" y="600"/>
			<point x="264" y="600" type="curve" smooth="yes"/>
			<point x="304" y="600"/>
			<point x="341" y="580"/>
			<point x="372" y="553" type="curve"/>
			<point x="426" y="626" type="line"/>
			<point x="386" y="657"/>
			<point x="328" y="687"/>
			<point x="258" y="687" type="curve" smooth="yes"/>
			<point x="152" y="687"/>
			<point x="94" y="625"/>
			<point x="94" y="545" type="curve" smooth="yes"/>
			<point x="94" y="375"/>
			<point x="373" y="398"/>
			<point x="373" y="275" type="curve" smooth="yes"/>
			<point x="373" y="231"/>
			<point x="348" y="209"/>
			<point x="299" y="190" type="curve"/>
		</contour>
	</outline>
</glyph>
<glyph name="copyright" format="2">
	<unicode hex="00A9"/>
	<advance width="747"/>
	<outline>
		<contour>
			<point x="374" y="-10" type="curve" smooth="yes"/>
			<point x="549" y="-10"/>
			<point x="700" y="119"/>
			<point x="700" y="324" type="curve" smooth="yes"/>
			<point x="700" y="529"/>
			<point x="549" y="654"/>
			<point x="374" y="654" type="curve" smooth="yes"/>
			<point x="198" y="654"/>
			<point x="47" y="529"/>
			<point x="47" y="324" type="curve" smooth="yes"/>
			<point x="47" y="119"/>
			<point x="198" y="-10"/>
		</contour>
		<contour>
			<point x="374" y="42" type="curve" smooth="yes"/>
			<point x="224" y="42"/>
			<point x="105" y="155"/>
			<point x="105" y="324" type="curve" smooth="yes"/>
			<point x="105" y="493"/>
			<point x="224" y="603"/>
			<point x="374" y="603" type="curve" smooth="yes"/>
			<point x="523" y="603"/>
			<point x="642" y="493"/>
			<point x="642" y="324" type="curve" smooth="yes"/>
			<point x="642" y="155"/>
			<point x="523" y="42"/>
		</contour>
		<contour>
			<point x="384" y="129" type="curve" smooth="yes"/>
			<point x="439" y="129"/>
			<point x="480" y="150"/>
			<point x="516" y="184" type="curve"/>
			<point x="476" y="238" type="line"/>
			<point x="449" y="214"/>
			<point x="427" y="200"/>
			<point x="387" y="200" type="curve" smooth="yes"/>
			<point x="323" y="200"/>
			<point x="282" y="246"/>
			<point x="282" y="322" type="curve" smooth="yes"/>
			<point x="282" y="393"/>
			<point x="324" y="446"/>
			<point x="391" y="446" type="curve" smooth="yes"/>
			<point x="422" y="446"/>
			<point x="447" y="432"/>
			<point x="469" y="408" type="curve"/>
			<point x="514" y="457" type="line"/>
			<point x="484" y="490"/>
			<point x="444" y="516"/>
			<point x="385" y="516" type="curve" smooth="yes"/>
			<point x="286" y="516"/>
			<point x="196" y="441"/>
			<point x="196" y="322" type="curve" smooth="yes"/>
			<point x="196" y="202"/>
			<point x="276" y="129"/>
		</contour>
	</outline>
</glyph>
<glyph name="plusminus" format="2">
	<unicode hex="00B1"/>
	<advance width="513"/>
	<outline>
		<contour>
			<point x="213" y="147" type="line"/>
			<point x="300" y="147" type="line"/>
			<point x="300" y="300" type="line"/>
			<point x="479" y="300" type="line"/>
			<point x="479" y="384" type="line"/>
			<point x="300" y="384" type="line"/>
			<point x="300" y="561" type="line"/>
			<point x="213" y="561" type="line"/>
			<point x="213" y="384" type="line"/>
			<point x="34" y="384" type="line"/>
			<point x="34" y="300" type="line"/>
			<point x="213" y="300" type="line"/>
		</contour>
		<contour>
			<point x="34" y="0" type="line"/>
			<point x="479" y="0" type="line"/>
			<point x="479" y="83" type="line"/>
			<point x="34" y="83" type="line"/>
		</contour>
	</outline>
</glyph>
<glyph name="Oslash" format="2">
	<unicode hex="00D8"/>
	<advance width="674"/>
	<outline>
		<contour>
			<point x="110" y="-40" type="line"/>
			<point x="644" y="638" type="line"/>
			<point x="574" y="694" type="line"/>
			<point x="41" y="16" type="line"/>
		</contour>
		<component base="O" xOffset="2"/>
	</outline>
	<anchor name="aboveUC" x="336" y="676"/>
	<anchor name="belowLC" x="336" y="-22"/>
</glyph>
<glyph name="Thorn" format="2">
	<unicode hex="00DE"/>
	<advance width="600"/>
	<outline>
		<contour>
			<point x="83" y="0" type="line"/>
			<point x="199" y="0" type="line"/>
			<point x="199" y="136" type="line"/>
			<point x="303" y="136" type="line" smooth="yes"/>
			<point x="444" y="136"/>
			<point x="552" y="202"/>
			<point x="552" y="348" type="curve" smooth="yes"/>
			<point x="552" y="499"/>
			<point x="446" y="550"/>
			<point x="303" y="550" type="curve" smooth="yes"/>
			<point x="199" y="550" type="line"/>
			<point x="199" y="654" type="line"/>
			<point x="83" y="654" type="line"/>
		</contour>
		<contour>
			<point x="199" y="229" type="line"/>
			<point x="199" y="457" type="line"/>
			<point x="294" y="457" type="line" smooth="yes"/>
			<point x="389" y="457"/>
			<point x="438" y="429"/>
			<point x="438" y="348" type="curve" smooth="yes"/>
			<point x="438" y="268"/>
			<point x="391" y="229"/>
			<point x="294" y="229" type="curve" smooth="yes"/>
		</contour>
	</outline>
</glyph>
<glyph name="germandbls" format="2">
	<unicode hex="00DF"/>
	<advance width="604"/>
	<outline>
		<contour>
			<point x="404" y="-12" type="curve" smooth="yes"/>
			<point x="514" y="-12"/>
			<point x="577" y="57"/>
			<point x="577" y="144" type="curve" smooth="yes"/>
			<point x="577" y="302"/>
			<point x="403" y="290"/>
			<point x="403" y="371" type="curve" smooth="yes"/>
			<point x="403" y="431"/>
			<point x="494" y="462"/>
			<point x="494" y="560" type="curve" smooth="yes"/>
			<point x="494" y="642"/>
			<point x="424" y="716"/>
			<point x="300" y="716" type="curve" smooth="yes"/>
			<point x="154" y="716"/>
			<point x="73" y="626"/>
			<point x="73" y="498" type="curve" smooth="yes"/>
			<point x="73" y="0" type="line"/>
			<point x="187" y="0" type="line"/>
			<point x="187" y="482" type="line" smooth="yes"/>
			<point x="187" y="575"/>
			<point x="231" y="626"/>
			<point x="300" y="626" type="curve" smooth="yes"/>
			<point x="350" y="626"/>
			<point x="383" y="593"/>
			<point x="383" y="547" type="curve" smooth="yes"/>
			<point x="383" y="468"/>
			<point x="296" y="440"/>
			<point x="296" y="357" type="curve" smooth="yes"/>
			<point x="296" y="222"/>
			<point x="470" y="234"/>
			<point x="470" y="139" type="curve" smooth="yes"/>
			<point x="470" y="104"/>
			<point x="445" y="75"/>
			<point x="401" y="75" type="curve" smooth="yes"/>
			<point x="366" y="75"/>
			<point x="333" y="83"/>
			<point x="299" y="108" type="curve"/>
			<point x="260" y="38" type="line"/>
			<point x="304" y="2"/>
			<point x="351" y="-12"/>
		</contour>
	</outline>
</glyph>
<glyph name="Aogonek" format="2">
	<unicode hex="0104"/>
	<advance width="558"/>
	<outline>
		<contour>
			<point x="498" y="-222" type="curve" smooth="yes"/>
			<point x="534" y="-222"/>
			<point x="574" y="-207"/>
			<point x="598" y="-188" type="curve"/>
			<point x="570" y="-123" type="line"/>
			<point x="557" y="-132"/>
			<point x="541" y="-139"/>
			<point x="522" y="-139" type="curve" smooth="yes"/>
			<point x="495" y="-139"/>
			<point x="473" y="-126"/>
			<point x="473" y="-95" type="curve" smooth="yes"/>
			<point x="473" y="-56"/>
			<point x="510" y="-13"/>
			<point x="560" y="0" type="curve"/>
			<point x="347" y="654" type="line"/>
			<point x="211" y="654" type="line"/>
			<point x="-2" y="0" type="line"/>
			<point x="116" y="0" type="line"/>
			<point x="217" y="348" type="line" smooth="yes"/>
			<point x="238" y="417"/>
			<point x="257" y="491"/>
			<point x="275" y="564" type="curve"/>
			<point x="279" y="564" type="line"/>
			<point x="298" y="492"/>
			<point x="317" y="417"/>
			<point x="338" y="348" type="curve" smooth="yes"/>
			<point x="438" y="0" type="line"/>
			<point x="461" y="0" type="line"/>
			<point x="426" y="-21"/>
			<point x="381" y="-68"/>
			<point x="381" y="-127" type="curve" smooth="yes"/>
			<point x="381" y="-190"/>
			<point x="433" y="-222"/>
		</contour>
		<contour>
			<point x="124" y="177" type="line"/>
			<point x="432" y="177" type="line"/>
			<point x="432" y="268" type="line"/>
			<point x="124" y="268" type="line"/>
		</contour>
	</outline>
	<anchor name="aboveUC" x="278" y="676"/>
</glyph>
<glyph name="eogonek" format="2">
	<unicode hex="0119"/>
	<advance width="507"/>
	<outline>
		<contour>
			<point x="363" y="-216" type="curve" smooth="yes"/>
			<point x="398" y="-216"/>
			<point x="438" y="-204"/>
			<point x="462" y="-184" type="curve"/>
			<point x="436" y="-122" type="line"/>
			<point x="422" y="-132"/>
			<point x="406" y="-136"/>
			<point x="386" y="-136" type="curve" smooth="yes"/>
			<point x="364" y="-136"/>
			<point x="340" y="-126"/>
			<point x="340" y="-94" type="curve" smooth="yes"/>
			<point x="340" y="-52"/>
			<point x="369" y="-13"/>
			<point x="452" y="40" type="curve"/>
			<point x="412" y="114" type="line"/>
			<point x="378" y="92"/>
			<point x="340" y="80"/>
			<point x="298" y="80" type="curve" smooth="yes"/>
			<point x="222" y="80"/>
			<point x="154" y="130"/>
			<point x="154" y="246" type="curve" smooth="yes"/>
			<point x="154" y="374"/>
			<point x="214" y="412"/>
			<point x="270" y="412" type="curve" smooth="yes"/>
			<point x="336" y="412"/>
			<point x="368" y="368"/>
			<point x="368" y="298" type="curve"/>
			<point x="126" y="298" type="line"/>
			<point x="126" y="210" type="line"/>
			<point x="464" y="210" type="line"/>
			<point x="468" y="228"/>
			<point x="470" y="248"/>
			<point x="470" y="270" type="curve" smooth="yes"/>
			<point x="470" y="406"/>
			<point x="402" y="503"/>
			<point x="268" y="503" type="curve" smooth="yes"/>
			<point x="152" y="503"/>
			<point x="40" y="406"/>
			<point x="40" y="246" type="curve" smooth="yes"/>
			<point x="40" y="82"/>
			<point x="146" y="-12"/>
			<point x="284" y="-12" type="curve" smooth="yes"/>
			<point x="298" y="-12"/>
			<point x="318" y="-9"/>
			<point x="334" y="-2" type="curve"/>
			<point x="332" y="2" type="line"/>
			<point x="280" y="-32"/>
			<point x="252" y="-73"/>
			<point x="252" y="-120" type="curve" smooth="yes"/>
			<point x="252" y="-186"/>
			<point x="302" y="-216"/>
		</contour>
	</outline>
	<anchor name="aboveLC" x="266" y="514"/>
	<anchor name="belowLC" x="272" y="-222"/>
</glyph>
<glyph name="uogonek" format="2">
	<unicode hex="0173"/>
	<advance width="556"/>
	<outline>
		<contour>
			<point x="427" y="-217" type="curve" smooth="yes"/>
			<point x="462" y="-217"/>
			<point x="500" y="-203"/>
			<point x="525" y="-184" type="curve"/>
			<point x="499" y="-123" type="line"/>
			<point x="484" y="-132"/>
			<point x="469" y="-138"/>
			<point x="450" y="-138" type="curve" smooth="yes"/>
			<point x="427" y="-138"/>
			<point x="404" y="-125"/>
			<point x="404" y="-95" type="curve" smooth="yes"/>
			<point x="404" y="-61"/>
			<point x="430" y="-20"/>
			<point x="483" y="0" type="curve"/>
			<point x="483" y="491" type="line"/>
			<point x="368" y="491" type="line"/>
			<point x="368" y="155" type="line"/>
			<point x="331" y="107"/>
			<point x="302" y="87"/>
			<point x="259" y="87" type="curve" smooth="yes"/>
			<point x="206" y="87"/>
			<point x="183" y="117"/>
			<point x="183" y="198" type="curve" smooth="yes"/>
			<point x="183" y="491" type="line"/>
			<point x="68" y="491" type="line"/>
			<point x="68" y="183" type="line" smooth="yes"/>
			<point x="68" y="59"/>
			<point x="114" y="-12"/>
			<point x="219" y="-12" type="curve" smooth="yes"/>
			<point x="286" y="-12"/>
			<point x="334" y="21"/>
			<point x="377" y="72" type="curve"/>
			<point x="380" y="72" type="line"/>
			<point x="390" y="1" type="line"/>
			<point x="357" y="-20"/>
			<point x="317" y="-65"/>
			<point x="317" y="-120" type="curve" smooth="yes"/>
			<point x="317" y="-186"/>
			<point x="366" y="-217"/>
		</contour>
	</outline>
	<anchor name="aboveLC" x="271" y="502"/>
</glyph>
<glyph name="Gammalatin" format="2">
	<unicode hex="0194"/>
	<advance width="536"/>
	<outline>
		<contour>
			<point x="267" y="-217" type="curve" smooth="yes"/>
			<point x="361" y="-217"/>
			<point x="408" y="-166"/>
			<point x="408" y="-92" type="curve" smooth="yes"/>
			<point x="408" y="-39"/>
			<point x="383" y="7"/>
			<point x="333" y="96" type="curve"/>
			<point x="342" y="42" type="line"/>
			<point x="540" y="654" type="line"/>
			<point x="421" y="654" type="line"/>
			<point x="326" y="336" type="line" smooth="yes"/>
			<point x="304" y="261"/>
			<point x="291" y="200"/>
			<point x="269" y="121" type="curve"/>
			<point x="265" y="121" type="line"/>
			<point x="243" y="200"/>
			<point x="228" y="261"/>
			<point x="207" y="336" type="curve" smooth="yes"/>
			<point x="119" y="654" type="line"/>
			<point x="-4" y="654" type="line"/>
			<point x="186" y="42" type="line"/>
			<point x="198" y="96" type="line"/>
			<point x="149" y="8"/>
			<point x="124" y="-39"/>
			<point x="124" y="-92" type="curve" smooth="yes"/>
			<point x="124" y="-166"/>
			<point x="172" y="-217"/>
		</contour>
		<contour>
			<point x="267" y="-142" type="curve" smooth="yes"/>
			<point x="240" y="-142"/>
			<point x="226" y="-123"/>
			<point x="226" y="-95" type="curve" smooth="yes"/>
			<point x="226" y="-64"/>
			<point x="240" y="-30"/>
			<point x="264" y="15" type="curve"/>
			<point x="268" y="15" type="line"/>
			<point x="294" y="-30"/>
			<point x="308" y="-64"/>
			<point x="308" y="-95" type="curve" smooth="yes"/>
			<point x="308" y="-123"/>
			<point x="293" y="-142"/>
		</contour>
	</outline>
	<anchor name="aboveUC" x="270" y="676"/>
	<anchor name="belowLC" x="270" y="-198"/>
</glyph>
<glyph name="Iotalatin" format="2">
	<unicode hex="0196"/>
	<advance width="282"/>
	<outline>
		<contour>
			<point x="199" y="-10" type="curve" smooth="yes"/>
			<point x="227" y="-10"/>
			<point x="249" y="-5"/>
			<point x="263" y="1" type="curve"/>
			<point x="248" y="92" type="line"/>
			<point x="240" y="90"/>
			<point x="234" y="90"/>
			<point x="228" y="90" type="curve" smooth="yes"/>
			<point x="214" y="90"/>
			<point x="199" y="99"/>
			<point x="199" y="130" type="curve" smooth="yes"/>
			<point x="199" y="654" type="line"/>
			<point x="83" y="654" type="line"/>
			<point x="83" y="130" type="line" smooth="yes"/>
			<point x="83" y="42"/>
			<point x="115" y="-10"/>
		</contour>
	</outline>
	<anchor name="aboveUC" x="142" y="676"/>
	<anchor name="belowLC" x="170" y="-22"/>
</glyph>
<glyph name="lbar" format="2">
	<unicode hex="019A"/>
	<advance width="313"/>
	<outline>
		<contour>
			<point x="22" y="338" type="line"/>
			<point x="288" y="338" type="line"/>
			<point x="288" y="426" type="line"/>
			<point x="100" y="426" type="line"/>
			<point x="22" y="420" type="line"/>
		</contour>
		<component base="l" xOffset="26"/>
	</outline>
	<anchor name="aboveUC" x="160" y="726"/>
	<anchor name="belowLC" x="180" y="-22"/>
</glyph>
<glyph name="Uhorn" format="2">
	<unicode hex="01AF"/>
	<advance width="671"/>
	<outline>
		<contour>
			<point x="575" y="609" type="line"/>
			<point x="649" y="624"/>
			<point x="700" y="661"/>
			<point x="700" y="740" type="curve" smooth="yes"/>
			<point x="700" y="775"/>
			<point x="688" y="808"/>
			<point x="674" y="830" type="curve"/>
			<point x="586" y="794" type="line"/>
			<point x="594" y="778"/>
			<point x="601" y="755"/>
			<point x="601" y="732" type="curve" smooth="yes"/>
			<point x="601" y="673"/>
			<point x="562" y="658"/>
			<point x="515" y="654" type="curve"/>
		</contour>
		<component base="U"/>
	</outline>
	<anchor name="aboveUC" x="327" y="676"/>
	<anchor name="belowLC" x="327" y="-22"/>
</glyph>
<glyph name="uhorn" format="2">
	<unicode hex="01B0"/>
	<advance width="556"/>
	<outline>
		<contour>
			<point x="481" y="452" type="line"/>
			<point x="534" y="470"/>
			<point x="583" y="512"/>
			<point x="583" y="593" type="curve" smooth="yes"/>
			<point x="583" y="626"/>
			<point x="571" y="658"/>
			<point x="556" y="680" type="curve"/>
			<point x="470" y="641" type="line"/>
			<point x="478" y="626"/>
			<point x="485" y="606"/>
			<point x="485" y="585" type="curve" smooth="yes"/>
			<point x="485" y="513"/>
			<point x="444" y="496"/>
			<point x="402" y="491" type="curve"/>
		</contour>
		<component base="u"/>
	</outline>
	<anchor name="aboveLC" x="276" y="514"/>
	<anchor name="belowLC" x="290" y="-22"/>
</glyph>
<glyph name="clickretroflex" format="2">
	<unicode hex="01C3"/>
	<advance width="248"/>
	<outline>
		<contour>
			<point x="86" y="215" type="line"/>
			<point x="162" y="215" type="line"/>
			<point x="180" y="556" type="line"/>
			<point x="183" y="706" type="line"/>
			<point x="65" y="706" type="line"/>
			<point x="68" y="556" type="line"/>
		</contour>
		<contour>
			<point x="124" y="-12" type="curve" smooth="yes"/>
			<point x="166" y="-12"/>
			<point x="198" y="21"/>
			<point x="198" y="66" type="curve" smooth="yes"/>
			<point x="198" y="111"/>
			<point x="166" y="144"/>
			<point x="124" y="144" type="curve" smooth="yes"/>
			<point x="82" y="144"/>
			<point x="50" y="111"/>
			<point x="50" y="66" type="curve" smooth="yes"/>
			<point x="50" y="21"/>
			<point x="82" y="-12"/>
		</contour>
	</outline>
	<anchor name="aboveUC" x="124" y="726"/>
	<anchor name="belowLC" x="124" y="-22"/>
</glyph>
<glyph name="Oogonek" format="2">
	<unicode hex="01EA"/>
	<advance width="674"/>
	<outline>
		<contour>
			<point x="353" y="-222" type="curve" smooth="yes"/>
			<point x="389" y="-222"/>
			<point x="429" y="-207"/>
			<point x="454" y="-188" type="curve"/>
			<point x="425" y="-123" type="line"/>
			<point x="412" y="-132"/>
			<point x="396" y="-139"/>
			<point x="378" y="-139" type="curve" smooth="yes"/>
			<point x="350" y="-139"/>
			<point x="328" y="-126"/>
			<point x="328" y="-95" type="curve" smooth="yes"/>
			<point x="328" y="-66"/>
			<point x="353" y="-22"/>
			<point x="419" y="-1" type="curve" smooth="yes"/>
			<point x="539" y="36"/>
			<point x="626" y="143"/>
			<point x="626" y="330" type="curve" smooth="yes"/>
			<point x="626" y="541"/>
			<point x="508" y="666"/>
			<point x="337" y="666" type="curve" smooth="yes"/>
			<point x="167" y="666"/>
			<point x="49" y="541"/>
			<point x="49" y="330" type="curve" smooth="yes"/>
			<point x="49" y="118"/>
			<point x="167" y="-12"/>
			<point x="337" y="-12" type="curve"/>
			<point x="321" y="3" type="line"/>
			<point x="269" y="-26"/>
			<point x="236" y="-80"/>
			<point x="236" y="-127" type="curve" smooth="yes"/>
			<point x="236" y="-189"/>
			<point x="288" y="-222"/>
		</contour>
		<contour>
			<point x="337" y="86" type="curve" smooth="yes"/>
			<point x="234" y="86"/>
			<point x="168" y="182"/>
			<point x="168" y="330" type="curve" smooth="yes"/>
			<point x="168" y="476"/>
			<point x="234" y="565"/>
			<point x="337" y="565" type="curve" smooth="yes"/>
			<point x="440" y="565"/>
			<point x="506" y="476"/>
			<point x="506" y="330" type="curve" smooth="yes"/>
			<point x="506" y="182"/>
			<point x="440" y="86"/>
		</contour>
	</outline>
	<anchor name="aboveUC" x="336" y="676"/>
	<anchor name="belowLC" x="338" y="-222"/>
</glyph>
<glyph name="oogonek" format="2">
	<unicode hex="01EB"/>
	<advance width="549"/>
	<outline>
		<contour>
			<point x="287" y="-217" type="curve" smooth="yes"/>
			<point x="322" y="-217"/>
			<point x="360" y="-203"/>
			<point x="385" y="-184" type="curve"/>
			<point x="359" y="-123" type="line"/>
			<point x="344" y="-132"/>
			<point x="329" y="-138"/>
			<point x="310" y="-138" type="curve" smooth="yes"/>
			<point x="287" y="-138"/>
			<point x="264" y="-125"/>
			<point x="264" y="-95" type="curve" smooth="yes"/>
			<point x="264" y="-61"/>
			<point x="284" y="-26"/>
			<point x="344" y="-4" type="curve" smooth="yes"/>
			<point x="435" y="32"/>
			<point x="508" y="112"/>
			<point x="508" y="245" type="curve" smooth="yes"/>
			<point x="508" y="409"/>
			<point x="397" y="503"/>
			<point x="274" y="503" type="curve" smooth="yes"/>
			<point x="152" y="503"/>
			<point x="41" y="409"/>
			<point x="41" y="245" type="curve" smooth="yes"/>
			<point x="41" y="82"/>
			<point x="152" y="-12"/>
			<point x="274" y="-12" type="curve"/>
			<point x="256" y="3" type="line"/>
			<point x="209" y="-24"/>
			<point x="177" y="-72"/>
			<point x="177" y="-120" type="curve" smooth="yes"/>
			<point x="177" y="-186"/>
			<point x="226" y="-217"/>
		</contour>
		<contour>
			<point x="274" y="80" type="curve" smooth="yes"/>
			<point x="202" y="80"/>
			<point x="159" y="146"/>
			<point x="159" y="245" type="curve" smooth="yes"/>
			<point x="159" y="344"/>
			<point x="202" y="409"/>
			<point x="274" y="409" type="curve" smooth="yes"/>
			<point x="346" y="409"/>
			<point x="390" y="344"/>
			<point x="390" y="245" type="curve" smooth="yes"/>
			<point x="390" y="146"/>
			<point x="346" y="80"/>
		</contour>
	</outline>
	<anchor name="aboveLC" x="274" y="514"/>
	<anchor name="belowLC" x="276" y="-222"/>
</glyph>
<glyph name="yogh" format="2">
	<unicode hex="021D"/>
	<advance width="445"/>
	<outline>
		<contour>
			<point x="89" y="-206" type="line"/>
			<point x="312" y="-123"/>
			<point x="409" y="-40"/>
			<point x="409" y="86" type="curve" smooth="yes"/>
			<point x="409" y="176"/>
			<point x="348" y="219"/>
			<point x="265" y="222" type="curve"/>
			<point x="340" y="270"/>
			<point x="375" y="315"/>
			<point x="375" y="378" type="curve" smooth="yes"/>
			<point x="375" y="452"/>
			<point x="316" y="503"/>
			<point x="224" y="503" type="curve" smooth="yes"/>
			<point x="141" y="503"/>
			<point x="81" y="476"/>
			<point x="12" y="410" type="curve"/>
			<point x="62" y="348" type="line"/>
			<point x="113" y="392"/>
			<point x="149" y="414"/>
			<point x="196" y="414" type="curve" smooth="yes"/>
			<point x="237" y="414"/>
			<point x="264" y="390"/>
			<point x="264" y="348" type="curve" smooth="yes"/>
			<point x="264" y="301"/>
			<point x="238" y="262"/>
			<point x="90" y="182" type="curve"/>
			<point x="126" y="119" type="line"/>
			<point x="165" y="140"/>
			<point x="191" y="147"/>
			<point x="218" y="147" type="curve" smooth="yes"/>
			<point x="267" y="147"/>
			<point x="298" y="120"/>
			<point x="298" y="75" type="curve" smooth="yes"/>
			<point x="298" y="12"/>
			<point x="236" y="-57"/>
			<point x="53" y="-130" type="curve"/>
		</contour>
	</outline>
	<anchor name="aboveLC" x="218" y="514"/>
	<anchor name="belowLC" x="234" y="-198"/>
</glyph>
<glyph name="Nlong" format="2">
	<unicode hex="0220"/>
	<advance width="672"/>
	<outline>
		<contour>
			<point x="476" y="-162" type="line"/>
			<point x="592" y="-162" type="line"/>
			<point x="592" y="365" type="line" smooth="yes"/>
			<point x="592" y="580"/>
			<point x="510" y="666"/>
			<point x="377" y="666" type="curve" smooth="yes"/>
			<point x="308" y="666"/>
			<point x="244" y="632"/>
			<point x="196" y="578" type="curve"/>
			<point x="196" y="654" type="line"/>
			<point x="83" y="654" type="line"/>
			<point x="83" y="0" type="line"/>
			<point x="199" y="0" type="line"/>
			<point x="199" y="476" type="line"/>
			<point x="235" y="531"/>
			<point x="297" y="565"/>
			<point x="344" y="565" type="curve" smooth="yes"/>
			<point x="428" y="565"/>
			<point x="476" y="511"/>
			<point x="476" y="353" type="curve" smooth="yes"/>
		</contour>
	</outline>
	<anchor name="aboveUC" x="354" y="676"/>
	<anchor name="belowLC" x="322" y="-166"/>
</glyph>
<glyph name="ou" format="2">
	<unicode hex="0223"/>
	<advance width="545"/>
	<outline>
		<contour>
			<point x="276" y="82" type="curve" smooth="yes"/>
			<point x="206" y="82"/>
			<point x="152" y="127"/>
			<point x="152" y="205" type="curve" smooth="yes"/>
			<point x="152" y="267"/>
			<point x="182" y="320"/>
			<point x="242" y="357" type="curve"/>
			<point x="336" y="321"/>
			<point x="387" y="276"/>
			<point x="387" y="196" type="curve" smooth="yes"/>
			<point x="387" y="124"/>
			<point x="341" y="82"/>
		</contour>
		<contour>
			<point x="272" y="-12" type="curve" smooth="yes"/>
			<point x="413" y="-12"/>
			<point x="506" y="72"/>
			<point x="506" y="200" type="curve" smooth="yes"/>
			<point x="506" y="308"/>
			<point x="444" y="372"/>
			<point x="372" y="409" type="curve"/>
			<point x="372" y="413" type="line"/>
			<point x="431" y="447"/>
			<point x="481" y="513"/>
			<point x="481" y="595" type="curve" smooth="yes"/>
			<point x="481" y="638"/>
			<point x="473" y="667"/>
			<point x="449" y="710" type="curve"/>
			<point x="356" y="679" type="line"/>
			<point x="371" y="654"/>
			<point x="378" y="624"/>
			<point x="378" y="592" type="curve" smooth="yes"/>
			<point x="378" y="536"/>
			<point x="353" y="483"/>
			<point x="302" y="444" type="curve"/>
			<point x="226" y="475"/>
			<point x="172" y="517"/>
			<point x="172" y="596" type="curve" smooth="yes"/>
			<point x="172" y="635"/>
			<point x="179" y="659"/>
			<point x="196" y="690" type="curve"/>
			<point x="96" y="718" type="line"/>
			<point x="72" y="681"/>
			<point x="61" y="645"/>
			<point x="61" y="589" type="curve" smooth="yes"/>
			<point x="61" y="504"/>
			<point x="107" y="442"/>
			<point x="176" y="396" type="curve"/>
			<point x="176" y="392" type="line"/>
			<point x="97" y="362"/>
			<point x="39" y="292"/>
			<point x="39" y="196" type="curve" smooth="yes"/>
			<point x="39" y="71"/>
			<point x="139" y="-12"/>
		</contour>
	</outline>
	<anchor name="aboveUC" x="272" y="726"/>
	<anchor name="belowLC" x="272" y="-22"/>
</glyph>
<glyph name="Jstroke" format="2">
	<unicode hex="0248"/>
	<advance width="514"/>
	<outline>
		<contour>
			<point x="170" y="322" type="line"/>
			<point x="492" y="322" type="line"/>
			<point x="492" y="410" type="line"/>
			<point x="272" y="410" type="line"/>
			<point x="170" y="404" type="line"/>
		</contour>
		<component base="J"/>
	</outline>
	<anchor name="aboveUC" x="351" y="676"/>
	<anchor name="belowLC" x="258" y="-22"/>
</glyph>
<glyph name="alphalatin" format="2">
	<unicode hex="0251"/>
	<advance width="567"/>
	<outline>
		<contour>
			<point x="245" y="-12" type="curve" smooth="yes"/>
			<point x="302" y="-12"/>
			<point x="353" y="20"/>
			<point x="388" y="57" type="curve"/>
			<point x="391" y="57" type="line"/>
			<point x="404" y="11"/>
			<point x="436" y="-10"/>
			<point x="487" y="-10" type="curve" smooth="yes"/>
			<point x="510" y="-10"/>
			<point x="530" y="-4"/>
			<point x="542" y="0" type="curve"/>
			<point x="528" y="86" type="line"/>
			<point x="521" y="84"/>
			<point x="518" y="84"/>
			<point x="514" y="84" type="curve" smooth="yes"/>
			<point x="501" y="84"/>
			<point x="491" y="94"/>
			<point x="491" y="122" type="curve" smooth="yes"/>
			<point x="491" y="491" type="line"/>
			<point x="399" y="491" type="line"/>
			<point x="390" y="443" type="line"/>
			<point x="387" y="443" type="line"/>
			<point x="346" y="484"/>
			<point x="306" y="503"/>
			<point x="254" y="503" type="curve" smooth="yes"/>
			<point x="144" y="503"/>
			<point x="43" y="405"/>
			<point x="43" y="245" type="curve" smooth="yes"/>
			<point x="43" y="83"/>
			<point x="122" y="-12"/>
		</contour>
		<contour>
			<point x="273" y="83" type="curve" smooth="yes"/>
			<point x="202" y="83"/>
			<point x="162" y="140"/>
			<point x="162" y="246" type="curve" smooth="yes"/>
			<point x="162" y="349"/>
			<point x="213" y="408"/>
			<point x="276" y="408" type="curve" smooth="yes"/>
			<point x="309" y="408"/>
			<point x="342" y="397"/>
			<point x="376" y="367" type="curve"/>
			<point x="376" y="138" type="line"/>
			<point x="343" y="100"/>
			<point x="311" y="83"/>
		</contour>
	</outline>
	<anchor name="aboveLC" x="282" y="514"/>
	<anchor name="belowLC" x="288" y="-22"/>
</glyph>
<glyph name="iotalatin" format="2">
	<unicode hex="0269"/>
	<advance width="271"/>
	<outline>
		<contour>
			<point x="185" y="-10" type="curve" smooth="yes"/>
			<point x="212" y="-10"/>
			<point x="233" y="-5"/>
			<point x="246" y="0" type="curve"/>
			<point x="231" y="86" type="line"/>
			<point x="223" y="84"/>
			<point x="219" y="84"/>
			<point x="214" y="84" type="curve" smooth="yes"/>
			<point x="201" y="84"/>
			<point x="188" y="94"/>
			<point x="188" y="122" type="curve" smooth="yes"/>
			<point x="188" y="491" type="line"/>
			<point x="73" y="491" type="line"/>
			<point x="73" y="128" type="line" smooth="yes"/>
			<point x="73" y="42"/>
			<point x="103" y="-10"/>
		</contour>
	</outline>
	<anchor name="aboveLC" x="134" y="514"/>
	<anchor name="belowLC" x="154" y="-22"/>
</glyph>
<glyph name="lretroflex" format="2">
	<unicode hex="026D"/>
	<advance width="271"/>
	<outline>
		<contour>
			<point x="219" y="-206" type="curve" smooth="yes"/>
			<point x="250" y="-206"/>
			<point x="272" y="-200"/>
			<point x="288" y="-193" type="curve"/>
			<point x="267" y="-108" type="line"/>
			<point x="257" y="-112"/>
			<point x="247" y="-115"/>
			<point x="235" y="-115" type="curve" smooth="yes"/>
			<point x="200" y="-115"/>
			<point x="188" y="-88"/>
			<point x="188" y="-36" type="curve" smooth="yes"/>
			<point x="188" y="706" type="line"/>
			<point x="73" y="706" type="line"/>
			<point x="73" y="-34" type="line" smooth="yes"/>
			<point x="73" y="-134"/>
			<point x="110" y="-206"/>
		</contour>
	</outline>
	<anchor name="aboveUC" x="134" y="726"/>
	<anchor name="belowLC" x="176" y="-198"/>
</glyph>
<glyph name="apicaldental" format="2">
	<unicode hex="027F"/>
	<advance width="288"/>
	<outline>
		<contour>
			<point x="105" y="-194" type="line"/>
			<point x="220" y="-194" type="line"/>
			<point x="220" y="322" type="line" smooth="yes"/>
			<point x="220" y="426"/>
			<point x="180" y="503"/>
			<point x="59" y="503" type="curve" smooth="yes"/>
			<point x="27" y="503"/>
			<point x="6" y="497"/>
			<point x="-11" y="490" type="curve"/>
			<point x="11" y="405" type="line"/>
			<point x="21" y="409"/>
			<point x="31" y="412"/>
			<point x="43" y="412" type="curve" smooth="yes"/>
			<point x="91" y="412"/>
			<point x="105" y="381"/>
			<point x="105" y="324" type="curve" smooth="yes"/>
		</contour>
	</outline>
	<anchor name="aboveLC" x="132" y="514"/>
	<anchor name="belowLC" x="160" y="-198"/>
</glyph>
<glyph name="ysmall" format="2">
	<unicode hex="028F"/>
	<advance width="441"/>
	<outline>
		<contour>
			<point x="164" y="0" type="line"/>
			<point x="279" y="0" type="line"/>
			<point x="279" y="157" type="line"/>
			<point x="446" y="491" type="line"/>
			<point x="325" y="491" type="line"/>
			<point x="272" y="369" type="line"/>
			<point x="256" y="329"/>
			<point x="240" y="294"/>
			<point x="224" y="254" type="curve"/>
			<point x="220" y="254" type="line"/>
			<point x="203" y="294"/>
			<point x="187" y="329"/>
			<point x="172" y="369" type="curve"/>
			<point x="117" y="491" type="line"/>
			<point x="-4" y="491" type="line"/>
			<point x="164" y="157" type="line"/>
		</contour>
	</outline>
	<anchor name="aboveLC" x="220" y="514"/>
	<anchor name="belowLC" x="220" y="-22"/>
</glyph>
<glyph name="zcurl" format="2">
	<unicode hex="0291"/>
	<advance width="492"/>
	<outline>
		<contour>
			<point x="280" y="-82" type="line"/>
			<point x="316" y="92"/>
			<point x="358" y="162"/>
			<point x="398" y="162" type="curve" smooth="yes"/>
			<point x="414" y="162"/>
			<point x="424" y="152"/>
			<point x="424" y="136" type="curve" smooth="yes"/>
			<point x="424" y="112"/>
			<point x="400" y="88"/>
			<point x="355" y="88" type="curve" smooth="yes"/>
			<point x="294" y="88"/>
			<point x="234" y="90"/>
			<point x="174" y="94" type="curve"/>
			<point x="402" y="428" type="line"/>
			<point x="402" y="491" type="line"/>
			<point x="60" y="491" type="line"/>
			<point x="60" y="400" type="line"/>
			<point x="266" y="400" type="line"/>
			<point x="34" y="62" type="line"/>
			<point x="34" y="0" type="line"/>
			<point x="122" y="-4"/>
			<point x="238" y="-6"/>
			<point x="324" y="-6" type="curve" smooth="yes"/>
			<point x="446" y="-6"/>
			<point x="500" y="58"/>
			<point x="500" y="136" type="curve" smooth="yes"/>
			<point x="500" y="198"/>
			<point x="462" y="236"/>
			<point x="402" y="236" type="curve" smooth="yes"/>
			<point x="294" y="236"/>
			<point x="240" y="116"/>
			<point x="200" y="-70" type="curve"/>
		</contour>
	</outline>
	<anchor name="aboveLC" x="239" y="514"/>
	<anchor name="belowLC" x="248" y="-110"/>
</glyph>
<glyph name="tesh" format="2">
	<unicode hex="02A7"/>
	<advance width="571"/>
	<outline>
		<contour>
			<point x="246" y="-10" type="curve" smooth="yes"/>
			<point x="278" y="-10"/>
			<point x="306" y="-2"/>
			<point x="329" y="7" type="curve"/>
			<point x="308" y="90" type="line"/>
			<point x="294" y="84"/>
			<point x="281" y="81"/>
			<point x="269" y="81" type="curve" smooth="yes"/>
			<point x="225" y="81"/>
			<point x="206" y="110"/>
			<point x="206" y="167" type="curve" smooth="yes"/>
			<point x="206" y="400" type="line"/>
			<point x="444" y="400" type="line"/>
			<point x="444" y="491" type="line"/>
			<point x="206" y="491" type="line"/>
			<point x="206" y="645" type="line"/>
			<point x="110" y="645" type="line"/>
			<point x="96" y="491" type="line"/>
			<point x="20" y="486" type="line"/>
			<point x="20" y="400" type="line"/>
			<point x="90" y="400" type="line"/>
			<point x="90" y="167" type="line" smooth="yes"/>
			<point x="90" y="61"/>
			<point x="132" y="-10"/>
		</contour>
		<component base="esh" xOffset="308"/>
	</outline>
	<anchor name="aboveUC" x="322" y="726"/>
	<anchor name="belowLC" x="268" y="-198"/>
</glyph>
<glyph name="hhook.sups" format="2">
	<unicode hex="02B1"/>
	<advance width="375"/>
	<outline>
		<contour>
			<point x="47" y="385" type="line"/>
			<point x="130" y="385" type="line"/>
			<point x="130" y="609" type="line"/>
			<point x="156" y="635"/>
			<point x="177" y="648"/>
			<point x="200" y="648" type="curve" smooth="yes"/>
			<point x="242" y="648"/>
			<point x="250" y="622"/>
			<point x="250" y="577" type="curve" smooth="yes"/>
			<point x="250" y="385" type="line"/>
			<point x="334" y="385" type="line"/>
			<point x="334" y="588" type="line" smooth="yes"/>
			<point x="334" y="666"/>
			<point x="306" y="718"/>
			<point x="231" y="718" type="curve" smooth="yes"/>
			<point x="187" y="718"/>
			<point x="150" y="694"/>
			<point x="125" y="668" type="curve"/>
			<point x="129" y="738" type="line" smooth="yes"/>
			<point x="131" y="776"/>
			<point x="148" y="798"/>
			<point x="184" y="798" type="curve" smooth="yes"/>
			<point x="198" y="798"/>
			<point x="211" y="796"/>
			<point x="220" y="793" type="curve"/>
			<point x="236" y="852" type="line"/>
			<point x="219" y="859"/>
			<point x="199" y="863"/>
			<point x="173" y="863" type="curve" smooth="yes"/>
			<point x="83" y="863"/>
			<point x="47" y="803"/>
			<point x="47" y="729" type="curve" smooth="yes"/>
		</contour>
	</outline>
</glyph>
<glyph name="commaturnedmod" format="2">
	<unicode hex="02BB"/>
	<advance width="280"/>
	<outline>
		<contour>
			<point x="152" y="411" type="curve" smooth="yes"/>
			<point x="195" y="411"/>
			<point x="231" y="440"/>
			<point x="231" y="484" type="curve" smooth="yes"/>
			<point x="231" y="526"/>
			<point x="196" y="548"/>
			<point x="164" y="548" type="curve" smooth="yes"/>
			<point x="143" y="548"/>
			<point x="121" y="538"/>
			<point x="110" y="523" type="curve"/>
			<point x="128" y="523" type="line"/>
			<point x="122" y="532"/>
			<point x="120" y="540"/>
			<point x="120" y="553" type="curve" smooth="yes"/>
			<point x="120" y="593"/>
			<point x="147" y="643"/>
			<point x="214" y="671" type="curve"/>
			<point x="184" y="728" type="line"/>
			<point x="78" y="690"/>
			<point x="41" y="614"/>
			<point x="41" y="531" type="curve" smooth="yes"/>
			<point x="41" y="456"/>
			<point x="89" y="411"/>
		</contour>
	</outline>
</glyph>
<glyph name="apostrophemod" format="2">
	<unicode hex="02BC"/>
	<advance width="280"/>
	<outline>
		<contour>
			<point x="96" y="402" type="line"/>
			<point x="202" y="440"/>
			<point x="239" y="515"/>
			<point x="239" y="599" type="curve" smooth="yes"/>
			<point x="239" y="674"/>
			<point x="191" y="718"/>
			<point x="128" y="718" type="curve" smooth="yes"/>
			<point x="85" y="718"/>
			<point x="49" y="689"/>
			<point x="49" y="646" type="curve" smooth="yes"/>
			<point x="49" y="604"/>
			<point x="84" y="582"/>
			<point x="116" y="582" type="curve" smooth="yes"/>
			<point x="137" y="582"/>
			<point x="159" y="592"/>
			<point x="170" y="606" type="curve"/>
			<point x="152" y="606" type="line"/>
			<point x="158" y="598"/>
			<point x="160" y="589"/>
			<point x="160" y="577" type="curve" smooth="yes"/>
			<point x="160" y="537"/>
			<point x="133" y="487"/>
			<point x="66" y="459" type="curve"/>
		</contour>
	</outline>
</glyph>
<glyph name="ringhalfrightmod" format="2">
	<unicode hex="02BE"/>
	<advance width="256"/>
	<outline>
		<contour>
			<point x="47" y="423" type="line"/>
			<point x="160" y="418"/>
			<point x="220" y="469"/>
			<point x="220" y="567" type="curve" smooth="yes"/>
			<point x="220" y="665"/>
			<point x="160" y="716"/>
			<point x="47" y="711" type="curve"/>
			<point x="47" y="645" type="line"/>
			<point x="108" y="645"/>
			<point x="135" y="618"/>
			<point x="135" y="567" type="curve" smooth="yes"/>
			<point x="135" y="514"/>
			<point x="108" y="489"/>
			<point x="47" y="489" type="curve"/>
		</contour>
	</outline>
</glyph>
<glyph name="ringhalfleftmod" format="2">
	<unicode hex="02BF"/>
	<advance width="256"/>
	<outline>
		<contour>
			<point x="209" y="423" type="curve"/>
			<point x="209" y="489" type="line"/>
			<point x="148" y="489"/>
			<point x="121" y="514"/>
			<point x="121" y="567" type="curve" smooth="yes"/>
			<point x="121" y="618"/>
			<point x="148" y="645"/>
			<point x="209" y="645" type="curve"/>
			<point x="209" y="711" type="line"/>
			<point x="96" y="716"/>
			<point x="36" y="665"/>
			<point x="36" y="567" type="curve" smooth="yes"/>
			<point x="36" y="469"/>
			<point x="96" y="418"/>
		</contour>
	</outline>
</glyph>
<glyph name="verticallinemod" format="2">
	<unicode hex="02C8"/>
	<advance width="199"/>
	<outline>
		<contour>
			<point x="58" y="417" type="line"/>
			<point x="141" y="417" type="line"/>
			<point x="147" y="706" type="line"/>
			<point x="52" y="706" type="line"/>
		</contour>
	</outline>
</glyph>
<glyph name="colontriangularmod" format="2">
	<unicode hex="02D0"/>
	<advance width="275"/>
	<outline>
		<contour>
			<point x="46" y="0" type="line"/>
			<point x="229" y="0" type="line"/>
			<point x="144" y="167" type="line"/>
			<point x="131" y="167" type="line"/>
		</contour>
		<contour>
			<point x="131" y="325" type="line"/>
			<point x="144" y="325" type="line"/>
			<point x="229" y="491" type="line"/>
			<point x="46" y="491" type="line"/>
		</contour>
	</outline>
</glyph>
<glyph name="downtackmod" format="2">
	<unicode hex="02D5"/>
	<advance width="372"/>
	<outline>
		<contour>
			<point x="150" y="101" type="line"/>
			<point x="222" y="101" type="line"/>
			<point x="222" y="366" type="line"/>
			<point x="344" y="366" type="line"/>
			<point x="344" y="434" type="line"/>
			<point x="28" y="434" type="line"/>
			<point x="28" y="366" type="line"/>
			<point x="150" y="366" type="line"/>
		</contour>
	</outline>
</glyph>
<glyph name="l.sups" format="2">
	<unicode hex="02E1"/>
	<advance width="184"/>
	<outline>
		<contour>
			<point x="127" y="377" type="curve" smooth="yes"/>
			<point x="148" y="377"/>
			<point x="160" y="380"/>
			<point x="171" y="384" type="curve"/>
			<point x="160" y="446" type="line"/>
			<point x="154" y="444"/>
			<point x="151" y="444"/>
			<point x="147" y="444" type="curve" smooth="yes"/>
			<point x="137" y="444"/>
			<point x="130" y="451"/>
			<point x="130" y="470" type="curve" smooth="yes"/>
			<point x="130" y="850" type="line"/>
			<point x="47" y="850" type="line"/>
			<point x="47" y="475" type="line" smooth="yes"/>
			<point x="47" y="415"/>
			<point x="67" y="377"/>
		</contour>
	</outline>
</glyph>
<glyph name="acutecmb" format="2">
	<unicode hex="0301"/>
	<outline>
		<contour>
			<point x="-82" y="570" type="line"/>
			<point x="8" y="570" type="line"/>
			<point x="170" y="732" type="line"/>
			<point x="163" y="744" type="line"/>
			<point x="40" y="744" type="line"/>
		</contour>
	</outline>
	<anchor name="_aboveLC" x="0" y="514"/>
</glyph>
<glyph name="brevecmb" format="2">
	<unicode hex="0306"/>
	<outline>
		<contour>
			<point x="0" y="569" type="curve" smooth="yes"/>
			<point x="111" y="569"/>
			<point x="158" y="642"/>
			<point x="163" y="723" type="curve"/>
			<point x="95" y="734" type="line"/>
			<point x="88" y="687"/>
			<point x="59" y="643"/>
			<point x="0" y="643" type="curve" smooth="yes"/>
			<point x="-59" y="643"/>
			<point x="-88" y="687"/>
			<point x="-95" y="734" type="curve"/>
			<point x="-163" y="723" type="line"/>
			<point x="-158" y="642"/>
			<point x="-111" y="569"/>
		</contour>
	</outline>
	<anchor name="_aboveLC" x="0" y="514"/>
</glyph>
<glyph name="dotaccentcmb" format="2">
	<unicode hex="0307"/>
	<outline>
		<contour>
			<point x="0" y="577" type="curve" smooth="yes"/>
			<point x="41" y="577"/>
			<point x="69" y="603"/>
			<point x="69" y="643" type="curve" smooth="yes"/>
			<point x="69" y="682"/>
			<point x="41" y="708"/>
			<point x="0" y="708" type="curve" smooth="yes"/>
			<point x="-41" y="708"/>
			<point x="-69" y="682"/>
			<point x="-69" y="643" type="curve" smooth="yes"/>
			<point x="-69" y="603"/>
			<point x="-41" y="577"/>
		</contour>
	</outline>
	<anchor name="_aboveLC" x="0" y="514"/>
	<anchor name="aboveLC" x="0" y="711"/>
</glyph>
<glyph name="dieresiscmb" format="2">
	<unicode hex="0308"/>
	<outline>
		<contour>
			<point x="-103" y="578" type="curve" smooth="yes"/>
			<point x="-67" y="578"/>
			<point x="-42" y="605"/>
			<point x="-42" y="639" type="curve" smooth="yes"/>
			<point x="-42" y="673"/>
			<point x="-67" y="700"/>
			<point x="-103" y="700" type="curve" smooth="yes"/>
			<point x="-138" y="700"/>
			<point x="-164" y="673"/>
			<point x="-164" y="639" type="curve" smooth="yes"/>
			<point x="-164" y="605"/>
			<point x="-138" y="578"/>
		</contour>
		<contour>
			<point x="103" y="578" type="curve" smooth="yes"/>
			<point x="138" y="578"/>
			<point x="164" y="605"/>
			<point x="164" y="639" type="curve" smooth="yes"/>
			<point x="164" y="673"/>
			<point x="138" y="700"/>
			<point x="103" y="700" type="curve" smooth="yes"/>
			<point x="67" y="700"/>
			<point x="42" y="673"/>
			<point x="42" y="639" type="curve" smooth="yes"/>
			<point x="42" y="605"/>
			<point x="67" y="578"/>
		</contour>
	</outline>
	<anchor name="_aboveLC" x="0" y="514"/>
	<anchor name="aboveLC" x="0" y="711"/>
</glyph>
<glyph name="verticallineabovecmb" format="2">
	<unicode hex="030D"/>
	<outline>
		<contour>
			<point x="-41" y="568" type="line"/>
			<point x="41" y="568" type="line"/>
			<point x="47" y="760" type="line"/>
			<point x="-47" y="760" type="line"/>
		</contour>
	</outline>
	<anchor name="_aboveLC" x="0" y="514"/>
	<anchor name="aboveLC" x="0" y="730"/>
</glyph>
<glyph name="leftangleabovecmb" format="2">
	<unicode hex="031A"/>
	<outline>
		<contour>
			<point x="28" y="573" type="line"/>
			<point x="92" y="573" type="line"/>
			<point x="92" y="719" type="line"/>
			<point x="-82" y="719" type="line"/>
			<point x="-82" y="660" type="line"/>
			<point x="28" y="660" type="line"/>
		</contour>
	</outline>
	<anchor name="_aboverightLC" x="0" y="514"/>
</glyph>
<glyph name="ringhalfleftbelowcmb" format="2">
	<unicode hex="031C"/>
	<outline>
		<contour>
			<point x="71" y="-254" type="curve"/>
			<point x="71" y="-208" type="line"/>
			<point x="21" y="-210"/>
			<point x="0" y="-186"/>
			<point x="0" y="-153" type="curve" smooth="yes"/>
			<point x="0" y="-120"/>
			<point x="21" y="-97"/>
			<point x="71" y="-98" type="curve"/>
			<point x="71" y="-52" type="line"/>
			<point x="-32" y="-48"/>
			<point x="-78" y="-86"/>
			<point x="-78" y="-153" type="curve" smooth="yes"/>
			<point x="-78" y="-220"/>
			<point x="-32" y="-259"/>
		</contour>
	</outline>
	<anchor name="_belowLC" x="0" y="-22"/>
</glyph>
<glyph name="uptackbelowcmb" format="2">
	<unicode hex="031D"/>
	<outline>
		<contour>
			<point x="-102" y="-220" type="line"/>
			<point x="102" y="-220" type="line"/>
			<point x="102" y="-161" type="line"/>
			<point x="32" y="-161" type="line"/>
			<point x="32" y="-56" type="line"/>
			<point x="-32" y="-56" type="line"/>
			<point x="-32" y="-161" type="line"/>
			<point x="-102" y="-161" type="line"/>
		</contour>
	</outline>
	<anchor name="_belowLC" x="0" y="-22"/>
</glyph>
<glyph name="downtackbelowcmb" format="2">
	<unicode hex="031E"/>
	<outline>
		<contour>
			<point x="-32" y="-253" type="line"/>
			<point x="32" y="-253" type="line"/>
			<point x="32" y="-148" type="line"/>
			<point x="102" y="-148" type="line"/>
			<point x="102" y="-89" type="line"/>
			<point x="-102" y="-89" type="line"/>
			<point x="-102" y="-148" type="line"/>
			<point x="-32" y="-148" type="line"/>
		</contour>
	</outline>
	<anchor name="_belowLC" x="0" y="-22"/>
</glyph>
<glyph name="minusbelowcmb" format="2">
	<unicode hex="0320"/>
	<outline>
		<contour>
			<point x="-102" y="-184" type="line"/>
			<point x="102" y="-184" type="line"/>
			<point x="102" y="-125" type="line"/>
			<point x="-102" y="-125" type="line"/>
		</contour>
	</outline>
	<anchor name="_belowLC" x="0" y="-22"/>
</glyph>
<glyph name="commabelowcmb" format="2">
	<unicode hex="0326"/>
	<outline>
		<contour>
			<point x="-94" y="-233" type="line"/>
			<point x="21" y="-228"/>
			<point x="87" y="-198"/>
			<point x="87" y="-135" type="curve" smooth="yes"/>
			<point x="87" y="-88"/>
			<point x="55" y="-64"/>
			<point x="-42" y="-55" type="curve"/>
			<point x="-66" y="-101" type="line"/>
			<point x="-20" y="-105"/>
			<point x="2" y="-117"/>
			<point x="2" y="-140" type="curve" smooth="yes"/>
			<point x="2" y="-165"/>
			<point x="-23" y="-178"/>
			<point x="-104" y="-183" type="curve"/>
		</contour>
	</outline>
	<anchor name="_belowLC" x="0" y="-22"/>
</glyph>
<glyph name="ogonekcmb" format="2">
	<unicode hex="0328"/>
	<outline>
		<contour>
			<point x="13" y="-217" type="curve" smooth="yes"/>
			<point x="48" y="-217"/>
			<point x="86" y="-203"/>
			<point x="110" y="-184" type="curve"/>
			<point x="84" y="-123" type="line"/>
			<point x="70" y="-132"/>
			<point x="55" y="-138"/>
			<point x="35" y="-138" type="curve" smooth="yes"/>
			<point x="12" y="-138"/>
			<point x="-11" y="-125"/>
			<point x="-11" y="-95" type="curve" smooth="yes"/>
			<point x="-11" y="-61"/>
			<point x="14" y="-27"/>
			<point x="49" y="3" type="curve"/>
			<point x="-27" y="3" type="line"/>
			<point x="-56" y="-20"/>
			<point x="-97" y="-65"/>
			<point x="-97" y="-120" type="curve" smooth="yes"/>
			<point x="-97" y="-186"/>
			<point x="-48" y="-217"/>
		</contour>
	</outline>
	<anchor name="_ogonekLC" x="0" y="0"/>
</glyph>
<glyph name="tildeoverlaycmb" format="2">
	<unicode hex="0334"/>
	<outline>
		<contour>
			<point x="105" y="177" type="curve" smooth="yes"/>
			<point x="171" y="177"/>
			<point x="204" y="227"/>
			<point x="208" y="308" type="curve"/>
			<point x="134" y="322" type="line"/>
			<point x="131" y="282"/>
			<point x="118" y="258"/>
			<point x="94" y="258" type="curve" smooth="yes"/>
			<point x="36" y="258"/>
			<point x="-10" y="332"/>
			<point x="-105" y="332" type="curve" smooth="yes"/>
			<point x="-171" y="332"/>
			<point x="-204" y="282"/>
			<point x="-208" y="200" type="curve"/>
			<point x="-134" y="186" type="line"/>
			<point x="-131" y="227"/>
			<point x="-118" y="250"/>
			<point x="-94" y="250" type="curve" smooth="yes"/>
			<point x="-36" y="250"/>
			<point x="11" y="177"/>
		</contour>
	</outline>
	<anchor name="_center" x="0" y="247"/>
</glyph>
<glyph name="slashshortcmb" format="2">
	<unicode hex="0337"/>
	<outline>
		<contour>
			<point x="-457" y="-24" type="line"/>
			<point x="-46" y="480" type="line"/>
			<point x="-92" y="516" type="line"/>
			<point x="-503" y="12" type="line"/>
		</contour>
	</outline>
</glyph>
<glyph name="slashlongcmb" format="2">
	<unicode hex="0338"/>
	<outline>
		<contour>
			<point x="-568" y="-36" type="line"/>
			<point x="-34" y="642" type="line"/>
			<point x="-96" y="690" type="line"/>
			<point x="-630" y="12" type="line"/>
		</contour>
	</outline>
</glyph>
<glyph name="bridgeinvertedbelowcmb" format="2">
	<unicode hex="033A"/>
	<outline>
		<contour>
			<point x="-124" y="-220" type="line"/>
			<point x="124" y="-220" type="line"/>
			<point x="124" y="-77" type="line"/>
			<point x="65" y="-77" type="line"/>
			<point x="65" y="-160" type="line"/>
			<point x="-65" y="-160" type="line"/>
			<point x="-65" y="-77" type="line"/>
			<point x="-124" y="-77" type="line"/>
		</contour>
	</outline>
	<anchor name="_belowLC" x="0" y="-22"/>
</glyph>
<glyph name="squarebelowcmb" format="2">
	<unicode hex="033B"/>
	<outline>
		<contour>
			<point x="-124" y="-244" type="line"/>
			<point x="124" y="-244" type="line"/>
			<point x="124" y="-72" type="line"/>
			<point x="-124" y="-72" type="line"/>
		</contour>
		<contour>
			<point x="-65" y="-196" type="line"/>
			<point x="-65" y="-118" type="line"/>
			<point x="65" y="-118" type="line"/>
			<point x="65" y="-196" type="line"/>
		</contour>
	</outline>
	<anchor name="_belowLC" x="0" y="-22"/>
</glyph>
<glyph name="dialytikatonoscmb" format="2">
	<unicode hex="0344"/>
	<outline>
		<contour>
			<point x="-126" y="579" type="curve" smooth="yes"/>
			<point x="-92" y="579"/>
			<point x="-68" y="604"/>
			<point x="-68" y="636" type="curve" smooth="yes"/>
			<point x="-68" y="669"/>
			<point x="-92" y="694"/>
			<point x="-126" y="694" type="curve" smooth="yes"/>
			<point x="-159" y="694"/>
			<point x="-183" y="669"/>
			<point x="-183" y="636" type="curve" smooth="yes"/>
			<point x="-183" y="604"/>
			<point x="-159" y="579"/>
		</contour>
		<contour>
			<point x="126" y="579" type="curve" smooth="yes"/>
			<point x="159" y="579"/>
			<point x="183" y="604"/>
			<point x="183" y="636" type="curve" smooth="yes"/>
			<point x="183" y="669"/>
			<point x="159" y="694"/>
			<point x="126" y="694" type="curve" smooth="yes"/>
			<point x="92" y="694"/>
			<point x="68" y="669"/>
			<point x="68" y="636" type="curve" smooth="yes"/>
			<point x="68" y="604"/>
			<point x="92" y="579"/>
		</contour>
		<contour>
			<point x="-48" y="567" type="line"/>
			<point x="4" y="567" type="line"/>
			<point x="80" y="756" type="line"/>
			<point x="73" y="768" type="line"/>
			<point x="-12" y="768" type="line"/>
		</contour>
	</outline>
	<anchor name="_aboveLC" x="0" y="514"/>
</glyph>
<glyph name="breveinverteddoublecmb" format="2">
	<unicode hex="0361"/>
	<outline>
		<contour>
			<point x="-424" y="543" type="line"/>
			<point x="-296" y="618"/>
			<point x="-135" y="647"/>
			<point x="0" y="647" type="curve" smooth="yes"/>
			<point x="135" y="647"/>
			<point x="296" y="618"/>
			<point x="424" y="543" type="curve"/>
			<point x="456" y="598" type="line"/>
			<point x="320" y="681"/>
			<point x="164" y="723"/>
			<point x="0" y="723" type="curve" smooth="yes"/>
			<point x="-164" y="723"/>
			<point x="-320" y="681"/>
			<point x="-456" y="598" type="curve"/>
		</contour>
	</outline>
</glyph>
<glyph name="Theta" format="2">
	<unicode hex="0398"/>
	<advance width="674"/>
	<outline>
		<contour>
			<point x="232" y="290" type="line"/>
			<point x="442" y="290" type="line"/>
			<point x="442" y="391" type="line"/>
			<point x="232" y="391" type="line"/>
		</contour>
		<component base="O"/>
	</outline>
	<anchor name="aboveUC" x="337" y="676"/>
</glyph>
<glyph name="eta" format="2">
	<unicode hex="03B7"/>
	<advance width="552"/>
	<outline>
		<contour>
			<point x="368" y="-178" type="curve"/>
			<point x="484" y="-178" type="line"/>
			<point x="484" y="308" type="line" smooth="yes"/>
			<point x="484" y="432"/>
			<point x="445" y="503"/>
			<point x="345" y="503" type="curve" smooth="yes"/>
			<point x="275" y="503"/>
			<point x="226" y="463"/>
			<point x="180" y="398" type="curve"/>
			<point x="176" y="398" type="line"/>
			<point x="168" y="491" type="line"/>
			<point x="64" y="491" type="line"/>
			<point x="72" y="438"/>
			<point x="73" y="387"/>
			<point x="73" y="348" type="curve" smooth="yes"/>
			<point x="73" y="0" type="line"/>
			<point x="188" y="0" type="line"/>
			<point x="188" y="314" type="line"/>
			<point x="232" y="379"/>
			<point x="263" y="404"/>
			<point x="307" y="404" type="curve" smooth="yes"/>
			<point x="357" y="404"/>
			<point x="376" y="374"/>
			<point x="376" y="293" type="curve" smooth="yes"/>
			<point x="376" y="166"/>
			<point x="372" y="-21"/>
		</contour>
	</outline>
	<anchor name="aboveLC" x="298" y="514"/>
	<anchor name="belowLC" x="131" y="-22"/>
</glyph>
<glyph name="iota" format="2">
	<unicode hex="03B9"/>
	<advance width="282"/>
	<outline>
		<contour>
			<point x="191" y="-10" type="curve" smooth="yes"/>
			<point x="226" y="-10"/>
			<point x="246" y="-4"/>
			<point x="264" y="4" type="curve"/>
			<point x="250" y="90" type="line"/>
			<point x="239" y="86"/>
			<point x="228" y="84"/>
			<point x="219" y="84" type="curve" smooth="yes"/>
			<point x="195" y="84"/>
			<point x="182" y="94"/>
			<point x="182" y="124" type="curve" smooth="yes"/>
			<point x="182" y="223"/>
			<point x="186" y="368"/>
			<point x="190" y="491" type="curve"/>
			<point x="73" y="491" type="line"/>
			<point x="73" y="130" type="line" smooth="yes"/>
			<point x="73" y="43"/>
			<point x="102" y="-10"/>
		</contour>
	</outline>
	<anchor name="aboveLC" x="130" y="514"/>
	<anchor name="belowLC" x="164" y="-22"/>
</glyph>
<glyph name="nu" format="2">
	<unicode hex="03BD"/>
	<advance width="499"/>
	<outline>
		<contour>
			<point x="188" y="0" type="curve"/>
			<point x="298" y="0" type="line"/>
			<point x="403" y="178"/>
			<point x="453" y="319"/>
			<point x="480" y="491" type="curve"/>
			<point x="366" y="491" type="line"/>
			<point x="355" y="369"/>
			<point x="319" y="236"/>
			<point x="265" y="118" type="curve"/>
			<point x="261" y="118" type="line"/>
			<point x="237" y="236"/>
			<point x="179" y="406"/>
			<point x="119" y="503" type="curve"/>
			<point x="2" y="477" type="line"/>
			<point x="84" y="354"/>
			<point x="155" y="181"/>
		</contour>
	</outline>
	<anchor name="aboveLC" x="250" y="514"/>
	<anchor name="belowLC" x="250" y="-22"/>
</glyph>
<glyph name="xi" format="2">
	<unicode hex="03BE"/>
	<advance width="450"/>
	<outline>
		<contour>
			<point x="380" y="-186" type="line"/>
			<point x="421" y="-126"/>
			<point x="438" y="-68"/>
			<point x="438" y="-36" type="curve" smooth="yes"/>
			<point x="438" y="35"/>
			<point x="407" y="64"/>
			<point x="306" y="83" type="curve" smooth="yes"/>
			<point x="218" y="99"/>
			<point x="164" y="122"/>
			<point x="164" y="199" type="curve" smooth="yes"/>
			<point x="164" y="277"/>
			<point x="232" y="322"/>
			<point x="306" y="322" type="curve" smooth="yes"/>
			<point x="332" y="322"/>
			<point x="354" y="321"/>
			<point x="382" y="316" type="curve"/>
			<point x="382" y="416" type="line"/>
			<point x="356" y="411"/>
			<point x="344" y="410"/>
			<point x="319" y="410" type="curve" smooth="yes"/>
			<point x="263" y="410"/>
			<point x="208" y="450"/>
			<point x="208" y="511" type="curve" smooth="yes"/>
			<point x="208" y="576"/>
			<point x="255" y="615"/>
			<point x="314" y="615" type="curve" smooth="yes"/>
			<point x="422" y="615" type="line"/>
			<point x="422" y="706" type="line"/>
			<point x="22" y="706" type="line"/>
			<point x="22" y="615" type="line"/>
			<point x="80" y="619"/>
			<point x="106" y="620"/>
			<point x="151" y="622" type="curve"/>
			<point x="114" y="599"/>
			<point x="92" y="559"/>
			<point x="92" y="514" type="curve" smooth="yes"/>
			<point x="92" y="450"/>
			<point x="130" y="400"/>
			<point x="189" y="376" type="curve"/>
			<point x="189" y="372" type="line"/>
			<point x="111" y="348"/>
			<point x="46" y="276"/>
			<point x="46" y="185" type="curve" smooth="yes"/>
			<point x="46" y="58"/>
			<point x="130" y="13"/>
			<point x="233" y="-8" type="curve" smooth="yes"/>
			<point x="315" y="-25"/>
			<point x="336" y="-37"/>
			<point x="336" y="-66" type="curve" smooth="yes"/>
			<point x="336" y="-92"/>
			<point x="320" y="-112"/>
			<point x="289" y="-153" type="curve"/>
		</contour>
	</outline>
	<anchor name="aboveUC" x="240" y="726"/>
	<anchor name="belowLC" x="220" y="-182"/>
</glyph>
<glyph name="tau" format="2">
	<unicode hex="03C4"/>
	<advance width="474"/>
	<outline>
		<contour>
			<point x="299" y="-10" type="curve" smooth="yes"/>
			<point x="336" y="-10"/>
			<point x="369" y="-3"/>
			<point x="394" y="4" type="curve"/>
			<point x="379" y="92" type="line"/>
			<point x="360" y="86"/>
			<point x="344" y="84"/>
			<point x="327" y="84" type="curve" smooth="yes"/>
			<point x="302" y="84"/>
			<point x="288" y="96"/>
			<point x="288" y="130" type="curve" smooth="yes"/>
			<point x="288" y="208"/>
			<point x="289" y="303"/>
			<point x="292" y="400" type="curve"/>
			<point x="450" y="400" type="line"/>
			<point x="450" y="491" type="line"/>
			<point x="96" y="491" type="line"/>
			<point x="24" y="486" type="line"/>
			<point x="24" y="400" type="line"/>
			<point x="179" y="400" type="line"/>
			<point x="179" y="136" type="line" smooth="yes"/>
			<point x="179" y="45"/>
			<point x="209" y="-10"/>
		</contour>
	</outline>
	<anchor name="aboveLC" x="250" y="514"/>
	<anchor name="belowLC" x="278" y="-22"/>
</glyph>
<glyph name="omega" format="2">
	<unicode hex="03C9"/>
	<advance width="724"/>
	<outline>
		<contour>
			<point x="208" y="-12" type="curve" smooth="yes"/>
			<point x="284" y="-12"/>
			<point x="342" y="33"/>
			<point x="359" y="123" type="curve"/>
			<point x="363" y="123" type="line"/>
			<point x="379" y="33"/>
			<point x="443" y="-12"/>
			<point x="511" y="-12" type="curve" smooth="yes"/>
			<point x="621" y="-12"/>
			<point x="678" y="84"/>
			<point x="678" y="238" type="curve" smooth="yes"/>
			<point x="678" y="340"/>
			<point x="647" y="427"/>
			<point x="598" y="503" type="curve"/>
			<point x="493" y="463" type="line"/>
			<point x="545" y="383"/>
			<point x="562" y="319"/>
			<point x="562" y="237" type="curve" smooth="yes"/>
			<point x="562" y="137"/>
			<point x="534" y="82"/>
			<point x="488" y="82" type="curve" smooth="yes"/>
			<point x="446" y="82"/>
			<point x="412" y="117"/>
			<point x="412" y="227" type="curve" smooth="yes"/>
			<point x="412" y="268"/>
			<point x="416" y="298"/>
			<point x="422" y="350" type="curve"/>
			<point x="299" y="350" type="line"/>
			<point x="305" y="298"/>
			<point x="309" y="268"/>
			<point x="309" y="227" type="curve" smooth="yes"/>
			<point x="309" y="124"/>
			<point x="274" y="82"/>
			<point x="230" y="82" type="curve" smooth="yes"/>
			<point x="181" y="82"/>
			<point x="155" y="136"/>
			<point x="155" y="223" type="curve" smooth="yes"/>
			<point x="155" y="303"/>
			<point x="182" y="381"/>
			<point x="234" y="460" type="curve"/>
			<point x="127" y="503" type="line"/>
			<point x="80" y="429"/>
			<point x="46" y="322"/>
			<point x="46" y="233" type="curve" smooth="yes"/>
			<point x="46" y="81"/>
			<point x="111" y="-12"/>
		</contour>
	</outline>
	<anchor name="aboveLC" x="360" y="514"/>
	<anchor name="belowLC" x="360" y="-22"/>
</glyph>
<glyph name="beta.a" format="2">
	<unicode hex="03D0"/>
	<advance width="574"/>
	<outline>
		<contour>
			<point x="305" y="-12" type="curve" smooth="yes"/>
			<point x="432" y="-12"/>
			<point x="536" y="62"/>
			<point x="536" y="198" type="curve" smooth="yes"/>
			<point x="536" y="294"/>
			<point x="472" y="368"/>
			<point x="374" y="379" type="curve"/>
			<point x="374" y="383" type="line"/>
			<point x="446" y="416"/>
			<point x="480" y="472"/>
			<point x="480" y="542" type="curve" smooth="yes"/>
			<point x="480" y="656"/>
			<point x="394" y="718"/>
			<point x="292" y="718" type="curve" smooth="yes"/>
			<point x="142" y="718"/>
			<point x="70" y="610"/>
			<point x="70" y="460" type="curve" smooth="yes"/>
			<point x="70" y="223" type="line" smooth="yes"/>
			<point x="70" y="50"/>
			<point x="188" y="-12"/>
		</contour>
		<contour>
			<point x="308" y="84" type="curve" smooth="yes"/>
			<point x="250" y="84"/>
			<point x="178" y="120"/>
			<point x="178" y="242" type="curve" smooth="yes"/>
			<point x="178" y="310"/>
			<point x="179" y="370"/>
			<point x="182" y="462" type="curve" smooth="yes"/>
			<point x="185" y="570"/>
			<point x="220" y="624"/>
			<point x="286" y="624" type="curve" smooth="yes"/>
			<point x="330" y="624"/>
			<point x="366" y="596"/>
			<point x="366" y="532" type="curve" smooth="yes"/>
			<point x="366" y="458"/>
			<point x="318" y="405"/>
			<point x="132" y="374" type="curve"/>
			<point x="148" y="278" type="line"/>
			<point x="236" y="306"/>
			<point x="274" y="316"/>
			<point x="302" y="316" type="curve" smooth="yes"/>
			<point x="386" y="316"/>
			<point x="422" y="262"/>
			<point x="422" y="200" type="curve" smooth="yes"/>
			<point x="422" y="126"/>
			<point x="372" y="84"/>
		</contour>
	</outline>
</glyph>
<glyph name="sho" format="2">
	<unicode hex="03F8"/>
	<advance width="547"/>
	<outline>
		<contour>
			<point x="73" y="-178" type="line"/>
			<point x="190" y="-178" type="line"/>
			<point x="187" y="-98"/>
			<point x="185" y="-32"/>
			<point x="182" y="50" type="curve"/>
			<point x="222" y="3"/>
			<point x="269" y="-12"/>
			<point x="317" y="-12" type="curve" smooth="yes"/>
			<point x="422" y="-12"/>
			<point x="520" y="85"/>
			<point x="520" y="253" type="curve" smooth="yes"/>
			<point x="520" y="405"/>
			<point x="453" y="503"/>
			<point x="344" y="503" type="curve" smooth="yes"/>
			<point x="279" y="503"/>
			<point x="232" y="475"/>
			<point x="184" y="410" type="curve"/>
			<point x="185" y="481"/>
			<point x="187" y="567"/>
			<point x="188" y="645" type="curve"/>
			<point x="73" y="645" type="line"/>
		</contour>
		<contour>
			<point x="292" y="83" type="curve" smooth="yes"/>
			<point x="257" y="83"/>
			<point x="220" y="92"/>
			<point x="182" y="136" type="curve"/>
			<point x="182" y="249" type="line" smooth="yes"/>
			<point x="182" y="350"/>
			<point x="243" y="408"/>
			<point x="300" y="408" type="curve" smooth="yes"/>
			<point x="370" y="408"/>
			<point x="402" y="350"/>
			<point x="402" y="252" type="curve" smooth="yes"/>
			<point x="402" y="141"/>
			<point x="352" y="83"/>
		</contour>
	</outline>
	<anchor name="aboveLC" x="324" y="650"/>
	<anchor name="belowLC" x="206" y="-182"/>
</glyph>
<glyph name="Lje" format="2">
	<unicode hex="0409"/>
	<advance width="902"/>
	<outline>
		<contour>
			<point x="61" y="-10" type="curve" smooth="yes"/>
			<point x="154" y="-10"/>
			<point x="200" y="42"/>
			<point x="244" y="251" type="curve" smooth="yes"/>
			<point x="266" y="352"/>
			<point x="284" y="450"/>
			<point x="299" y="556" type="curve"/>
			<point x="425" y="556" type="line"/>
			<point x="425" y="0" type="line"/>
			<point x="612" y="0" type="line" smooth="yes"/>
			<point x="758" y="0"/>
			<point x="862" y="59"/>
			<point x="862" y="208" type="curve" smooth="yes"/>
			<point x="862" y="345"/>
			<point x="758" y="401"/>
			<point x="613" y="401" type="curve" smooth="yes"/>
			<point x="541" y="401" type="line"/>
			<point x="541" y="654" type="line"/>
			<point x="210" y="654" type="line"/>
			<point x="188" y="519"/>
			<point x="166" y="393"/>
			<point x="136" y="263" type="curve" smooth="yes"/>
			<point x="102" y="117"/>
			<point x="79" y="99"/>
			<point x="45" y="99" type="curve" smooth="yes"/>
			<point x="34" y="99"/>
			<point x="26" y="101"/>
			<point x="17" y="104" type="curve"/>
			<point x="-5" y="-1" type="line"/>
			<point x="14" y="-7"/>
			<point x="33" y="-10"/>
		</contour>
		<contour>
			<point x="541" y="93" type="line"/>
			<point x="541" y="308" type="line"/>
			<point x="601" y="308" type="line" smooth="yes"/>
			<point x="699" y="308"/>
			<point x="748" y="276"/>
			<point x="748" y="206" type="curve" smooth="yes"/>
			<point x="748" y="126"/>
			<point x="696" y="93"/>
			<point x="602" y="93" type="curve" smooth="yes"/>
		</contour>
	</outline>
</glyph>
<glyph name="Tshe" format="2">
	<unicode hex="040B"/>
	<advance width="707"/>
	<outline>
		<contour>
			<point x="195" y="0" type="line"/>
			<point x="311" y="0" type="line"/>
			<point x="311" y="302" type="line"/>
			<point x="337" y="307"/>
			<point x="372" y="311"/>
			<point x="402" y="311" type="curve" smooth="yes"/>
			<point x="490" y="311"/>
			<point x="530" y="275"/>
			<point x="530" y="190" type="curve" smooth="yes"/>
			<point x="530" y="0" type="line"/>
			<point x="643" y="0" type="line"/>
			<point x="643" y="190" type="line" smooth="yes"/>
			<point x="643" y="342"/>
			<point x="558" y="404"/>
			<point x="415" y="404" type="curve" smooth="yes"/>
			<point x="379" y="404"/>
			<point x="344" y="401"/>
			<point x="311" y="396" type="curve"/>
			<point x="311" y="556" type="line"/>
			<point x="529" y="556" type="line"/>
			<point x="529" y="654" type="line"/>
			<point x="26" y="654" type="line"/>
			<point x="26" y="556" type="line"/>
			<point x="195" y="556" type="line"/>
		</contour>
	</outline>
</glyph>
<glyph name="Dzhe" format="2">
	<unicode hex="040F"/>
	<advance width="654"/>
	<outline>
		<contour>
			<point x="277" y="-188" type="line"/>
			<point x="380" y="-188" type="line"/>
			<point x="389" y="0" type="line"/>
			<point x="571" y="0" type="line"/>
			<point x="571" y="654" type="line"/>
			<point x="455" y="654" type="line"/>
			<point x="455" y="98" type="line"/>
			<point x="199" y="98" type="line"/>
			<point x="199" y="654" type="line"/>
			<point x="83" y="654" type="line"/>
			<point x="83" y="0" type="line"/>
			<point x="277" y="0" type="line"/>
		</contour>
	</outline>
</glyph>
<glyph name="Zhe" format="2">
	<unicode hex="0416"/>
	<advance width="853"/>
	<outline>
		<contour>
			<point x="4" y="0" type="line"/>
			<point x="130" y="0" type="line"/>
			<point x="283" y="294" type="line"/>
			<point x="371" y="294" type="line"/>
			<point x="371" y="0" type="line"/>
			<point x="482" y="0" type="line"/>
			<point x="482" y="294" type="line"/>
			<point x="570" y="294" type="line"/>
			<point x="723" y="0" type="line"/>
			<point x="849" y="0" type="line"/>
			<point x="656" y="346" type="line"/>
			<point x="717" y="486" type="line" smooth="yes"/>
			<point x="743" y="544"/>
			<point x="765" y="555"/>
			<point x="790" y="555" type="curve" smooth="yes"/>
			<point x="798" y="555"/>
			<point x="806" y="553"/>
			<point x="810" y="551" type="curve"/>
			<point x="830" y="657" type="line"/>
			<point x="819" y="661"/>
			<point x="801" y="664"/>
			<point x="785" y="664" type="curve" smooth="yes"/>
			<point x="720" y="664"/>
			<point x="669" y="640"/>
			<point x="630" y="546" type="curve" smooth="yes"/>
			<point x="564" y="388" type="line"/>
			<point x="482" y="388" type="line"/>
			<point x="482" y="654" type="line"/>
			<point x="371" y="654" type="line"/>
			<point x="371" y="388" type="line"/>
			<point x="288" y="388" type="line"/>
			<point x="222" y="546" type="line" smooth="yes"/>
			<point x="184" y="640"/>
			<point x="133" y="664"/>
			<point x="68" y="664" type="curve" smooth="yes"/>
			<point x="52" y="664"/>
			<point x="34" y="661"/>
			<point x="23" y="657" type="curve"/>
			<point x="42" y="551" type="line"/>
			<point x="47" y="553"/>
			<point x="55" y="555"/>
			<point x="62" y="555" type="curve" smooth="yes"/>
			<point x="88" y="555"/>
			<point x="110" y="544"/>
			<point x="136" y="486" type="curve" smooth="yes"/>
			<point x="197" y="346" type="line"/>
		</contour>
	</outline>
	<anchor name="aboveUC" x="426" y="676"/>
</glyph>
<glyph name="Ze" format="2">
	<unicode hex="0417"/>
	<advance width="553"/>
	<outline>
		<contour>
			<point x="282" y="-12" type="curve" smooth="yes"/>
			<point x="408" y="-12"/>
			<point x="517" y="59"/>
			<point x="517" y="189" type="curve" smooth="yes"/>
			<point x="517" y="274"/>
			<point x="462" y="330"/>
			<point x="394" y="346" type="curve"/>
			<point x="394" y="350" type="line"/>
			<point x="450" y="374"/>
			<point x="484" y="426"/>
			<point x="484" y="494" type="curve" smooth="yes"/>
			<point x="484" y="602"/>
			<point x="401" y="666"/>
			<point x="264" y="666" type="curve" smooth="yes"/>
			<point x="181" y="666"/>
			<point x="108" y="632"/>
			<point x="58" y="582" type="curve"/>
			<point x="117" y="510" type="line"/>
			<point x="159" y="544"/>
			<point x="205" y="565"/>
			<point x="261" y="565" type="curve" smooth="yes"/>
			<point x="324" y="565"/>
			<point x="371" y="534"/>
			<point x="371" y="476" type="curve" smooth="yes"/>
			<point x="371" y="416"/>
			<point x="330" y="384"/>
			<point x="239" y="384" type="curve" smooth="yes"/>
			<point x="175" y="384" type="line"/>
			<point x="175" y="297" type="line"/>
			<point x="256" y="297" type="line" smooth="yes"/>
			<point x="352" y="297"/>
			<point x="403" y="266"/>
			<point x="403" y="197" type="curve" smooth="yes"/>
			<point x="403" y="128"/>
			<point x="345" y="89"/>
			<point x="269" y="89" type="curve" smooth="yes"/>
			<point x="206" y="89"/>
			<point x="147" y="107"/>
			<point x="94" y="158" type="curve"/>
			<point x="32" y="86" type="line"/>
			<point x="100" y="13"/>
			<point x="177" y="-12"/>
		</contour>
	</outline>
</glyph>
<glyph name="Ka" format="2">
	<unicode hex="041A"/>
	<advance width="597"/>
	<outline>
		<contour>
			<point x="83" y="0" type="line"/>
			<point x="199" y="0" type="line"/>
			<point x="199" y="294" type="line"/>
			<point x="294" y="294" type="line"/>
			<point x="471" y="0" type="line"/>
			<point x="599" y="0" type="line"/>
			<point x="384" y="347" type="line"/>
			<point x="456" y="486" type="line" smooth="yes"/>
			<point x="486" y="544"/>
			<point x="503" y="555"/>
			<point x="529" y="555" type="curve" smooth="yes"/>
			<point x="540" y="555"/>
			<point x="548" y="554"/>
			<point x="555" y="552" type="curve"/>
			<point x="574" y="657" type="line"/>
			<point x="562" y="662"/>
			<point x="544" y="664"/>
			<point x="526" y="664" type="curve" smooth="yes"/>
			<point x="462" y="664"/>
			<point x="416" y="642"/>
			<point x="370" y="546" type="curve" smooth="yes"/>
			<point x="294" y="388" type="line"/>
			<point x="199" y="388" type="line"/>
			<point x="199" y="654" type="line"/>
			<point x="83" y="654" type="line"/>
		</contour>
	</outline>
	<anchor name="aboveUC" x="324" y="682"/>
</glyph>
<glyph name="El" format="2">
	<unicode hex="041B"/>
	<advance width="644"/>
	<outline>
		<contour>
			<point x="61" y="-10" type="curve" smooth="yes"/>
			<point x="154" y="-10"/>
			<point x="199" y="42"/>
			<point x="243" y="251" type="curve" smooth="yes"/>
			<point x="265" y="352"/>
			<point x="284" y="450"/>
			<point x="299" y="556" type="curve"/>
			<point x="445" y="556" type="line"/>
			<point x="445" y="0" type="line"/>
			<point x="561" y="0" type="line"/>
			<point x="561" y="654" type="line"/>
			<point x="210" y="654" type="line"/>
			<point x="188" y="519"/>
			<point x="166" y="393"/>
			<point x="136" y="263" type="curve" smooth="yes"/>
			<point x="102" y="117"/>
			<point x="79" y="99"/>
			<point x="45" y="99" type="curve" smooth="yes"/>
			<point x="34" y="99"/>
			<point x="26" y="101"/>
			<point x="17" y="104" type="curve"/>
			<point x="-5" y="-1" type="line"/>
			<point x="14" y="-7"/>
			<point x="33" y="-10"/>
		</contour>
	</outline>
</glyph>
<glyph name="Tse" format="2">
	<unicode hex="0426"/>
	<advance width="656"/>
	<outline>
		<contour>
			<point x="523" y="-188" type="line"/>
			<point x="626" y="-188" type="line"/>
			<point x="637" y="26" type="line"/>
			<point x="637" y="98" type="line"/>
			<point x="560" y="98" type="line"/>
			<point x="560" y="654" type="line"/>
			<point x="444" y="654" type="line"/>
			<point x="444" y="98" type="line"/>
			<point x="199" y="98" type="line"/>
			<point x="199" y="654" type="line"/>
			<point x="83" y="654" type="line"/>
			<point x="83" y="0" type="line"/>
			<point x="523" y="0" type="line"/>
		</contour>
	</outline>
	<anchor name="aboveUC" x="322" y="676"/>
</glyph>
<glyph name="Che" format="2">
	<unicode hex="0427"/>
	<advance width="614"/>
	<outline>
		<contour>
			<point x="415" y="0" type="line"/>
			<point x="531" y="0" type="line"/>
			<point x="531" y="654" type="line"/>
			<point x="415" y="654" type="line"/>
			<point x="415" y="353" type="line"/>
			<point x="390" y="348"/>
			<point x="359" y="344"/>
			<point x="314" y="344" type="curve" smooth="yes"/>
			<point x="223" y="344"/>
			<point x="177" y="377"/>
			<point x="177" y="476" type="curve" smooth="yes"/>
			<point x="177" y="654" type="line"/>
			<point x="64" y="654" type="line"/>
			<point x="64" y="476" type="line" smooth="yes"/>
			<point x="64" y="310"/>
			<point x="150" y="250"/>
			<point x="302" y="250" type="curve" smooth="yes"/>
			<point x="352" y="250"/>
			<point x="384" y="255"/>
			<point x="415" y="260" type="curve"/>
		</contour>
	</outline>
	<anchor name="aboveUC" x="300" y="676"/>
</glyph>
<glyph name="Hard" format="2">
	<unicode hex="042A"/>
	<advance width="725"/>
	<outline>
		<contour>
			<point x="227" y="0" type="line"/>
			<point x="438" y="0" type="line" smooth="yes"/>
			<point x="581" y="0"/>
			<point x="685" y="59"/>
			<point x="685" y="208" type="curve" smooth="yes"/>
			<point x="685" y="343"/>
			<point x="572" y="401"/>
			<point x="432" y="401" type="curve" smooth="yes"/>
			<point x="343" y="401" type="line"/>
			<point x="343" y="654" type="line"/>
			<point x="26" y="654" type="line"/>
			<point x="26" y="556" type="line"/>
			<point x="227" y="556" type="line"/>
		</contour>
		<contour>
			<point x="343" y="93" type="line"/>
			<point x="343" y="308" type="line"/>
			<point x="422" y="308" type="line" smooth="yes"/>
			<point x="520" y="308"/>
			<point x="571" y="274"/>
			<point x="571" y="206" type="curve" smooth="yes"/>
			<point x="571" y="126"/>
			<point x="522" y="93"/>
			<point x="428" y="93" type="curve" smooth="yes"/>
		</contour>
	</outline>
</glyph>
<glyph name="Yu" format="2">
	<unicode hex="042E"/>
	<advance width="929"/>
	<outline>
		<contour>
			<point x="83" y="0" type="line"/>
			<point x="199" y="0" type="line"/>
			<point x="199" y="290" type="line"/>
			<point x="392" y="290" type="line"/>
			<point x="392" y="391" type="line"/>
			<point x="199" y="391" type="line"/>
			<point x="199" y="654" type="line"/>
			<point x="83" y="654" type="line"/>
		</contour>
		<contour>
			<point x="602" y="-12" type="curve" smooth="yes"/>
			<point x="770" y="-12"/>
			<point x="880" y="118"/>
			<point x="880" y="330" type="curve" smooth="yes"/>
			<point x="880" y="541"/>
			<point x="770" y="666"/>
			<point x="602" y="666" type="curve" smooth="yes"/>
			<point x="434" y="666"/>
			<point x="326" y="541"/>
			<point x="326" y="330" type="curve" smooth="yes"/>
			<point x="326" y="118"/>
			<point x="434" y="-12"/>
		</contour>
		<contour>
			<point x="602" y="89" type="curve" smooth="yes"/>
			<point x="501" y="89"/>
			<point x="442" y="183"/>
			<point x="442" y="330" type="curve" smooth="yes"/>
			<point x="442" y="476"/>
			<point x="501" y="565"/>
			<point x="602" y="565" type="curve" smooth="yes"/>
			<point x="702" y="565"/>
			<point x="761" y="476"/>
			<point x="761" y="330" type="curve" smooth="yes"/>
			<point x="761" y="183"/>
			<point x="702" y="89"/>
		</contour>
	</outline>
	<anchor name="aboveUC" x="462" y="676"/>
</glyph>
<glyph name="ve" format="2">
	<unicode hex="0432"/>
	<advance width="518"/>
	<outline>
		<contour>
			<point x="73" y="0" type="line"/>
			<point x="282" y="0" type="line" smooth="yes"/>
			<point x="395" y="0"/>
			<point x="482" y="42"/>
			<point x="482" y="142" type="curve" smooth="yes"/>
			<point x="482" y="210"/>
			<point x="438" y="244"/>
			<point x="380" y="257" type="curve"/>
			<point x="380" y="261" type="line"/>
			<point x="434" y="276"/>
			<point x="462" y="316"/>
			<point x="462" y="364" type="curve" smooth="yes"/>
			<point x="462" y="458"/>
			<point x="381" y="491"/>
			<point x="272" y="491" type="curve" smooth="yes"/>
			<point x="73" y="491" type="line"/>
		</contour>
		<contour>
			<point x="186" y="296" type="line"/>
			<point x="186" y="413" type="line"/>
			<point x="264" y="413" type="line" smooth="yes"/>
			<point x="325" y="413"/>
			<point x="350" y="390"/>
			<point x="350" y="352" type="curve" smooth="yes"/>
			<point x="350" y="318"/>
			<point x="324" y="296"/>
			<point x="261" y="296" type="curve" smooth="yes"/>
		</contour>
		<contour>
			<point x="186" y="78" type="line"/>
			<point x="186" y="210" type="line"/>
			<point x="270" y="210" type="line" smooth="yes"/>
			<point x="336" y="210"/>
			<point x="368" y="186"/>
			<point x="368" y="148" type="curve" smooth="yes"/>
			<point x="368" y="105"/>
			<point x="340" y="78"/>
			<point x="274" y="78" type="curve" smooth="yes"/>
		</contour>
	</outline>
</glyph>
<glyph name="ka" format="2">
	<unicode hex="043A"/>
	<advance width="522"/>
	<outline>
		<contour>
			<point x="73" y="0" type="line"/>
			<point x="187" y="0" type="line"/>
			<point x="187" y="208" type="line"/>
			<point x="274" y="208" type="line"/>
			<point x="389" y="0" type="line"/>
			<point x="514" y="0" type="line"/>
			<point x="359" y="258" type="line"/>
			<point x="392" y="335" type="line" smooth="yes"/>
			<point x="414" y="384"/>
			<point x="434" y="392"/>
			<point x="459" y="392" type="curve" smooth="yes"/>
			<point x="466" y="392"/>
			<point x="470" y="390"/>
			<point x="476" y="388" type="curve"/>
			<point x="495" y="495" type="line"/>
			<point x="485" y="500"/>
			<point x="473" y="502"/>
			<point x="461" y="502" type="curve" smooth="yes"/>
			<point x="398" y="502"/>
			<point x="357" y="484"/>
			<point x="317" y="399" type="curve" smooth="yes"/>
			<point x="271" y="300" type="line"/>
			<point x="187" y="300" type="line"/>
			<point x="187" y="491" type="line"/>
			<point x="73" y="491" type="line"/>
		</contour>
	</outline>
	<anchor name="aboveLC" x="280" y="514"/>
</glyph>
<glyph name="el" format="2">
	<unicode hex="043B"/>
	<advance width="552"/>
	<outline>
		<contour>
			<point x="60" y="-10" type="curve" smooth="yes"/>
			<point x="144" y="-10"/>
			<point x="193" y="47"/>
			<point x="208" y="155" type="curve" smooth="yes"/>
			<point x="218" y="236"/>
			<point x="228" y="319"/>
			<point x="238" y="400" type="curve"/>
			<point x="364" y="400" type="line"/>
			<point x="364" y="0" type="line"/>
			<point x="479" y="0" type="line"/>
			<point x="479" y="491" type="line"/>
			<point x="146" y="491" type="line"/>
			<point x="135" y="389"/>
			<point x="124" y="288"/>
			<point x="111" y="186" type="curve" smooth="yes"/>
			<point x="103" y="125"/>
			<point x="82" y="100"/>
			<point x="52" y="100" type="curve" smooth="yes"/>
			<point x="42" y="100"/>
			<point x="35" y="102"/>
			<point x="28" y="104" type="curve"/>
			<point x="8" y="-1" type="line"/>
			<point x="24" y="-7"/>
			<point x="39" y="-10"/>
		</contour>
	</outline>
</glyph>
<glyph name="pe" format="2">
	<unicode hex="043F"/>
	<advance width="564"/>
	<outline>
		<contour>
			<point x="73" y="0" type="line"/>
			<point x="188" y="0" type="line"/>
			<point x="188" y="400" type="line"/>
			<point x="375" y="400" type="line"/>
			<point x="375" y="0" type="line"/>
			<point x="490" y="0" type="line"/>
			<point x="490" y="491" type="line"/>
			<point x="73" y="491" type="line"/>
		</contour>
	</outline>
</glyph>
<glyph name="Fita" format="2">
	<unicode hex="0472"/>
	<advance width="674"/>
	<outline>
		<contour>
			<point x="337" y="-12" type="curve" smooth="yes"/>
			<point x="506" y="-12"/>
			<point x="626" y="110"/>
			<point x="626" y="330" type="curve" smooth="yes"/>
			<point x="626" y="549"/>
			<point x="506" y="666"/>
			<point x="337" y="666" type="curve" smooth="yes"/>
			<point x="169" y="666"/>
			<point x="49" y="549"/>
			<point x="49" y="330" type="curve" smooth="yes"/>
			<point x="49" y="110"/>
			<point x="169" y="-12"/>
		</contour>
		<contour>
			<point x="337" y="84" type="curve" smooth="yes"/>
			<point x="233" y="84"/>
			<point x="164" y="172"/>
			<point x="164" y="332" type="curve" smooth="yes"/>
			<point x="164" y="486"/>
			<point x="233" y="570"/>
			<point x="337" y="570" type="curve" smooth="yes"/>
			<point x="442" y="570"/>
			<point x="511" y="486"/>
			<point x="511" y="332" type="curve" smooth="yes"/>
			<point x="511" y="172"/>
			<point x="442" y="84"/>
		</contour>
		<contour>
			<point x="129" y="294" type="line"/>
			<point x="556" y="294" type="line"/>
			<point x="556" y="386" type="line"/>
			<point x="129" y="386" type="line"/>
		</contour>
	</outline>
	<anchor name="aboveUC" x="337" y="676"/>
</glyph>
<glyph name="Izhitsa" format="2">
	<unicode hex="0474"/>
	<advance width="552"/>
	<outline>
		<contour>
			<point x="196" y="0" type="line"/>
			<point x="340" y="0" type="line"/>
			<point x="479" y="488" type="line" smooth="yes"/>
			<point x="492" y="531"/>
			<point x="506" y="556"/>
			<point x="536" y="556" type="curve" smooth="yes"/>
			<point x="547" y="556"/>
			<point x="556" y="553"/>
			<point x="564" y="550" type="curve"/>
			<point x="586" y="656" type="line"/>
			<point x="568" y="663"/>
			<point x="553" y="666"/>
			<point x="526" y="666" type="curve" smooth="yes"/>
			<point x="443" y="666"/>
			<point x="407" y="619"/>
			<point x="375" y="509" type="curve" smooth="yes"/>
			<point x="321" y="325" type="line"/>
			<point x="299" y="249"/>
			<point x="288" y="187"/>
			<point x="269" y="112" type="curve"/>
			<point x="265" y="112" type="line"/>
			<point x="243" y="187"/>
			<point x="227" y="249"/>
			<point x="207" y="325" type="curve" smooth="yes"/>
			<point x="119" y="654" type="line"/>
			<point x="-4" y="654" type="line"/>
		</contour>
	</outline>
	<anchor name="aboveUC" x="282" y="676"/>
</glyph>
<glyph name="izhitsa" format="2">
	<unicode hex="0475"/>
	<advance width="505"/>
	<outline>
		<contour>
			<point x="183" y="0" type="line"/>
			<point x="323" y="0" type="line"/>
			<point x="420" y="331" type="line" smooth="yes"/>
			<point x="433" y="374"/>
			<point x="449" y="400"/>
			<point x="478" y="400" type="curve" smooth="yes"/>
			<point x="490" y="400"/>
			<point x="498" y="396"/>
			<point x="505" y="394" type="curve"/>
			<point x="526" y="493" type="line"/>
			<point x="508" y="500"/>
			<point x="494" y="503"/>
			<point x="466" y="503" type="curve" smooth="yes"/>
			<point x="387" y="503"/>
			<point x="350" y="452"/>
			<point x="322" y="346" type="curve" smooth="yes"/>
			<point x="288" y="236" type="line" smooth="yes"/>
			<point x="274" y="188"/>
			<point x="264" y="138"/>
			<point x="253" y="88" type="curve"/>
			<point x="249" y="88" type="line"/>
			<point x="236" y="138"/>
			<point x="220" y="188"/>
			<point x="207" y="236" type="curve" smooth="yes"/>
			<point x="129" y="491" type="line"/>
			<point x="12" y="491" type="line"/>
		</contour>
	</outline>
	<anchor name="aboveLC" x="272" y="514"/>
</glyph>
<glyph name="zhedescender" format="2">
	<unicode hex="0497"/>
	<advance width="767"/>
	<outline>
		<contour>
			<point x="643" y="-172" type="line"/>
			<point x="741" y="-172" type="line"/>
			<point x="752" y="17" type="line"/>
			<point x="752" y="92" type="line"/>
			<point x="615" y="92" type="line"/>
			<point x="615" y="0" type="line"/>
			<point x="643" y="0" type="line"/>
		</contour>
		<component base="zhe"/>
	</outline>
</glyph>
<glyph name="Kadescender" format="2">
	<unicode hex="049A"/>
	<advance width="648"/>
	<outline>
		<contour>
			<point x="512" y="-188" type="line"/>
			<point x="615" y="-188" type="line"/>
			<point x="626" y="26" type="line"/>
			<point x="626" y="98" type="line"/>
			<point x="487" y="98" type="line"/>
			<point x="487" y="0" type="line"/>
			<point x="512" y="0" type="line"/>
		</contour>
		<component base="Ka"/>
	</outline>
</glyph>
<glyph name="Esdescender" format="2">
	<unicode hex="04AA"/>
	<advance width="576"/>
	<outline>
		<contour>
			<point x="289" y="-188" type="line"/>
			<point x="392" y="-188" type="line"/>
			<point x="402" y="19" type="line"/>
			<point x="289" y="0" type="line"/>
		</contour>
		<component base="C"/>
	</outline>
</glyph>
<glyph name="Kahook" format="2">
	<unicode hex="04C3"/>
	<advance width="609"/>
	<outline>
		<contour>
			<point x="336" y="-174" type="curve" smooth="yes"/>
			<point x="464" y="-174"/>
			<point x="571" y="-86"/>
			<point x="571" y="107" type="curve" smooth="yes"/>
			<point x="571" y="307"/>
			<point x="433" y="386"/>
			<point x="286" y="386" type="curve"/>
			<point x="384" y="347" type="line"/>
			<point x="456" y="486" type="line" smooth="yes"/>
			<point x="486" y="544"/>
			<point x="503" y="555"/>
			<point x="529" y="555" type="curve" smooth="yes"/>
			<point x="540" y="555"/>
			<point x="548" y="554"/>
			<point x="555" y="552" type="curve"/>
			<point x="574" y="657" type="line"/>
			<point x="562" y="662"/>
			<point x="544" y="664"/>
			<point x="526" y="664" type="curve" smooth="yes"/>
			<point x="462" y="664"/>
			<point x="416" y="642"/>
			<point x="370" y="546" type="curve" smooth="yes"/>
			<point x="294" y="388" type="line"/>
			<point x="199" y="388" type="line"/>
			<point x="199" y="654" type="line"/>
			<point x="83" y="654" type="line"/>
			<point x="83" y="0" type="line"/>
			<point x="199" y="0" type="line"/>
			<point x="199" y="294" type="line"/>
			<point x="263" y="294" type="line" smooth="yes"/>
			<point x="380" y="294"/>
			<point x="456" y="234"/>
			<point x="456" y="106" type="curve" smooth="yes"/>
			<point x="456" y="-30"/>
			<point x="380" y="-81"/>
			<point x="318" y="-81" type="curve" smooth="yes"/>
			<point x="304" y="-81"/>
			<point x="288" y="-78"/>
			<point x="276" y="-74" type="curve"/>
			<point x="255" y="-161" type="line"/>
			<point x="273" y="-168"/>
			<point x="300" y="-174"/>
		</contour>
	</outline>
</glyph>
<glyph name="ghedescender" format="2">
	<unicode hex="04F7"/>
	<advance width="422"/>
	<outline>
		<contour>
			<point x="152" y="-172" type="line"/>
			<point x="251" y="-172" type="line"/>
			<point x="262" y="17" type="line"/>
			<point x="262" y="92" type="line"/>
			<point x="117" y="92" type="line"/>
			<point x="117" y="0" type="line"/>
			<point x="152" y="0" type="line"/>
		</contour>
		<component base="ghe"/>
	</outline>
</glyph>
<glyph name="ain" format="2">
	<unicode hex="1D25"/>
	<advance width="541"/>
	<outline>
		<contour>
			<point x="100" y="-12" type="curve" smooth="yes"/>
			<point x="152" y="-12"/>
			<point x="209" y="14"/>
			<point x="270" y="71" type="curve"/>
			<point x="332" y="14"/>
			<point x="389" y="-12"/>
			<point x="440" y="-12" type="curve" smooth="yes"/>
			<point x="472" y="-12"/>
			<point x="505" y="-3"/>
			<point x="525" y="12" type="curve"/>
			<point x="491" y="94" type="line"/>
			<point x="478" y="85"/>
			<point x="461" y="82"/>
			<point x="444" y="82" type="curve" smooth="yes"/>
			<point x="408" y="82"/>
			<point x="376" y="102"/>
			<point x="343" y="136" type="curve"/>
			<point x="413" y="199"/>
			<point x="456" y="274"/>
			<point x="456" y="335" type="curve" smooth="yes"/>
			<point x="456" y="436"/>
			<point x="386" y="503"/>
			<point x="270" y="503" type="curve" smooth="yes"/>
			<point x="154" y="503"/>
			<point x="85" y="436"/>
			<point x="85" y="335" type="curve" smooth="yes"/>
			<point x="85" y="274"/>
			<point x="127" y="199"/>
			<point x="198" y="136" type="curve"/>
			<point x="165" y="102"/>
			<point x="132" y="82"/>
			<point x="97" y="82" type="curve" smooth="yes"/>
			<point x="79" y="82"/>
			<point x="63" y="85"/>
			<point x="50" y="94" type="curve"/>
			<point x="16" y="12" type="line"/>
			<point x="36" y="-3"/>
			<point x="69" y="-12"/>
		</contour>
	</outline>
	<anchor name="aboveLC" x="272" y="514"/>
	<anchor name="belowLC" x="272" y="-22"/>
</glyph>
<glyph name="E.sups" format="2">
	<unicode hex="1D31"/>
	<advance width="360"/>
	<outline>
		<contour>
			<point x="53" y="385" type="line"/>
			<point x="327" y="385" type="line"/>
			<point x="327" y="454" type="line"/>
			<point x="137" y="454" type="line"/>
			<point x="137" y="575" type="line"/>
			<point x="293" y="575" type="line"/>
			<point x="293" y="644" type="line"/>
			<point x="137" y="644" type="line"/>
			<point x="137" y="747" type="line"/>
			<point x="321" y="747" type="line"/>
			<point x="321" y="817" type="line"/>
			<point x="53" y="817" type="line"/>
		</contour>
	</outline>
</glyph>
<glyph name="I.sups" format="2">
	<unicode hex="1D35"/>
	<advance width="190"/>
	<outline>
		<contour>
			<point x="53" y="385" type="line"/>
			<point x="137" y="385" type="line"/>
			<point x="137" y="817" type="line"/>
			<point x="53" y="817" type="line"/>
		</contour>
	</outline>
</glyph>
<glyph name="R.sups" format="2">
	<unicode hex="1D3F"/>
	<advance width="402"/>
	<outline>
		<contour>
			<point x="53" y="385" type="line"/>
			<point x="137" y="385" type="line"/>
			<point x="137" y="550" type="line"/>
			<point x="204" y="550" type="line" smooth="yes"/>
			<point x="296" y="550"/>
			<point x="368" y="595"/>
			<point x="368" y="688" type="curve" smooth="yes"/>
			<point x="368" y="785"/>
			<point x="296" y="817"/>
			<point x="204" y="817" type="curve" smooth="yes"/>
			<point x="53" y="817" type="line"/>
		</contour>
		<contour>
			<point x="137" y="616" type="line"/>
			<point x="137" y="750" type="line"/>
			<point x="196" y="750" type="line" smooth="yes"/>
			<point x="254" y="750"/>
			<point x="285" y="733"/>
			<point x="285" y="686" type="curve" smooth="yes"/>
			<point x="285" y="640"/>
			<point x="254" y="616"/>
			<point x="196" y="616" type="curve" smooth="yes"/>
		</contour>
		<contour>
			<point x="292" y="385" type="line"/>
			<point x="386" y="385" type="line"/>
			<point x="249" y="623" type="line"/>
			<point x="189" y="572" type="line"/>
		</contour>
	</outline>
</glyph>
<glyph name="m.sups" format="2">
	<unicode hex="1D50"/>
	<advance width="568"/>
	<outline>
		<contour>
			<point x="47" y="385" type="line"/>
			<point x="130" y="385" type="line"/>
			<point x="130" y="610" type="line"/>
			<point x="156" y="636"/>
			<point x="175" y="648"/>
			<point x="194" y="648" type="curve" smooth="yes"/>
			<point x="233" y="648"/>
			<point x="244" y="622"/>
			<point x="244" y="577" type="curve" smooth="yes"/>
			<point x="244" y="385" type="line"/>
			<point x="328" y="385" type="line"/>
			<point x="328" y="610" type="line"/>
			<point x="353" y="636"/>
			<point x="373" y="648"/>
			<point x="392" y="648" type="curve" smooth="yes"/>
			<point x="431" y="648"/>
			<point x="442" y="622"/>
			<point x="442" y="577" type="curve" smooth="yes"/>
			<point x="442" y="385" type="line"/>
			<point x="525" y="385" type="line"/>
			<point x="525" y="588" type="line" smooth="yes"/>
			<point x="525" y="666"/>
			<point x="494" y="718"/>
			<point x="422" y="718" type="curve" smooth="yes"/>
			<point x="378" y="718"/>
			<point x="344" y="691"/>
			<point x="315" y="660" type="curve"/>
			<point x="299" y="698"/>
			<point x="269" y="718"/>
			<point x="224" y="718" type="curve" smooth="yes"/>
			<point x="180" y="718"/>
			<point x="150" y="694"/>
			<point x="124" y="666" type="curve"/>
			<point x="121" y="666" type="line"/>
			<point x="114" y="710" type="line"/>
			<point x="47" y="710" type="line"/>
		</contour>
	</outline>
</glyph>
<glyph name="mmiddletilde" format="2">
	<unicode hex="1D6F"/>
	<advance width="978"/>
	<outline>
		<contour>
			<point x="874" y="137" type="curve" smooth="yes"/>
			<point x="950" y="137"/>
			<point x="986" y="187"/>
			<point x="990" y="268" type="curve"/>
			<point x="916" y="282" type="line"/>
			<point x="913" y="242"/>
			<point x="896" y="218"/>
			<point x="862" y="218" type="curve" smooth="yes"/>
			<point x="784" y="218"/>
			<point x="217" y="292"/>
			<point x="104" y="292" type="curve" smooth="yes"/>
			<point x="28" y="292"/>
			<point x="-9" y="242"/>
			<point x="-13" y="160" type="curve"/>
			<point x="61" y="146" type="line"/>
			<point x="64" y="187"/>
			<point x="82" y="210"/>
			<point x="116" y="210" type="curve" smooth="yes"/>
			<point x="193" y="210"/>
			<point x="762" y="137"/>
		</contour>
		<component base="m" xOffset="63"/>
	</outline>
	<anchor name="aboveLC" x="497" y="514"/>
	<anchor name="belowLC" x="491" y="-22"/>
</glyph>
<glyph name="nmiddletilde" format="2">
	<unicode hex="1D70"/>
	<advance width="694"/>
	<outline>
		<contour>
			<point x="590" y="137" type="curve" smooth="yes"/>
			<point x="666" y="137"/>
			<point x="703" y="187"/>
			<point x="707" y="268" type="curve"/>
			<point x="633" y="282" type="line"/>
			<point x="630" y="242"/>
			<point x="612" y="218"/>
			<point x="579" y="218" type="curve" smooth="yes"/>
			<point x="509" y="218"/>
			<point x="209" y="292"/>
			<point x="104" y="292" type="curve" smooth="yes"/>
			<point x="28" y="292"/>
			<point x="-9" y="242"/>
			<point x="-13" y="160" type="curve"/>
			<point x="61" y="146" type="line"/>
			<point x="64" y="187"/>
			<point x="82" y="210"/>
			<point x="116" y="210" type="curve" smooth="yes"/>
			<point x="185" y="210"/>
			<point x="487" y="137"/>
		</contour>
		<component base="n" xOffset="63"/>
	</outline>
	<anchor name="aboveLC" x="367" y="514"/>
	<anchor name="belowLC" x="345" y="-22"/>
</glyph>
<glyph name="upsilonstroke" format="2">
	<unicode hex="1D7F"/>
	<advance width="557"/>
	<outline>
		<contour>
			<point x="4" y="210" type="line"/>
			<point x="554" y="210" type="line"/>
			<point x="554" y="298" type="line"/>
			<point x="94" y="298" type="line"/>
			<point x="4" y="292" type="line"/>
		</contour>
		<component base="upsilonlatin"/>
	</outline>
	<anchor name="aboveLC" x="280" y="514"/>
	<anchor name="belowLC" x="280" y="-22"/>
</glyph>
<glyph name="c.sups" format="2">
	<unicode hex="1D9C"/>
	<advance width="310"/>
	<outline>
		<contour>
			<point x="186" y="377" type="curve" smooth="yes"/>
			<point x="237" y="377"/>
			<point x="272" y="396"/>
			<point x="295" y="415" type="curve"/>
			<point x="261" y="468" type="line"/>
			<point x="245" y="455"/>
			<point x="226" y="444"/>
			<point x="195" y="444" type="curve" smooth="yes"/>
			<point x="146" y="444"/>
			<point x="112" y="486"/>
			<point x="112" y="548" type="curve" smooth="yes"/>
			<point x="112" y="609"/>
			<point x="148" y="652"/>
			<point x="196" y="652" type="curve" smooth="yes"/>
			<point x="219" y="652"/>
			<point x="235" y="644"/>
			<point x="252" y="630" type="curve"/>
			<point x="290" y="684" type="line"/>
			<point x="272" y="700"/>
			<point x="238" y="718"/>
			<point x="189" y="718" type="curve" smooth="yes"/>
			<point x="103" y="718"/>
			<point x="27" y="655"/>
			<point x="27" y="548" type="curve" smooth="yes"/>
			<point x="27" y="439"/>
			<point x="94" y="377"/>
		</contour>
	</outline>
</glyph>
<glyph name="f.sups" format="2">
	<unicode hex="1DA0"/>
	<advance width="217"/>
	<outline>
		<contour>
			<point x="62" y="385" type="line"/>
			<point x="145" y="385" type="line"/>
			<point x="145" y="741" type="line" smooth="yes"/>
			<point x="145" y="778"/>
			<point x="160" y="798"/>
			<point x="186" y="798" type="curve" smooth="yes"/>
			<point x="200" y="798"/>
			<point x="212" y="795"/>
			<point x="221" y="792" type="curve"/>
			<point x="237" y="852" type="line"/>
			<point x="220" y="859"/>
			<point x="200" y="863"/>
			<point x="175" y="863" type="curve" smooth="yes"/>
			<point x="94" y="863"/>
			<point x="62" y="806"/>
			<point x="62" y="737" type="curve" smooth="yes"/>
		</contour>
		<contour>
			<point x="17" y="646" type="line"/>
			<point x="209" y="646" type="line"/>
			<point x="209" y="710" type="line"/>
			<point x="66" y="710" type="line"/>
			<point x="17" y="707" type="line"/>
		</contour>
	</outline>
</glyph>
<glyph name="nhookleft.sups" format="2">
	<unicode hex="1DAE"/>
	<advance width="378"/>
	<outline>
		<contour>
			<point x="52" y="245" type="curve" smooth="yes"/>
			<point x="112" y="245"/>
			<point x="132" y="283"/>
			<point x="132" y="343" type="curve" smooth="yes"/>
			<point x="132" y="609" type="line"/>
			<point x="158" y="635"/>
			<point x="179" y="648"/>
			<point x="203" y="648" type="curve" smooth="yes"/>
			<point x="244" y="648"/>
			<point x="252" y="622"/>
			<point x="252" y="577" type="curve" smooth="yes"/>
			<point x="252" y="385" type="line"/>
			<point x="336" y="385" type="line"/>
			<point x="336" y="588" type="line" smooth="yes"/>
			<point x="336" y="666"/>
			<point x="308" y="718"/>
			<point x="233" y="718" type="curve" smooth="yes"/>
			<point x="189" y="718"/>
			<point x="153" y="694"/>
			<point x="126" y="666" type="curve"/>
			<point x="123" y="666" type="line"/>
			<point x="115" y="710" type="line"/>
			<point x="49" y="710" type="line"/>
			<point x="49" y="338" type="line" smooth="yes"/>
			<point x="49" y="319"/>
			<point x="42" y="312"/>
			<point x="32" y="312" type="curve" smooth="yes"/>
			<point x="28" y="312"/>
			<point x="25" y="312"/>
			<point x="19" y="314" type="curve"/>
			<point x="8" y="252" type="line"/>
			<point x="19" y="248"/>
			<point x="31" y="245"/>
		</contour>
	</outline>
</glyph>
<glyph name="theta.sups" format="2">
	<unicode hex="1DBF"/>
	<advance width="369"/>
	<outline>
		<contour>
			<point x="184" y="377" type="curve" smooth="yes"/>
			<point x="265" y="377"/>
			<point x="337" y="436"/>
			<point x="337" y="621" type="curve" smooth="yes"/>
			<point x="337" y="805"/>
			<point x="265" y="863"/>
			<point x="184" y="863" type="curve" smooth="yes"/>
			<point x="103" y="863"/>
			<point x="31" y="805"/>
			<point x="31" y="621" type="curve" smooth="yes"/>
			<point x="31" y="436"/>
			<point x="103" y="377"/>
		</contour>
		<contour>
			<point x="184" y="444" type="curve" smooth="yes"/>
			<point x="139" y="444"/>
			<point x="116" y="490"/>
			<point x="116" y="621" type="curve" smooth="yes"/>
			<point x="116" y="751"/>
			<point x="139" y="796"/>
			<point x="184" y="796" type="curve" smooth="yes"/>
			<point x="229" y="796"/>
			<point x="252" y="751"/>
			<point x="252" y="621" type="curve" smooth="yes"/>
			<point x="252" y="490"/>
			<point x="229" y="444"/>
		</contour>
		<contour>
			<point x="66" y="590" type="line"/>
			<point x="297" y="590" type="line"/>
			<point x="297" y="655" type="line"/>
			<point x="66" y="655" type="line"/>
		</contour>
	</outline>
</glyph>
<glyph name="iotaadscript" format="2">
	<unicode hex="1FBE"/>
	<advance width="282"/>
	<outline>
		<contour>
			<point x="191" y="-10" type="curve" smooth="yes"/>
			<point x="226" y="-10"/>
			<point x="246" y="-4"/>
			<point x="264" y="4" type="curve"/>
			<point x="250" y="90" type="line"/>
			<point x="239" y="86"/>
			<point x="228" y="84"/>
			<point x="219" y="84" type="curve" smooth="yes"/>
			<point x="195" y="84"/>
			<point x="182" y="94"/>
			<point x="182" y="124" type="curve" smooth="yes"/>
			<point x="182" y="204"/>
			<point x="185" y="312"/>
			<point x="190" y="411" type="curve"/>
			<point x="73" y="411" type="line"/>
			<point x="73" y="130" type="line" smooth="yes"/>
			<point x="73" y="43"/>
			<point x="102" y="-10"/>
		</contour>
	</outline>
</glyph>
<glyph name="emdash" format="2">
	<unicode hex="2014"/>
	<advance width="800"/>
	<outline>
		<contour>
			<point x="42" y="214" type="line"/>
			<point x="758" y="214" type="line"/>
			<point x="758" y="290" type="line"/>
			<point x="42" y="290" type="line"/>
		</contour>
	</outline>
</glyph>
<glyph name="prime" format="2">
	<unicode hex="2032"/>
	<advance width="275"/>
	<outline>
		<contour>
			<point x="150" y="418" type="line"/>
			<point x="199" y="576" type="line"/>
			<point x="223" y="682" type="line"/>
			<point x="110" y="692" type="line"/>
			<point x="75" y="423" type="line"/>
		</contour>
	</outline>
</glyph>
<glyph name="undertie" format="2">
	<unicode hex="203F"/>
	<advance width="575"/>
	<outline>
		<contour>
			<point x="288" y="-232" type="curve" smooth="yes"/>
			<point x="414" y="-232"/>
			<point x="515" y="-182"/>
			<point x="575" y="-106" type="curve"/>
			<point x="531" y="-52" type="line"/>
			<point x="474" y="-117"/>
			<point x="384" y="-156"/>
			<point x="288" y="-156" type="curve" smooth="yes"/>
			<point x="191" y="-156"/>
			<point x="101" y="-118"/>
			<point x="44" y="-52" type="curve"/>
			<point x="0" y="-106" type="line"/>
			<point x="60" y="-182"/>
			<point x="161" y="-232"/>
		</contour>
	</outline>
</glyph>
<glyph name="i.sups" format="2">
	<unicode hex="2071"/>
	<advance width="177"/>
	<outline>
		<contour>
			<point x="47" y="385" type="line"/>
			<point x="130" y="385" type="line"/>
			<point x="130" y="710" type="line"/>
			<point x="47" y="710" type="line"/>
		</contour>
		<contour>
			<point x="89" y="764" type="curve" smooth="yes"/>
			<point x="118" y="764"/>
			<point x="140" y="783"/>
			<point x="140" y="810" type="curve" smooth="yes"/>
			<point x="140" y="836"/>
			<point x="118" y="856"/>
			<point x="89" y="856" type="curve" smooth="yes"/>
			<point x="59" y="856"/>
			<point x="38" y="836"/>
			<point x="38" y="810" type="curve" smooth="yes"/>
			<point x="38" y="783"/>
			<point x="59" y="764"/>
		</contour>
	</outline>
</glyph>
<glyph name="tugrik" format="2">
	<unicode hex="20AE"/>
	<advance width="513"/>
	<outline>
		<contour>
			<point x="198" y="0" type="line"/>
			<point x="314" y="0" type="line"/>
			<point x="314" y="552" type="line"/>
			<point x="478" y="552" type="line"/>
			<point x="478" y="636" type="line"/>
			<point x="34" y="636" type="line"/>
			<point x="34" y="552" type="line"/>
			<point x="198" y="552" type="line"/>
		</contour>
		<contour>
			<point x="94" y="102" type="line"/>
			<point x="202" y="160" type="line"/>
			<point x="310" y="210" type="line"/>
			<point x="448" y="284" type="line"/>
			<point x="420" y="340" type="line"/>
			<point x="310" y="280" type="line"/>
			<point x="202" y="230" type="line"/>
			<point x="66" y="158" type="line"/>
		</contour>
		<contour>
			<point x="94" y="236" type="line"/>
			<point x="202" y="294" type="line"/>
			<point x="310" y="344" type="line"/>
			<point x="448" y="418" type="line"/>
			<point x="420" y="474" type="line"/>
			<point x="310" y="414" type="line"/>
			<point x="202" y="364" type="line"/>
			<point x="66" y="292" type="line"/>
		</contour>
	</outline>
</glyph>
<glyph name="rupeeindian" format="2">
	<unicode hex="20B9"/>
	<advance width="513"/>
	<outline>
		<contour>
			<point x="70" y="224" type="line"/>
			<point x="152" y="224" type="line" smooth="yes"/>
			<point x="286" y="224"/>
			<point x="392" y="290"/>
			<point x="392" y="438" type="curve" smooth="yes"/>
			<point x="392" y="498"/>
			<point x="366" y="542"/>
			<point x="328" y="568" type="curve"/>
			<point x="458" y="568" type="line"/>
			<point x="458" y="636" type="line"/>
			<point x="70" y="636" type="line"/>
			<point x="70" y="542" type="line"/>
			<point x="138" y="542" type="line" smooth="yes"/>
			<point x="228" y="542"/>
			<point x="278" y="514"/>
			<point x="278" y="438" type="curve" smooth="yes"/>
			<point x="278" y="357"/>
			<point x="228" y="318"/>
			<point x="138" y="318" type="curve" smooth="yes"/>
			<point x="70" y="318" type="line"/>
		</contour>
		<contour>
			<point x="70" y="408" type="line"/>
			<point x="458" y="408" type="line"/>
			<point x="458" y="476" type="line"/>
			<point x="142" y="476" type="line"/>
			<point x="70" y="470" type="line"/>
		</contour>
		<contour>
			<point x="304" y="0" type="line"/>
			<point x="436" y="0" type="line"/>
			<point x="208" y="304" type="line"/>
			<point x="128" y="248" type="line"/>
		</contour>
	</outline>
</glyph>
<glyph name="soundcopyright" format="2">
	<unicode hex="2117"/>
	<advance width="746"/>
	<outline>
		<contour>
			<point x="374" y="-10" type="curve" smooth="yes"/>
			<point x="549" y="-10"/>
			<point x="700" y="119"/>
			<point x="700" y="324" type="curve" smooth="yes"/>
			<point x="700" y="529"/>
			<point x="549" y="654"/>
			<point x="374" y="654" type="curve" smooth="yes"/>
			<point x="198" y="654"/>
			<point x="47" y="529"/>
			<point x="47" y="324" type="curve" smooth="yes"/>
			<point x="47" y="119"/>
			<point x="198" y="-10"/>
		</contour>
		<contour>
			<point x="374" y="42" type="curve" smooth="yes"/>
			<point x="224" y="42"/>
			<point x="105" y="155"/>
			<point x="105" y="324" type="curve" smooth="yes"/>
			<point x="105" y="493"/>
			<point x="224" y="603"/>
			<point x="374" y="603" type="curve" smooth="yes"/>
			<point x="523" y="603"/>
			<point x="642" y="493"/>
			<point x="642" y="324" type="curve" smooth="yes"/>
			<point x="642" y="155"/>
			<point x="523" y="42"/>
		</contour>
		<contour>
			<point x="246" y="140" type="line"/>
			<point x="332" y="140" type="line"/>
			<point x="332" y="243" type="line"/>
			<point x="388" y="243" type="line" smooth="yes"/>
			<point x="475" y="243"/>
			<point x="548" y="287"/>
			<point x="548" y="380" type="curve" smooth="yes"/>
			<point x="548" y="469"/>
			<point x="477" y="504"/>
			<point x="388" y="504" type="curve" smooth="yes"/>
			<point x="246" y="504" type="line"/>
		</contour>
		<contour>
			<point x="332" y="306" type="line"/>
			<point x="332" y="438" type="line"/>
			<point x="378" y="438" type="line" smooth="yes"/>
			<point x="432" y="438"/>
			<point x="463" y="420"/>
			<point x="463" y="377" type="curve" smooth="yes"/>
			<point x="463" y="328"/>
			<point x="433" y="306"/>
			<point x="378" y="306" type="curve" smooth="yes"/>
		</contour>
	</outline>
</glyph>
<glyph name="prescription" format="2">
	<unicode hex="211E"/>
	<advance width="719"/>
	<outline>
		<contour>
			<point x="83" y="0" type="line"/>
			<point x="199" y="0" type="line"/>
			<point x="199" y="256" type="line"/>
			<point x="304" y="256" type="line" smooth="yes"/>
			<point x="440" y="256"/>
			<point x="544" y="319"/>
			<point x="544" y="460" type="curve" smooth="yes"/>
			<point x="544" y="606"/>
			<point x="440" y="654"/>
			<point x="304" y="654" type="curve" smooth="yes"/>
			<point x="83" y="654" type="line"/>
		</contour>
		<contour>
			<point x="199" y="348" type="line"/>
			<point x="199" y="561" type="line"/>
			<point x="292" y="561" type="line" smooth="yes"/>
			<point x="381" y="561"/>
			<point x="430" y="535"/>
			<point x="430" y="460" type="curve" smooth="yes"/>
			<point x="430" y="386"/>
			<point x="381" y="348"/>
			<point x="292" y="348" type="curve" smooth="yes"/>
		</contour>
		<contour>
			<point x="279" y="-194" type="line"/>
			<point x="400" y="-194" type="line"/>
			<point x="447" y="-115" type="line" smooth="yes"/>
			<point x="461" y="-87"/>
			<point x="473" y="-59"/>
			<point x="486" y="-31" type="curve"/>
			<point x="490" y="-31" type="line"/>
			<point x="507" y="-59"/>
			<point x="525" y="-87"/>
			<point x="541" y="-115" type="curve" smooth="yes"/>
			<point x="591" y="-194" type="line"/>
			<point x="714" y="-194" type="line"/>
			<point x="571" y="31" type="line"/>
			<point x="708" y="261" type="line"/>
			<point x="587" y="261" type="line"/>
			<point x="548" y="186" type="line" smooth="yes"/>
			<point x="536" y="159"/>
			<point x="525" y="132"/>
			<point x="514" y="106" type="curve"/>
			<point x="510" y="106" type="line"/>
			<point x="495" y="133"/>
			<point x="483" y="158"/>
			<point x="466" y="186" type="curve" smooth="yes"/>
			<point x="394" y="306" type="line"/>
			<point x="270" y="306" type="line"/>
			<point x="429" y="44" type="line"/>
		</contour>
	</outline>
</glyph>
<glyph name="arrowboth" format="2">
	<unicode hex="2194"/>
	<advance width="618"/>
	<outline>
		<contour>
			<point x="621" y="254" type="line"/>
			<point x="442" y="472" type="line"/>
			<point x="380" y="424" type="line"/>
			<point x="488" y="298" type="line"/>
			<point x="130" y="298" type="line"/>
			<point x="238" y="424" type="line"/>
			<point x="176" y="472" type="line"/>
			<point x="-3" y="254" type="line"/>
			<point x="-3" y="250" type="line"/>
			<point x="176" y="32" type="line"/>
			<point x="238" y="80" type="line"/>
			<point x="130" y="206" type="line"/>
			<point x="488" y="206" type="line"/>
			<point x="380" y="80" type="line"/>
			<point x="442" y="32" type="line"/>
			<point x="621" y="250" type="line"/>
		</contour>
	</outline>
</glyph>
<glyph name="arrowdownleft" format="2">
	<unicode hex="2199"/>
	<advance width="618"/>
	<outline>
		<contour>
			<point x="115" y="54" type="line"/>
			<point x="497" y="60" type="line"/>
			<point x="492" y="145" type="line"/>
			<point x="256" y="134" type="line"/>
			<point x="537" y="414" type="line"/>
			<point x="472" y="480" type="line"/>
			<point x="191" y="199" type="line"/>
			<point x="202" y="435" type="line"/>
			<point x="118" y="440" type="line"/>
			<point x="112" y="57" type="line"/>
		</contour>
	</outline>
</glyph>
<glyph name="summation" format="2">
	<unicode hex="2211"/>
	<advance width="520"/>
	<outline>
		<contour>
			<point x="24" y="-120" type="line"/>
			<point x="513" y="-120" type="line"/>
			<point x="513" y="-22" type="line"/>
			<point x="168" y="-22" type="line"/>
			<point x="168" y="-18" type="line"/>
			<point x="366" y="258" type="line"/>
			<point x="176" y="535" type="line"/>
			<point x="176" y="539" type="line"/>
			<point x="487" y="539" type="line"/>
			<point x="487" y="636" type="line"/>
			<point x="35" y="636" type="line"/>
			<point x="35" y="566" type="line"/>
			<point x="246" y="258" type="line"/>
			<point x="24" y="-50" type="line"/>
		</contour>
	</outline>
</glyph>
<glyph name="radical" format="2">
	<unicode hex="221A"/>
	<advance width="573"/>
	<outline>
		<contour>
			<point x="279" y="-88" type="line"/>
			<point x="362" y="-88" type="line"/>
			<point x="578" y="820" type="line"/>
			<point x="499" y="820" type="line"/>
			<point x="332" y="103" type="line"/>
			<point x="326" y="79"/>
			<point x="322" y="54"/>
			<point x="318" y="30" type="curve"/>
			<point x="314" y="30" type="line"/>
			<point x="309" y="54"/>
			<point x="302" y="79"/>
			<point x="295" y="103" type="curve"/>
			<point x="188" y="423" type="line"/>
			<point x="34" y="358" type="line"/>
			<point x="56" y="301" type="line"/>
			<point x="129" y="332" type="line"/>
		</contour>
	</outline>
</glyph>
<glyph name="orthogonal" format="2">
	<unicode hex="221F"/>
	<advance width="513"/>
	<outline>
		<contour>
			<point x="34" y="99" type="line"/>
			<point x="479" y="99" type="line"/>
			<point x="479" y="182" type="line"/>
			<point x="121" y="182" type="line"/>
			<point x="121" y="561" type="line"/>
			<point x="34" y="561" type="line"/>
		</contour>
	</outline>
</glyph>
<glyph name="intersection" format="2">
	<unicode hex="2229"/>
	<advance width="513"/>
	<outline>
		<contour>
			<point x="40" y="99" type="line"/>
			<point x="128" y="99" type="line"/>
			<point x="128" y="339" type="line" smooth="yes"/>
			<point x="128" y="435"/>
			<point x="178" y="488"/>
			<point x="256" y="488" type="curve" smooth="yes"/>
			<point x="335" y="488"/>
			<point x="385" y="435"/>
			<point x="385" y="339" type="curve" smooth="yes"/>
			<point x="385" y="99" type="line"/>
			<point x="472" y="99" type="line"/>
			<point x="472" y="351" type="line" smooth="yes"/>
			<point x="472" y="486"/>
			<point x="381" y="575"/>
			<point x="256" y="575" type="curve" smooth="yes"/>
			<point x="132" y="575"/>
			<point x="40" y="486"/>
			<point x="40" y="351" type="curve" smooth="yes"/>
		</contour>
	</outline>
</glyph>
<glyph name="integral" format="2">
	<unicode hex="222B"/>
	<advance width="376"/>
	<outline>
		<contour>
			<point x="99" y="-144" type="curve" smooth="yes"/>
			<point x="235" y="-144"/>
			<point x="263" y="-42"/>
			<point x="263" y="94" type="curve" smooth="yes"/>
			<point x="263" y="251"/>
			<point x="224" y="420"/>
			<point x="224" y="570" type="curve" smooth="yes"/>
			<point x="224" y="668"/>
			<point x="235" y="716"/>
			<point x="288" y="716" type="curve" smooth="yes"/>
			<point x="302" y="716"/>
			<point x="314" y="715"/>
			<point x="323" y="712" type="curve"/>
			<point x="335" y="797" type="line"/>
			<point x="326" y="801"/>
			<point x="305" y="804"/>
			<point x="283" y="804" type="curve" smooth="yes"/>
			<point x="147" y="804"/>
			<point x="119" y="701"/>
			<point x="119" y="566" type="curve" smooth="yes"/>
			<point x="119" y="410"/>
			<point x="159" y="240"/>
			<point x="159" y="90" type="curve" smooth="yes"/>
			<point x="159" y="-9"/>
			<point x="148" y="-56"/>
			<point x="94" y="-56" type="curve" smooth="yes"/>
			<point x="80" y="-56"/>
			<point x="68" y="-55"/>
			<point x="59" y="-52" type="curve"/>
			<point x="47" y="-137" type="line"/>
			<point x="57" y="-140"/>
			<point x="77" y="-144"/>
		</contour>
	</outline>
</glyph>
<glyph name="integraltp" format="2">
	<unicode hex="2320"/>
	<advance width="376"/>
	<outline>
		<contour>
			<point x="139" y="-32" type="line"/>
			<point x="243" y="-32" type="line"/>
			<point x="243" y="733" type="line" smooth="yes"/>
			<point x="243" y="831"/>
			<point x="254" y="880"/>
			<point x="308" y="880" type="curve" smooth="yes"/>
			<point x="322" y="880"/>
			<point x="334" y="879"/>
			<point x="343" y="876" type="curve"/>
			<point x="355" y="961" type="line"/>
			<point x="345" y="964"/>
			<point x="324" y="968"/>
			<point x="303" y="968" type="curve" smooth="yes"/>
			<point x="166" y="968"/>
			<point x="139" y="866"/>
			<point x="139" y="730" type="curve" smooth="yes"/>
		</contour>
	</outline>
</glyph>
<glyph name="integralbt" format="2">
	<unicode hex="2321"/>
	<advance width="376"/>
	<outline>
		<contour>
			<point x="79" y="-304" type="curve" smooth="yes"/>
			<point x="215" y="-304"/>
			<point x="243" y="-202"/>
			<point x="243" y="-66" type="curve" smooth="yes"/>
			<point x="243" y="696" type="line"/>
			<point x="139" y="696" type="line"/>
			<point x="139" y="-70" type="line" smooth="yes"/>
			<point x="139" y="-169"/>
			<point x="128" y="-216"/>
			<point x="74" y="-216" type="curve" smooth="yes"/>
			<point x="60" y="-216"/>
			<point x="48" y="-215"/>
			<point x="38" y="-212" type="curve"/>
			<point x="26" y="-297" type="line"/>
			<point x="37" y="-300"/>
			<point x="57" y="-304"/>
		</contour>
	</outline>
</glyph>
<glyph name="delete" format="2">
	<unicode hex="232B"/>
	<advance width="1000"/>
	<outline>
		<contour>
			<point x="288" y="-7" type="line"/>
			<point x="925" y="-7" type="line"/>
			<point x="925" y="657" type="line"/>
			<point x="288" y="657" type="line"/>
			<point x="20" y="330" type="line"/>
			<point x="20" y="326" type="line"/>
		</contour>
		<contour>
			<point x="350" y="79" type="line"/>
			<point x="146" y="328" type="line"/>
			<point x="350" y="571" type="line"/>
			<point x="823" y="571" type="line"/>
			<point x="823" y="79" type="line"/>
		</contour>
		<contour>
			<point x="442" y="136" type="line"/>
			<point x="571" y="269" type="line"/>
			<point x="700" y="136" type="line"/>
			<point x="760" y="195" type="line"/>
			<point x="630" y="328" type="line"/>
			<point x="760" y="460" type="line"/>
			<point x="700" y="520" type="line"/>
			<point x="571" y="386" type="line"/>
			<point x="442" y="520" type="line"/>
			<point x="382" y="460" type="line"/>
			<point x="513" y="328" type="line"/>
			<point x="382" y="195" type="line"/>
		</contour>
	</outline>
</glyph>
<glyph name="bulletsquarewhite" format="2">
	<unicode hex="25AB"/>
	<advance width="325"/>
	<outline>
		<contour>
			<point x="18" y="120" type="line"/>
			<point x="306" y="120" type="line"/>
			<point x="306" y="404" type="line"/>
			<point x="18" y="404" type="line"/>
		</contour>
		<contour>
			<point x="83" y="178" type="line"/>
			<point x="83" y="346" type="line"/>
			<point x="242" y="346" type="line"/>
			<point x="242" y="178" type="line"/>
		</contour>
	</outline>
</glyph>
<glyph name="trianglesmallupblack" format="2">
	<unicode hex="25B4"/>
	<advance width="325"/>
	<outline>
		<contour>
			<point x="7" y="136" type="line"/>
			<point x="318" y="136" type="line"/>
			<point x="318" y="139" type="line"/>
			<point x="164" y="420" type="line"/>
			<point x="161" y="420" type="line"/>
			<point x="7" y="139" type="line"/>
		</contour>
	</outline>
</glyph>
<glyph name="trianglesmallleftblack" format="2">
	<unicode hex="25C2"/>
	<advance width="325"/>
	<outline>
		<contour>
			<point x="289" y="106" type="line"/>
			<point x="292" y="106" type="line"/>
			<point x="292" y="418" type="line"/>
			<point x="289" y="418" type="line"/>
			<point x="8" y="264" type="line"/>
			<point x="8" y="261" type="line"/>
		</contour>
	</outline>
</glyph>
<glyph name="trianglesmallleftwhite" format="2">
	<unicode hex="25C3"/>
	<advance width="325"/>
	<outline>
		<contour>
			<point x="310" y="80" type="line"/>
			<point x="314" y="80" type="line"/>
			<point x="314" y="445" type="line"/>
			<point x="310" y="445" type="line"/>
			<point x="-14" y="264" type="line"/>
			<point x="-14" y="261" type="line"/>
		</contour>
		<contour>
			<point x="257" y="178" type="line"/>
			<point x="96" y="262" type="line"/>
			<point x="257" y="347" type="line"/>
		</contour>
	</outline>
</glyph>
<glyph name="circledotted" format="2">
	<unicode hex="25CC"/>
	<advance width="581"/>
	<outline>
		<contour>
			<point x="106" y="96" type="curve" smooth="yes"/>
			<point x="130" y="96"/>
			<point x="146" y="111"/>
			<point x="146" y="136" type="curve" smooth="yes"/>
			<point x="146" y="162"/>
			<point x="129" y="177"/>
			<point x="106" y="177" type="curve" smooth="yes"/>
			<point x="87" y="177"/>
			<point x="69" y="162"/>
			<point x="69" y="136" type="curve" smooth="yes"/>
			<point x="69" y="111"/>
			<point x="87" y="96"/>
		</contour>
		<contour>
			<point x="78" y="205" type="curve" smooth="yes"/>
			<point x="103" y="205"/>
			<point x="119" y="220"/>
			<point x="119" y="246" type="curve" smooth="yes"/>
			<point x="119" y="271"/>
			<point x="102" y="285"/>
			<point x="78" y="285" type="curve" smooth="yes"/>
			<point x="59" y="285"/>
			<point x="41" y="271"/>
			<point x="41" y="246" type="curve" smooth="yes"/>
			<point x="41" y="220"/>
			<point x="59" y="205"/>
		</contour>
		<contour>
			<point x="106" y="315" type="curve" smooth="yes"/>
			<point x="130" y="315"/>
			<point x="146" y="331"/>
			<point x="146" y="356" type="curve" smooth="yes"/>
			<point x="146" y="382"/>
			<point x="129" y="396"/>
			<point x="106" y="396" type="curve" smooth="yes"/>
			<point x="87" y="396"/>
			<point x="69" y="382"/>
			<point x="69" y="356" type="curve" smooth="yes"/>
			<point x="69" y="331"/>
			<point x="87" y="315"/>
		</contour>
		<contour>
			<point x="185" y="14" type="curve" smooth="yes"/>
			<point x="208" y="14"/>
			<point x="224" y="29"/>
			<point x="224" y="56" type="curve" smooth="yes"/>
			<point x="224" y="81"/>
			<point x="206" y="94"/>
			<point x="185" y="94" type="curve" smooth="yes"/>
			<point x="164" y="94"/>
			<point x="146" y="81"/>
			<point x="146" y="56" type="curve" smooth="yes"/>
			<point x="146" y="29"/>
			<point x="164" y="14"/>
		</contour>
		<contour>
			<point x="185" y="397" type="curve" smooth="yes"/>
			<point x="208" y="397"/>
			<point x="224" y="412"/>
			<point x="224" y="436" type="curve" smooth="yes"/>
			<point x="224" y="463"/>
			<point x="206" y="477"/>
			<point x="185" y="477" type="curve" smooth="yes"/>
			<point x="164" y="477"/>
			<point x="146" y="463"/>
			<point x="146" y="436" type="curve" smooth="yes"/>
			<point x="146" y="412"/>
			<point x="164" y="397"/>
		</contour>
		<contour>
			<point x="290" y="-13" type="curve" smooth="yes"/>
			<point x="314" y="-13"/>
			<point x="330" y="2"/>
			<point x="330" y="28" type="curve" smooth="yes"/>
			<point x="330" y="53"/>
			<point x="313" y="67"/>
			<point x="290" y="67" type="curve" smooth="yes"/>
			<point x="270" y="67"/>
			<point x="253" y="53"/>
			<point x="253" y="28" type="curve" smooth="yes"/>
			<point x="253" y="2"/>
			<point x="270" y="-13"/>
		</contour>
		<contour>
			<point x="290" y="423" type="curve" smooth="yes"/>
			<point x="314" y="423"/>
			<point x="330" y="439"/>
			<point x="330" y="464" type="curve" smooth="yes"/>
			<point x="330" y="489"/>
			<point x="313" y="503"/>
			<point x="290" y="503" type="curve" smooth="yes"/>
			<point x="270" y="503"/>
			<point x="253" y="489"/>
			<point x="253" y="464" type="curve" smooth="yes"/>
			<point x="253" y="439"/>
			<point x="270" y="423"/>
		</contour>
		<contour>
			<point x="396" y="14" type="curve" smooth="yes"/>
			<point x="420" y="14"/>
			<point x="435" y="29"/>
			<point x="435" y="56" type="curve" smooth="yes"/>
			<point x="435" y="81"/>
			<point x="417" y="94"/>
			<point x="396" y="94" type="curve" smooth="yes"/>
			<point x="376" y="94"/>
			<point x="358" y="81"/>
			<point x="358" y="56" type="curve" smooth="yes"/>
			<point x="358" y="29"/>
			<point x="376" y="14"/>
		</contour>
		<contour>
			<point x="396" y="396" type="curve" smooth="yes"/>
			<point x="420" y="396"/>
			<point x="435" y="411"/>
			<point x="435" y="436" type="curve" smooth="yes"/>
			<point x="435" y="462"/>
			<point x="417" y="476"/>
			<point x="396" y="476" type="curve" smooth="yes"/>
			<point x="376" y="476"/>
			<point x="358" y="462"/>
			<point x="358" y="436" type="curve" smooth="yes"/>
			<point x="358" y="411"/>
			<point x="376" y="396"/>
		</contour>
		<contour>
			<point x="475" y="96" type="curve" smooth="yes"/>
			<point x="498" y="96"/>
			<point x="514" y="111"/>
			<point x="514" y="136" type="curve" smooth="yes"/>
			<point x="514" y="162"/>
			<point x="496" y="177"/>
			<point x="475" y="177" type="curve" smooth="yes"/>
			<point x="454" y="177"/>
			<point x="436" y="162"/>
			<point x="436" y="136" type="curve" smooth="yes"/>
			<point x="436" y="111"/>
			<point x="454" y="96"/>
		</contour>
		<contour>
			<point x="502" y="205" type="curve" smooth="yes"/>
			<point x="525" y="205"/>
			<point x="541" y="220"/>
			<point x="541" y="246" type="curve" smooth="yes"/>
			<point x="541" y="271"/>
			<point x="522" y="285"/>
			<point x="502" y="285" type="curve" smooth="yes"/>
			<point x="480" y="285"/>
			<point x="463" y="271"/>
			<point x="463" y="246" type="curve" smooth="yes"/>
			<point x="463" y="220"/>
			<point x="480" y="205"/>
		</contour>
		<contour>
			<point x="475" y="315" type="curve" smooth="yes"/>
			<point x="498" y="315"/>
			<point x="514" y="330"/>
			<point x="514" y="355" type="curve" smooth="yes"/>
			<point x="514" y="380"/>
			<point x="496" y="394"/>
			<point x="475" y="394" type="curve" smooth="yes"/>
			<point x="454" y="394"/>
			<point x="436" y="380"/>
			<point x="436" y="355" type="curve" smooth="yes"/>
			<point x="436" y="330"/>
			<point x="454" y="315"/>
		</contour>
	</outline>
	<anchor name="aboveLC" x="291" y="514"/>
	<anchor name="aboverightLC" x="472" y="514"/>
	<anchor name="baseLC" x="291" y="0"/>
	<anchor name="belowLC" x="291" y="-22"/>
	<anchor name="center" x="291" y="247"/>
	<anchor name="hornLC" x="408" y="493"/>
	<anchor name="ogonekLC" x="291" y="0"/>
</glyph>
<glyph name="invbullet" format="2">
	<unicode hex="25D8"/>
	<advance width="325"/>
	<outline>
		<contour>
			<point x="23" y="125" type="line"/>
			<point x="302" y="125" type="line"/>
			<point x="302" y="399" type="line"/>
			<point x="23" y="399" type="line"/>
		</contour>
		<contour>
			<point x="162" y="137" type="curve" smooth="yes"/>
			<point x="90" y="137"/>
			<point x="35" y="190"/>
			<point x="35" y="262" type="curve" smooth="yes"/>
			<point x="35" y="334"/>
			<point x="90" y="387"/>
			<point x="162" y="387" type="curve" smooth="yes"/>
			<point x="235" y="387"/>
			<point x="290" y="334"/>
			<point x="290" y="262" type="curve" smooth="yes"/>
			<point x="290" y="190"/>
			<point x="235" y="137"/>
		</contour>
	</outline>
</glyph>
<glyph name="bulletwhite" format="2">
	<unicode hex="25E6"/>
	<advance width="325"/>
	<outline>
		<contour>
			<point x="162" y="107" type="curve" smooth="yes"/>
			<point x="252" y="107"/>
			<point x="316" y="174"/>
			<point x="316" y="262" type="curve" smooth="yes"/>
			<point x="316" y="350"/>
			<point x="252" y="417"/>
			<point x="162" y="417" type="curve" smooth="yes"/>
			<point x="74" y="417"/>
			<point x="9" y="350"/>
			<point x="9" y="262" type="curve" smooth="yes"/>
			<point x="9" y="174"/>
			<point x="74" y="107"/>
		</contour>
		<contour>
			<point x="162" y="168" type="curve" smooth="yes"/>
			<point x="113" y="168"/>
			<point x="78" y="208"/>
			<point x="78" y="262" type="curve" smooth="yes"/>
			<point x="78" y="316"/>
			<point x="113" y="356"/>
			<point x="162" y="356" type="curve" smooth="yes"/>
			<point x="212" y="356"/>
			<point x="247" y="316"/>
			<point x="247" y="262" type="curve" smooth="yes"/>
			<point x="247" y="208"/>
			<point x="212" y="168"/>
		</contour>
	</outline>
</glyph>
<glyph name="eighthnote" format="2">
	<unicode hex="266A"/>
	<advance width="524"/>
	<outline>
		<contour>
			<point x="134" y="-26" type="curve" smooth="yes"/>
			<point x="240" y="-26"/>
			<point x="319" y="37"/>
			<point x="319" y="157" type="curve" smooth="yes"/>
			<point x="319" y="541" type="line"/>
			<point x="394" y="517"/>
			<point x="436" y="456"/>
			<point x="436" y="395" type="curve" smooth="yes"/>
			<point x="436" y="359"/>
			<point x="433" y="334"/>
			<point x="423" y="303" type="curve"/>
			<point x="465" y="286" type="line"/>
			<point x="485" y="319"/>
			<point x="506" y="372"/>
			<point x="506" y="426" type="curve" smooth="yes"/>
			<point x="506" y="504"/>
			<point x="478" y="561"/>
			<point x="386" y="625" type="curve" smooth="yes"/>
			<point x="336" y="660"/>
			<point x="326" y="669"/>
			<point x="315" y="694" type="curve"/>
			<point x="250" y="694" type="line"/>
			<point x="250" y="168" type="line"/>
			<point x="242" y="174"/>
			<point x="217" y="180"/>
			<point x="191" y="180" type="curve" smooth="yes"/>
			<point x="97" y="180"/>
			<point x="27" y="122"/>
			<point x="27" y="55" type="curve" smooth="yes"/>
			<point x="27" y="0"/>
			<point x="79" y="-26"/>
		</contour>
	</outline>
</glyph>
<glyph name="xballot" format="2">
	<unicode hex="2717"/>
	<advance width="546"/>
	<outline>
		<contour>
			<point x="118" y="-32" type="line"/>
			<point x="204" y="219"/>
			<point x="358" y="471"/>
			<point x="537" y="628" type="curve"/>
			<point x="474" y="686" type="line"/>
			<point x="294" y="524"/>
			<point x="119" y="258"/>
			<point x="34" y="0" type="curve"/>
		</contour>
		<contour>
			<point x="392" y="-8" type="curve"/>
			<point x="486" y="24" type="line"/>
			<point x="430" y="277"/>
			<point x="320" y="506"/>
			<point x="198" y="678" type="curve"/>
			<point x="112" y="628" type="line"/>
			<point x="235" y="452"/>
			<point x="332" y="238"/>
		</contour>
	</outline>
</glyph>
<glyph name="xballotheavy" format="2">
	<unicode hex="2718"/>
	<advance width="588"/>
	<outline>
		<contour>
			<point x="170" y="-46" type="line"/>
			<point x="256" y="201"/>
			<point x="411" y="445"/>
			<point x="588" y="600" type="curve"/>
			<point x="492" y="686" type="line"/>
			<point x="312" y="523"/>
			<point x="129" y="265"/>
			<point x="44" y="10" type="curve"/>
		</contour>
		<contour>
			<point x="402" y="-20" type="curve"/>
			<point x="544" y="24" type="line"/>
			<point x="488" y="279"/>
			<point x="370" y="508"/>
			<point x="242" y="678" type="curve"/>
			<point x="112" y="612" type="line"/>
			<point x="243" y="435"/>
			<point x="342" y="231"/>
		</contour>
	</outline>
</glyph>
<glyph name="bracketrightwhite" format="2">
	<unicode hex="27E7"/>
	<advance width="408"/>
	<outline>
		<contour>
			<point x="38" y="-152" type="line"/>
			<point x="318" y="-152" type="line"/>
			<point x="318" y="708" type="line"/>
			<point x="38" y="708" type="line"/>
			<point x="38" y="645" type="line"/>
			<point x="140" y="645" type="line"/>
			<point x="140" y="-89" type="line"/>
			<point x="38" y="-89" type="line"/>
		</contour>
		<contour>
			<point x="202" y="-89" type="line"/>
			<point x="202" y="645" type="line"/>
			<point x="249" y="645" type="line"/>
			<point x="249" y="-89" type="line"/>
		</contour>
	</outline>
</glyph>
<glyph name="bracketangleleft" format="2">
	<unicode hex="27E8"/>
	<advance width="324"/>
	<outline>
		<contour>
			<point x="215" y="-178" type="line"/>
			<point x="282" y="-148" type="line"/>
			<point x="127" y="278" type="line"/>
			<point x="282" y="704" type="line"/>
			<point x="215" y="734" type="line"/>
			<point x="47" y="316" type="line"/>
			<point x="47" y="240" type="line"/>
		</contour>
	</outline>
</glyph>
<glyph name="Lmiddletilde" format="2">
	<unicode hex="2C62"/>
	<advance width="572"/>
	<outline>
		<contour>
			<point x="371" y="277" type="curve" smooth="yes"/>
			<point x="437" y="277"/>
			<point x="470" y="327"/>
			<point x="474" y="408" type="curve"/>
			<point x="400" y="422" type="line"/>
			<point x="397" y="382"/>
			<point x="384" y="358"/>
			<point x="360" y="358" type="curve" smooth="yes"/>
			<point x="284" y="358"/>
			<point x="217" y="432"/>
			<point x="108" y="432" type="curve" smooth="yes"/>
			<point x="41" y="432"/>
			<point x="8" y="382"/>
			<point x="4" y="300" type="curve"/>
			<point x="78" y="286" type="line"/>
			<point x="82" y="327"/>
			<point x="94" y="350"/>
			<point x="119" y="350" type="curve" smooth="yes"/>
			<point x="195" y="350"/>
			<point x="263" y="277"/>
		</contour>
		<component base="L" xOffset="70"/>
	</outline>
	<anchor name="aboveUC" x="214" y="672"/>
	<anchor name="belowLC" x="344" y="-22"/>
</glyph>
<glyph name="twoemdash" format="2">
	<unicode hex="2E3A"/>
	<advance width="1500"/>
	<outline>
		<contour>
			<point x="42" y="214" type="line"/>
			<point x="1458" y="214" type="line"/>
			<point x="1458" y="290" type="line"/>
			<point x="42" y="290" type="line"/>
		</contour>
	</outline>
</glyph>
<glyph name="OO" format="2">
	<unicode hex="A74E"/>
	<advance width="1052"/>
	<outline>
		<contour>
			<point x="309" y="-12" type="curve" smooth="yes"/>
			<point x="404" y="-12"/>
			<point x="494" y="37"/>
			<point x="540" y="180" type="curve"/>
			<point x="512" y="180" type="line"/>
			<point x="558" y="37"/>
			<point x="648" y="-12"/>
			<point x="742" y="-12" type="curve" smooth="yes"/>
			<point x="894" y="-12"/>
			<point x="1003" y="118"/>
			<point x="1003" y="330" type="curve" smooth="yes"/>
			<point x="1003" y="541"/>
			<point x="894" y="666"/>
			<point x="742" y="666" type="curve" smooth="yes"/>
			<point x="648" y="666"/>
			<point x="558" y="617"/>
			<point x="512" y="474" type="curve"/>
			<point x="540" y="474" type="line"/>
			<point x="494" y="617"/>
			<point x="404" y="666"/>
			<point x="309" y="666" type="curve" smooth="yes"/>
			<point x="157" y="666"/>
			<point x="49" y="541"/>
			<point x="49" y="330" type="curve" smooth="yes"/>
			<point x="49" y="118"/>
			<point x="157" y="-12"/>
		</contour>
		<contour>
			<point x="322" y="89" type="curve" smooth="yes"/>
			<point x="226" y="89"/>
			<point x="168" y="183"/>
			<point x="168" y="330" type="curve" smooth="yes"/>
			<point x="168" y="476"/>
			<point x="226" y="565"/>
			<point x="322" y="565" type="curve" smooth="yes"/>
			<point x="413" y="565"/>
			<point x="471" y="476"/>
			<point x="471" y="330" type="curve" smooth="yes"/>
			<point x="471" y="183"/>
			<point x="413" y="89"/>
		</contour>
		<contour>
			<point x="730" y="89" type="curve" smooth="yes"/>
			<point x="639" y="89"/>
			<point x="581" y="183"/>
			<point x="581" y="330" type="curve" smooth="yes"/>
			<point x="581" y="476"/>
			<point x="639" y="565"/>
			<point x="730" y="565" type="curve" smooth="yes"/>
			<point x="826" y="565"/>
			<point x="884" y="476"/>
			<point x="884" y="330" type="curve" smooth="yes"/>
			<point x="884" y="183"/>
			<point x="826" y="89"/>
		</contour>
	</outline>
	<anchor name="aboveUC" x="526" y="676"/>
	<anchor name="belowLC" x="526" y="-22"/>
</glyph>
<glyph name="Rrotunda" format="2">
	<unicode hex="A75A"/>
	<advance width="483"/>
	<outline>
		<contour>
			<point x="338" y="-12" type="curve" smooth="yes"/>
			<point x="387" y="-12"/>
			<point x="428" y="-3"/>
			<point x="452" y="10" type="curve"/>
			<point x="431" y="94" type="line"/>
			<point x="409" y="87"/>
			<point x="380" y="82"/>
			<point x="345" y="82" type="curve" smooth="yes"/>
			<point x="262" y="82"/>
			<point x="206" y="107"/>
			<point x="173" y="159" type="curve"/>
			<point x="358" y="264"/>
			<point x="432" y="368"/>
			<point x="432" y="498" type="curve" smooth="yes"/>
			<point x="432" y="608"/>
			<point x="354" y="666"/>
			<point x="244" y="666" type="curve" smooth="yes"/>
			<point x="163" y="666"/>
			<point x="99" y="634"/>
			<point x="38" y="571" type="curve"/>
			<point x="96" y="508" type="line"/>
			<point x="133" y="545"/>
			<point x="174" y="565"/>
			<point x="224" y="565" type="curve" smooth="yes"/>
			<point x="282" y="565"/>
			<point x="317" y="535"/>
			<point x="317" y="475" type="curve" smooth="yes"/>
			<point x="317" y="390"/>
			<point x="255" y="296"/>
			<point x="48" y="190" type="curve"/>
			<point x="85" y="51"/>
			<point x="188" y="-12"/>
		</contour>
	</outline>
	<anchor name="aboveUC" x="256" y="676"/>
	<anchor name="belowLC" x="254" y="-22"/>
</glyph>
<glyph name="That" format="2">
	<unicode hex="A764"/>
	<advance width="628"/>
	<outline>
		<contour>
			<point x="103" y="0" type="line"/>
			<point x="219" y="0" type="line"/>
			<point x="219" y="130" type="line"/>
			<point x="323" y="130" type="line" smooth="yes"/>
			<point x="464" y="130"/>
			<point x="572" y="198"/>
			<point x="572" y="348" type="curve" smooth="yes"/>
			<point x="572" y="504"/>
			<point x="466" y="556"/>
			<point x="323" y="556" type="curve" smooth="yes"/>
			<point x="219" y="556" type="line"/>
			<point x="219" y="654" type="line"/>
			<point x="103" y="654" type="line"/>
		</contour>
		<contour>
			<point x="219" y="223" type="line"/>
			<point x="219" y="463" type="line"/>
			<point x="314" y="463" type="line" smooth="yes"/>
			<point x="409" y="463"/>
			<point x="458" y="434"/>
			<point x="458" y="348" type="curve" smooth="yes"/>
			<point x="458" y="264"/>
			<point x="411" y="223"/>
			<point x="314" y="223" type="curve" smooth="yes"/>
		</contour>
		<contour>
			<point x="22" y="302" type="line"/>
			<point x="356" y="302" type="line"/>
			<point x="356" y="380" type="line"/>
			<point x="105" y="380" type="line"/>
			<point x="22" y="375" type="line"/>
		</contour>
	</outline>
</glyph>
<glyph name="that" format="2">
	<unicode hex="A765"/>
	<advance width="571"/>
	<outline>
		<contour>
			<point x="81" y="-194" type="line"/>
			<point x="196" y="-194" type="line"/>
			<point x="196" y="-40" type="line"/>
			<point x="193" y="42" type="line"/>
			<point x="233" y="8"/>
			<point x="276" y="-12"/>
			<point x="319" y="-12" type="curve" smooth="yes"/>
			<point x="428" y="-12"/>
			<point x="529" y="80"/>
			<point x="529" y="233" type="curve" smooth="yes"/>
			<point x="529" y="369"/>
			<point x="458" y="460"/>
			<point x="335" y="460" type="curve" smooth="yes"/>
			<point x="285" y="460"/>
			<point x="234" y="435"/>
			<point x="193" y="399" type="curve"/>
			<point x="196" y="481" type="line"/>
			<point x="196" y="706" type="line"/>
			<point x="81" y="706" type="line"/>
		</contour>
		<contour>
			<point x="4" y="544" type="line"/>
			<point x="372" y="544" type="line"/>
			<point x="372" y="623" type="line"/>
			<point x="87" y="623" type="line"/>
			<point x="4" y="618" type="line"/>
		</contour>
		<contour>
			<point x="410" y="231" type="curve" smooth="yes"/>
			<point x="410" y="138"/>
			<point x="360" y="83"/>
			<point x="295" y="83" type="curve" smooth="yes"/>
			<point x="266" y="83"/>
			<point x="232" y="94"/>
			<point x="196" y="124" type="curve"/>
			<point x="196" y="310" type="line"/>
			<point x="234" y="347"/>
			<point x="268" y="365"/>
			<point x="304" y="365" type="curve" smooth="yes"/>
			<point x="378" y="365"/>
			<point x="410" y="312"/>
		</contour>
	</outline>
</glyph>
<glyph name="dinsular" format="2">
	<unicode hex="A77A"/>
	<advance width="543"/>
	<outline>
		<contour>
			<point x="272" y="-12" type="curve" smooth="yes"/>
			<point x="414" y="-12"/>
			<point x="496" y="94"/>
			<point x="496" y="268" type="curve" smooth="yes"/>
			<point x="496" y="469"/>
			<point x="340" y="610"/>
			<point x="126" y="718" type="curve"/>
			<point x="66" y="638" type="line"/>
			<point x="263" y="543"/>
			<point x="389" y="405"/>
			<point x="389" y="253" type="curve" smooth="yes"/>
			<point x="389" y="138"/>
			<point x="340" y="82"/>
			<point x="272" y="82" type="curve" smooth="yes"/>
			<point x="209" y="82"/>
			<point x="154" y="137"/>
			<point x="154" y="234" type="curve" smooth="yes"/>
			<point x="154" y="330"/>
			<point x="214" y="406"/>
			<point x="349" y="410" type="curve"/>
			<point x="296" y="482" type="line"/>
			<point x="147" y="477"/>
			<point x="48" y="373"/>
			<point x="48" y="232" type="curve" smooth="yes"/>
			<point x="48" y="81"/>
			<point x="149" y="-12"/>
		</contour>
	</outline>
	<anchor name="aboveUC" x="292" y="726"/>
	<anchor name="belowLC" x="266" y="-22"/>
</glyph>
<glyph name="Ginsular" format="2">
	<unicode hex="A77D"/>
	<advance width="612"/>
	<outline>
		<contour>
			<point x="308" y="-174" type="curve" smooth="yes"/>
			<point x="488" y="-174"/>
			<point x="592" y="-88"/>
			<point x="592" y="29" type="curve" smooth="yes"/>
			<point x="592" y="144"/>
			<point x="529" y="181"/>
			<point x="378" y="235" type="curve" smooth="yes"/>
			<point x="248" y="282"/>
			<point x="195" y="326"/>
			<point x="195" y="405" type="curve" smooth="yes"/>
			<point x="195" y="488"/>
			<point x="262" y="556"/>
			<point x="395" y="556" type="curve" smooth="yes"/>
			<point x="568" y="556" type="line"/>
			<point x="568" y="654" type="line"/>
			<point x="32" y="654" type="line"/>
			<point x="32" y="560" type="line"/>
			<point x="191" y="560" type="line"/>
			<point x="191" y="556" type="line"/>
			<point x="126" y="527"/>
			<point x="77" y="466"/>
			<point x="77" y="385" type="curve" smooth="yes"/>
			<point x="77" y="289"/>
			<point x="133" y="230"/>
			<point x="201" y="193" type="curve"/>
			<point x="201" y="189" type="line"/>
			<point x="106" y="147"/>
			<point x="48" y="85"/>
			<point x="48" y="4" type="curve" smooth="yes"/>
			<point x="48" y="-122"/>
			<point x="162" y="-174"/>
		</contour>
		<contour>
			<point x="318" y="-80" type="curve" smooth="yes"/>
			<point x="217" y="-80"/>
			<point x="152" y="-46"/>
			<point x="152" y="19" type="curve" smooth="yes"/>
			<point x="152" y="74"/>
			<point x="187" y="115"/>
			<point x="268" y="156" type="curve"/>
			<point x="377" y="111"/>
			<point x="474" y="100"/>
			<point x="474" y="21" type="curve" smooth="yes"/>
			<point x="474" y="-33"/>
			<point x="421" y="-80"/>
		</contour>
	</outline>
	<anchor name="aboveUC" x="304" y="676"/>
	<anchor name="belowLC" x="306" y="-166"/>
</glyph>
<glyph name="lturned" format="2">
	<unicode hex="A781"/>
	<advance width="271"/>
	<outline>
		<contour>
			<point x="81" y="-194" type="line"/>
			<point x="196" y="-194" type="line"/>
			<point x="196" y="363" type="line" smooth="yes"/>
			<point x="196" y="449"/>
			<point x="166" y="502"/>
			<point x="85" y="502" type="curve" smooth="yes"/>
			<point x="58" y="502"/>
			<point x="38" y="497"/>
			<point x="24" y="491" type="curve"/>
			<point x="38" y="406" type="line"/>
			<point x="46" y="408"/>
			<point x="50" y="408"/>
			<point x="56" y="408" type="curve" smooth="yes"/>
			<point x="68" y="408"/>
			<point x="81" y="398"/>
			<point x="81" y="369" type="curve" smooth="yes"/>
		</contour>
	</outline>
	<anchor name="aboveLC" x="118" y="514"/>
	<anchor name="belowLC" x="138" y="-198"/>
</glyph>
<glyph name="rinsular" format="2">
	<unicode hex="A783"/>
	<advance width="535"/>
	<outline>
		<contour>
			<point x="73" y="-194" type="line"/>
			<point x="188" y="-194" type="line"/>
			<point x="188" y="323" type="line"/>
			<point x="233" y="385"/>
			<point x="269" y="409"/>
			<point x="313" y="409" type="curve" smooth="yes"/>
			<point x="355" y="409"/>
			<point x="384" y="380"/>
			<point x="384" y="325" type="curve" smooth="yes"/>
			<point x="384" y="247"/>
			<point x="354" y="179"/>
			<point x="259" y="110" type="curve"/>
			<point x="286" y="17"/>
			<point x="362" y="-12"/>
			<point x="444" y="-12" type="curve" smooth="yes"/>
			<point x="474" y="-12"/>
			<point x="496" y="-4"/>
			<point x="512" y="3" type="curve"/>
			<point x="492" y="89" type="line"/>
			<point x="481" y="85"/>
			<point x="470" y="82"/>
			<point x="455" y="82" type="curve" smooth="yes"/>
			<point x="424" y="82"/>
			<point x="387" y="93"/>
			<point x="374" y="118" type="curve"/>
			<point x="461" y="184"/>
			<point x="503" y="257"/>
			<point x="503" y="349" type="curve" smooth="yes"/>
			<point x="503" y="450"/>
			<point x="438" y="503"/>
			<point x="340" y="503" type="curve" smooth="yes"/>
			<point x="274" y="503"/>
			<point x="224" y="468"/>
			<point x="180" y="418" type="curve"/>
			<point x="176" y="418" type="line"/>
			<point x="168" y="491" type="line"/>
			<point x="73" y="491" type="line"/>
		</contour>
	</outline>
	<anchor name="aboveLC" x="306" y="514"/>
	<anchor name="belowLC" x="134" y="-198"/>
</glyph>
<glyph name="Sinsular" format="2">
	<unicode hex="A784"/>
	<advance width="582"/>
	<outline>
		<contour>
			<point x="83" y="-162" type="line"/>
			<point x="199" y="-162" type="line"/>
			<point x="199" y="478" type="line"/>
			<point x="234" y="529"/>
			<point x="288" y="565"/>
			<point x="330" y="565" type="curve" smooth="yes"/>
			<point x="393" y="565"/>
			<point x="430" y="527"/>
			<point x="430" y="413" type="curve" smooth="yes"/>
			<point x="430" y="353" type="line"/>
			<point x="546" y="367" type="line"/>
			<point x="546" y="427" type="line" smooth="yes"/>
			<point x="546" y="597"/>
			<point x="476" y="666"/>
			<point x="365" y="666" type="curve" smooth="yes"/>
			<point x="300" y="666"/>
			<point x="242" y="632"/>
			<point x="196" y="580" type="curve"/>
			<point x="196" y="654" type="line"/>
			<point x="83" y="654" type="line"/>
		</contour>
	</outline>
	<anchor name="aboveUC" x="342" y="676"/>
	<anchor name="belowLC" x="144" y="-166"/>
</glyph>
<glyph name="Tinsular" format="2">
	<unicode hex="A786"/>
	<advance width="546"/>
	<outline>
		<contour>
			<point x="316" y="-12" type="curve" smooth="yes"/>
			<point x="398" y="-12"/>
			<point x="462" y="18"/>
			<point x="516" y="78" type="curve"/>
			<point x="457" y="146" type="line"/>
			<point x="422" y="110"/>
			<point x="380" y="89"/>
			<point x="326" y="89" type="curve" smooth="yes"/>
			<point x="230" y="89"/>
			<point x="168" y="158"/>
			<point x="168" y="275" type="curve" smooth="yes"/>
			<point x="168" y="408"/>
			<point x="268" y="556"/>
			<point x="411" y="556" type="curve" smooth="yes"/>
			<point x="520" y="556" type="line"/>
			<point x="520" y="654" type="line"/>
			<point x="26" y="654" type="line"/>
			<point x="26" y="560" type="line"/>
			<point x="221" y="560" type="line"/>
			<point x="221" y="556" type="line"/>
			<point x="139" y="509"/>
			<point x="50" y="405"/>
			<point x="50" y="261" type="curve" smooth="yes"/>
			<point x="50" y="92"/>
			<point x="161" y="-12"/>
		</contour>
	</outline>
	<anchor name="aboveUC" x="292" y="676"/>
	<anchor name="belowLC" x="304" y="-22"/>
</glyph>
<glyph name="tinsular" format="2">
	<unicode hex="A787"/>
	<advance width="442"/>
	<outline>
		<contour>
			<point x="271" y="-12" type="curve" smooth="yes"/>
			<point x="331" y="-12"/>
			<point x="381" y="13"/>
			<point x="418" y="47" type="curve"/>
			<point x="372" y="117" type="line"/>
			<point x="346" y="96"/>
			<point x="321" y="82"/>
			<point x="286" y="82" type="curve" smooth="yes"/>
			<point x="223" y="82"/>
			<point x="175" y="132"/>
			<point x="175" y="208" type="curve" smooth="yes"/>
			<point x="175" y="307"/>
			<point x="238" y="400"/>
			<point x="352" y="400" type="curve" smooth="yes"/>
			<point x="412" y="400" type="line"/>
			<point x="412" y="491" type="line"/>
			<point x="92" y="491" type="line"/>
			<point x="20" y="485" type="line"/>
			<point x="20" y="400" type="line"/>
			<point x="167" y="400" type="line"/>
			<point x="167" y="396" type="line"/>
			<point x="107" y="356"/>
			<point x="57" y="282"/>
			<point x="57" y="188" type="curve" smooth="yes"/>
			<point x="57" y="63"/>
			<point x="151" y="-12"/>
		</contour>
	</outline>
	<anchor name="aboveLC" x="242" y="514"/>
	<anchor name="belowLC" x="254" y="-22"/>
</glyph>
<glyph name="Lbelt" format="2">
	<unicode hex="A7AD"/>
	<advance width="570"/>
	<outline>
		<contour>
			<point x="140" y="266" type="curve" smooth="yes"/>
			<point x="428" y="266" type="line"/>
			<point x="428" y="354" type="line"/>
			<point x="128" y="354" type="line" smooth="yes"/>
			<point x="90" y="354"/>
			<point x="72" y="368"/>
			<point x="72" y="388" type="curve" smooth="yes"/>
			<point x="72" y="404"/>
			<point x="82" y="416"/>
			<point x="103" y="416" type="curve" smooth="yes"/>
			<point x="132" y="416"/>
			<point x="151" y="392"/>
			<point x="151" y="358" type="curve"/>
			<point x="202" y="344" type="line"/>
			<point x="202" y="410"/>
			<point x="164" y="476"/>
			<point x="92" y="476" type="curve" smooth="yes"/>
			<point x="38" y="476"/>
			<point x="-2" y="438"/>
			<point x="-2" y="382" type="curve" smooth="yes"/>
			<point x="-2" y="317"/>
			<point x="41" y="266"/>
		</contour>
		<component base="L" xOffset="68"/>
	</outline>
	<anchor name="aboveUC" x="212" y="676"/>
	<anchor name="belowLC" x="354" y="-22"/>
</glyph>
<glyph name="Q.sups" format="2">
	<unicode hex="A7F4"/>
	<advance width="452"/>
	<outline>
		<contour>
			<point x="224" y="377" type="curve" smooth="yes"/>
			<point x="339" y="377"/>
			<point x="420" y="463"/>
			<point x="420" y="603" type="curve" smooth="yes"/>
			<point x="420" y="742"/>
			<point x="339" y="825"/>
			<point x="224" y="825" type="curve" smooth="yes"/>
			<point x="109" y="825"/>
			<point x="29" y="743"/>
			<point x="29" y="603" type="curve" smooth="yes"/>
			<point x="29" y="463"/>
			<point x="109" y="377"/>
		</contour>
		<contour>
			<point x="224" y="446" type="curve" smooth="yes"/>
			<point x="157" y="446"/>
			<point x="115" y="507"/>
			<point x="115" y="603" type="curve" smooth="yes"/>
			<point x="115" y="696"/>
			<point x="157" y="753"/>
			<point x="224" y="753" type="curve" smooth="yes"/>
			<point x="291" y="753"/>
			<point x="334" y="696"/>
			<point x="334" y="603" type="curve" smooth="yes"/>
			<point x="334" y="507"/>
			<point x="291" y="446"/>
		</contour>
		<contour>
			<point x="365" y="271" type="curve" smooth="yes"/>
			<point x="397" y="271"/>
			<point x="423" y="277"/>
			<point x="438" y="284" type="curve"/>
			<point x="423" y="345" type="line"/>
			<point x="410" y="341"/>
			<point x="395" y="338"/>
			<point x="375" y="338" type="curve" smooth="yes"/>
			<point x="329" y="338"/>
			<point x="285" y="353"/>
			<point x="268" y="395" type="curve"/>
			<point x="183" y="387" type="line"/>
			<point x="210" y="319"/>
			<point x="273" y="271"/>
		</contour>
	</outline>
</glyph>
<glyph name="dzretroflex" format="2">
	<unicode hex="AB66"/>
	<advance width="872"/>
	<outline>
		<contour>
			<point x="235" y="-12" type="curve" smooth="yes"/>
			<point x="284" y="-12"/>
			<point x="329" y="18"/>
			<point x="364" y="53" type="curve"/>
			<point x="368" y="53" type="line"/>
			<point x="376" y="0" type="line"/>
			<point x="471" y="0" type="line"/>
			<point x="471" y="706" type="line"/>
			<point x="356" y="706" type="line"/>
			<point x="356" y="528" type="line"/>
			<point x="360" y="449" type="line"/>
			<point x="323" y="481"/>
			<point x="292" y="503"/>
			<point x="241" y="503" type="curve" smooth="yes"/>
			<point x="138" y="503"/>
			<point x="43" y="405"/>
			<point x="43" y="245" type="curve" smooth="yes"/>
			<point x="43" y="83"/>
			<point x="118" y="-12"/>
		</contour>
		<contour>
			<point x="263" y="83" type="curve" smooth="yes"/>
			<point x="199" y="83"/>
			<point x="162" y="140"/>
			<point x="162" y="246" type="curve" smooth="yes"/>
			<point x="162" y="349"/>
			<point x="208" y="408"/>
			<point x="266" y="408" type="curve" smooth="yes"/>
			<point x="296" y="408"/>
			<point x="324" y="396"/>
			<point x="356" y="367" type="curve"/>
			<point x="356" y="138" type="line"/>
			<point x="325" y="101"/>
			<point x="298" y="83"/>
		</contour>
		<contour>
			<point x="870" y="-206" type="curve" smooth="yes"/>
			<point x="899" y="-206"/>
			<point x="922" y="-200"/>
			<point x="938" y="-193" type="curve"/>
			<point x="916" y="-107" type="line"/>
			<point x="906" y="-111"/>
			<point x="896" y="-115"/>
			<point x="884" y="-115" type="curve" smooth="yes"/>
			<point x="849" y="-115"/>
			<point x="838" y="-88"/>
			<point x="838" y="-36" type="curve" smooth="yes"/>
			<point x="838" y="92" type="line"/>
			<point x="648" y="92" type="line"/>
			<point x="830" y="430" type="line"/>
			<point x="830" y="491" type="line"/>
			<point x="460" y="491" type="line"/>
			<point x="460" y="400" type="line"/>
			<point x="700" y="400" type="line"/>
			<point x="518" y="62" type="line"/>
			<point x="518" y="0" type="line"/>
			<point x="733" y="0" type="line"/>
			<point x="733" y="-46" type="line" smooth="yes"/>
			<point x="733" y="-133"/>
			<point x="770" y="-206"/>
		</contour>
	</outline>
	<anchor name="aboveUC" x="416" y="726"/>
	<anchor name="belowLC" x="482" y="-22"/>
</glyph>
<glyph name="noncommercial" format="2">
	<unicode hex="1F10F"/>
	<advance width="740"/>
	<outline>
		<contour>
			<point x="374" y="-10" type="curve" smooth="yes"/>
			<point x="549" y="-10"/>
			<point x="700" y="119"/>
			<point x="700" y="324" type="curve" smooth="yes"/>
			<point x="700" y="529"/>
			<point x="549" y="654"/>
			<point x="374" y="654" type="curve" smooth="yes"/>
			<point x="198" y="654"/>
			<point x="47" y="529"/>
			<point x="47" y="324" type="curve" smooth="yes"/>
			<point x="47" y="119"/>
			<point x="198" y="-10"/>
		</contour>
		<contour>
			<point x="374" y="42" type="curve" smooth="yes"/>
			<point x="224" y="42"/>
			<point x="105" y="155"/>
			<point x="105" y="324" type="curve" smooth="yes"/>
			<point x="105" y="493"/>
			<point x="224" y="603"/>
			<point x="374" y="603" type="curve" smooth="yes"/>
			<point x="523" y="603"/>
			<point x="642" y="493"/>
			<point x="642" y="324" type="curve" smooth="yes"/>
			<point x="642" y="155"/>
			<point x="523" y="42"/>
		</contour>
		<contour>
			<point x="376" y="129" type="curve" smooth="yes"/>
			<point x="450" y="129"/>
			<point x="498" y="169"/>
			<point x="498" y="227" type="curve" smooth="yes"/>
			<point x="498" y="238"/>
			<point x="494" y="247"/>
			<point x="482" y="269" type="curve"/>
			<point x="464" y="238" type="line"/>
			<point x="630" y="144" type="line"/>
			<point x="656" y="199" type="line"/>
			<point x="361" y="369" type="line" smooth="yes"/>
			<point x="343" y="379"/>
			<point x="338" y="390"/>
			<point x="338" y="408" type="curve" smooth="yes"/>
			<point x="338" y="431"/>
			<point x="358" y="444"/>
			<point x="386" y="444" type="curve" smooth="yes"/>
			<point x="421" y="444"/>
			<point x="442" y="431"/>
			<point x="466" y="408" type="curve"/>
			<point x="513" y="455" type="line"/>
			<point x="481" y="488"/>
			<point x="438" y="516"/>
			<point x="383" y="516" type="curve" smooth="yes"/>
			<point x="310" y="516"/>
			<point x="268" y="478"/>
			<point x="268" y="427" type="curve" smooth="yes"/>
			<point x="268" y="407"/>
			<point x="275" y="390"/>
			<point x="298" y="368" type="curve"/>
			<point x="306" y="398" type="line"/>
			<point x="118" y="504" type="line"/>
			<point x="92" y="450" type="line"/>
			<point x="400" y="272" type="line" smooth="yes"/>
			<point x="414" y="264"/>
			<point x="424" y="252"/>
			<point x="424" y="238" type="curve" smooth="yes"/>
			<point x="424" y="214"/>
			<point x="403" y="201"/>
			<point x="370" y="201" type="curve" smooth="yes"/>
			<point x="331" y="201"/>
			<point x="302" y="218"/>
			<point x="274" y="246" type="curve"/>
			<point x="227" y="201" type="line"/>
			<point x="263" y="157"/>
			<point x="313" y="129"/>
		</contour>
		<contour>
			<point x="336" y="66" type="line"/>
			<point x="408" y="66" type="line"/>
			<point x="408" y="137" type="line"/>
			<point x="336" y="137" type="line"/>
		</contour>
		<contour>
			<point x="346" y="497" type="line"/>
			<point x="418" y="497" type="line"/>
			<point x="418" y="579" type="line"/>
			<point x="346" y="579" type="line"/>
		</contour>
	</outline>
</glyph>
<glyph name="creativecommons" format="2">
	<unicode hex="1F16D"/>
	<advance width="747"/>
	<outline>
		<contour>
			<point x="374" y="-10" type="curve" smooth="yes"/>
			<point x="549" y="-10"/>
			<point x="700" y="119"/>
			<point x="700" y="324" type="curve" smooth="yes"/>
			<point x="700" y="529"/>
			<point x="549" y="654"/>
			<point x="374" y="654" type="curve" smooth="yes"/>
			<point x="198" y="654"/>
			<point x="47" y="529"/>
			<point x="47" y="324" type="curve" smooth="yes"/>
			<point x="47" y="119"/>
			<point x="198" y="-10"/>
		</contour>
		<contour>
			<point x="374" y="42" type="curve" smooth="yes"/>
			<point x="224" y="42"/>
			<point x="105" y="155"/>
			<point x="105" y="324" type="curve" smooth="yes"/>
			<point x="105" y="493"/>
			<point x="224" y="603"/>
			<point x="374" y="603" type="curve" smooth="yes"/>
			<point x="523" y="603"/>
			<point x="642" y="493"/>
			<point x="642" y="324" type="curve" smooth="yes"/>
			<point x="642" y="155"/>
			<point x="523" y="42"/>
		</contour>
		<contour>
			<point x="277" y="141" type="curve" smooth="yes"/>
			<point x="321" y="141"/>
			<point x="344" y="162"/>
			<point x="364" y="186" type="curve"/>
			<point x="329" y="229" type="line"/>
			<point x="318" y="217"/>
			<point x="308" y="210"/>
			<point x="286" y="210" type="curve" smooth="yes"/>
			<point x="253" y="210"/>
			<point x="230" y="250"/>
			<point x="230" y="321" type="curve" smooth="yes"/>
			<point x="230" y="392"/>
			<point x="255" y="435"/>
			<point x="286" y="435" type="curve" smooth="yes"/>
			<point x="303" y="435"/>
			<point x="309" y="429"/>
			<point x="320" y="417" type="curve"/>
			<point x="361" y="459" type="line"/>
			<point x="346" y="483"/>
			<point x="322" y="504"/>
			<point x="282" y="504" type="curve" smooth="yes"/>
			<point x="212" y="504"/>
			<point x="150" y="437"/>
			<point x="150" y="321" type="curve" smooth="yes"/>
			<point x="150" y="204"/>
			<point x="206" y="141"/>
		</contour>
		<contour>
			<point x="488" y="141" type="curve" smooth="yes"/>
			<point x="533" y="141"/>
			<point x="555" y="162"/>
			<point x="575" y="186" type="curve"/>
			<point x="540" y="229" type="line"/>
			<point x="529" y="217"/>
			<point x="520" y="210"/>
			<point x="498" y="210" type="curve" smooth="yes"/>
			<point x="464" y="210"/>
			<point x="442" y="250"/>
			<point x="442" y="321" type="curve" smooth="yes"/>
			<point x="442" y="392"/>
			<point x="466" y="435"/>
			<point x="498" y="435" type="curve" smooth="yes"/>
			<point x="514" y="435"/>
			<point x="521" y="429"/>
			<point x="531" y="417" type="curve"/>
			<point x="573" y="459" type="line"/>
			<point x="557" y="483"/>
			<point x="533" y="504"/>
			<point x="494" y="504" type="curve" smooth="yes"/>
			<point x="424" y="504"/>
			<point x="361" y="437"/>
			<point x="361" y="321" type="curve" smooth="yes"/>
			<point x="361" y="204"/>
			<point x="417" y="141"/>
		</contour>
	</outline>
</glyph>
<glyph name="attribution" format="2">
	<unicode hex="1F16F"/>
	<advance width="740"/>
	<outline>
		<contour>
			<point x="374" y="-10" type="curve" smooth="yes"/>
			<point x="549" y="-10"/>
			<point x="700" y="119"/>
			<point x="700" y="324" type="curve" smooth="yes"/>
			<point x="700" y="529"/>
			<point x="549" y="654"/>
			<point x="374" y="654" type="curve" smooth="yes"/>
			<point x="198" y="654"/>
			<point x="47" y="529"/>
			<point x="47" y="324" type="curve" smooth="yes"/>
			<point x="47" y="119"/>
			<point x="198" y="-10"/>
		</contour>
		<contour>
			<point x="374" y="42" type="curve" smooth="yes"/>
			<point x="224" y="42"/>
			<point x="105" y="155"/>
			<point x="105" y="324" type="curve" smooth="yes"/>
			<point x="105" y="493"/>
			<point x="224" y="603"/>
			<point x="374" y="603" type="curve" smooth="yes"/>
			<point x="523" y="603"/>
			<point x="642" y="493"/>
			<point x="642" y="324" type="curve" smooth="yes"/>
			<point x="642" y="155"/>
			<point x="523" y="42"/>
		</contour>
		<contour>
			<point x="374" y="88" type="line"/>
			<point x="434" y="88" type="line"/>
			<point x="438" y="139"/>
			<point x="442" y="184"/>
			<point x="442" y="251" type="curve" smooth="yes"/>
			<point x="442" y="287"/>
			<point x="431" y="293"/>
			<point x="431" y="304" type="curve" smooth="yes"/>
			<point x="431" y="331"/>
			<point x="448" y="346"/>
			<point x="451" y="376" type="curve"/>
			<point x="411" y="380" type="line"/>
			<point x="420" y="310"/>
			<point x="429" y="280"/>
			<point x="442" y="230" type="curve"/>
			<point x="468" y="230"/>
			<point x="488" y="248"/>
			<point x="488" y="276" type="curve" smooth="yes"/>
			<point x="488" y="311"/>
			<point x="484" y="348"/>
			<point x="476" y="380" type="curve" smooth="yes"/>
			<point x="468" y="409"/>
			<point x="455" y="420"/>
			<point x="432" y="426" type="curve" smooth="yes"/>
			<point x="422" y="428"/>
			<point x="400" y="430"/>
			<point x="374" y="430" type="curve" smooth="yes"/>
			<point x="348" y="430"/>
			<point x="326" y="428"/>
			<point x="316" y="426" type="curve" smooth="yes"/>
			<point x="293" y="420"/>
			<point x="279" y="408"/>
			<point x="272" y="380" type="curve" smooth="yes"/>
			<point x="264" y="348"/>
			<point x="260" y="310"/>
			<point x="260" y="276" type="curve" smooth="yes"/>
			<point x="260" y="248"/>
			<point x="280" y="230"/>
			<point x="306" y="230" type="curve"/>
			<point x="319" y="280"/>
			<point x="328" y="310"/>
			<point x="337" y="380" type="curve"/>
			<point x="297" y="376" type="line"/>
			<point x="300" y="346"/>
			<point x="317" y="331"/>
			<point x="317" y="304" type="curve" smooth="yes"/>
			<point x="317" y="293"/>
			<point x="306" y="287"/>
			<point x="306" y="251" type="curve" smooth="yes"/>
			<point x="306" y="184"/>
			<point x="310" y="139"/>
			<point x="314" y="88" type="curve"/>
		</contour>
		<contour>
			<point x="374" y="454" type="curve" smooth="yes"/>
			<point x="404" y="454"/>
			<point x="432" y="480"/>
			<point x="432" y="512" type="curve" smooth="yes"/>
			<point x="432" y="546"/>
			<point x="406" y="570"/>
			<point x="374" y="570" type="curve" smooth="yes"/>
			<point x="342" y="570"/>
			<point x="316" y="546"/>
			<point x="316" y="512" type="curve" smooth="yes"/>
			<point x="316" y="480"/>
			<point x="342" y="454"/>
		</contour>
	</outline>
</glyph>
<glyph name="AinEgypt.sc" format="2">
	<advance width="312"/>
	<outline>
		<contour>
			<point x="226" y="266" type="curve"/>
			<point x="240" y="319" type="line"/>
			<point x="167" y="327"/>
			<point x="137" y="357"/>
			<point x="137" y="397" type="curve" smooth="yes"/>
			<point x="137" y="415"/>
			<point x="145" y="428"/>
			<point x="154" y="432" type="curve"/>
			<point x="122" y="432" type="line"/>
			<point x="133" y="415"/>
			<point x="160" y="402"/>
			<point x="185" y="402" type="curve" smooth="yes"/>
			<point x="227" y="402"/>
			<point x="259" y="425"/>
			<point x="259" y="467" type="curve" smooth="yes"/>
			<point x="259" y="509"/>
			<point x="226" y="534"/>
			<point x="166" y="534" type="curve" smooth="yes"/>
			<point x="94" y="534"/>
			<point x="42" y="489"/>
			<point x="42" y="412" type="curve" smooth="yes"/>
			<point x="42" y="328"/>
			<point x="97" y="271"/>
		</contour>
	</outline>
</glyph>
<glyph name="AlefEgypt.sc" format="2">
	<advance width="312"/>
	<outline>
		<contour>
			<point x="85" y="-12" type="line"/>
			<point x="214" y="-7"/>
			<point x="269" y="48"/>
			<point x="269" y="132" type="curve" smooth="yes"/>
			<point x="269" y="203"/>
			<point x="219" y="244"/>
			<point x="148" y="244" type="curve" smooth="yes"/>
			<point x="86" y="244"/>
			<point x="53" y="219"/>
			<point x="53" y="177" type="curve" smooth="yes"/>
			<point x="53" y="139"/>
			<point x="85" y="118"/>
			<point x="126" y="118" type="curve" smooth="yes"/>
			<point x="152" y="118"/>
			<point x="178" y="131"/>
			<point x="190" y="148" type="curve"/>
			<point x="157" y="148" type="line"/>
			<point x="167" y="144"/>
			<point x="175" y="131"/>
			<point x="175" y="112" type="curve" smooth="yes"/>
			<point x="175" y="75"/>
			<point x="144" y="49"/>
			<point x="72" y="41" type="curve"/>
		</contour>
		<contour>
			<point x="85" y="278" type="line"/>
			<point x="214" y="283"/>
			<point x="269" y="338"/>
			<point x="269" y="422" type="curve" smooth="yes"/>
			<point x="269" y="492"/>
			<point x="219" y="534"/>
			<point x="148" y="534" type="curve" smooth="yes"/>
			<point x="86" y="534"/>
			<point x="53" y="509"/>
			<point x="53" y="467" type="curve" smooth="yes"/>
			<point x="53" y="429"/>
			<point x="85" y="408"/>
			<point x="126" y="408" type="curve" smooth="yes"/>
			<point x="152" y="408"/>
			<point x="178" y="421"/>
			<point x="190" y="438" type="curve"/>
			<point x="157" y="438" type="line"/>
			<point x="167" y="434"/>
			<point x="175" y="421"/>
			<point x="175" y="401" type="curve" smooth="yes"/>
			<point x="175" y="365"/>
			<point x="144" y="339"/>
			<point x="72" y="331" type="curve"/>
		</contour>
	</outline>
</glyph>
<glyph name="Aogonek.d" format="2">
	<advance width="558"/>
	<outline>
		<contour>
			<point x="294" y="-222" type="curve" smooth="yes"/>
			<point x="330" y="-222"/>
			<point x="370" y="-207"/>
			<point x="394" y="-188" type="curve"/>
			<point x="366" y="-123" type="line"/>
			<point x="353" y="-132"/>
			<point x="337" y="-139"/>
			<point x="318" y="-139" type="curve" smooth="yes"/>
			<point x="291" y="-139"/>
			<point x="269" y="-126"/>
			<point x="269" y="-95" type="curve" smooth="yes"/>
			<point x="269" y="-69"/>
			<point x="288" y="-43"/>
			<point x="320" y="-19" type="curve"/>
			<point x="276" y="19" type="line"/>
			<point x="221" y="-19"/>
			<point x="177" y="-69"/>
			<point x="177" y="-127" type="curve" smooth="yes"/>
			<point x="177" y="-189"/>
			<point x="229" y="-222"/>
		</contour>
		<component base="A"/>
	</outline>
	<anchor name="aboveUC" x="278" y="676"/>
</glyph>
<glyph name="Aogonek.ds" format="2">
	<advance width="487"/>
	<outline>
		<contour>
			<point x="260" y="-222" type="curve" smooth="yes"/>
			<point x="296" y="-222"/>
			<point x="337" y="-207"/>
			<point x="361" y="-188" type="curve"/>
			<point x="333" y="-123" type="line"/>
			<point x="320" y="-132"/>
			<point x="304" y="-139"/>
			<point x="285" y="-139" type="curve" smooth="yes"/>
			<point x="258" y="-139"/>
			<point x="236" y="-126"/>
			<point x="236" y="-95" type="curve" smooth="yes"/>
			<point x="236" y="-69"/>
			<point x="255" y="-43"/>
			<point x="287" y="-19" type="curve"/>
			<point x="243" y="19" type="line"/>
			<point x="188" y="-19"/>
			<point x="144" y="-69"/>
			<point x="144" y="-127" type="curve" smooth="yes"/>
			<point x="144" y="-189"/>
			<point x="196" y="-222"/>
		</contour>
		<component base="A.sc"/>
	</outline>
	<anchor name="aboveUC" x="240" y="562"/>
</glyph>
<glyph name="De.a" format="2">
	<advance width="654"/>
	<outline>
		<contour>
			<point x="30" y="-188" type="line"/>
			<point x="133" y="-188" type="line"/>
			<point x="133" y="0" type="line"/>
			<point x="521" y="0" type="line"/>
			<point x="521" y="-188" type="line"/>
			<point x="624" y="-188" type="line"/>
			<point x="635" y="26" type="line"/>
			<point x="635" y="98" type="line"/>
			<point x="19" y="98" type="line"/>
			<point x="19" y="26" type="line"/>
		</contour>
		<component base="Lambda" xOffset="53"/>
	</outline>
</glyph>
<glyph name="De.as" format="2">
	<advance width="575"/>
	<outline>
		<contour>
			<point x="126" y="-172" type="line"/>
			<point x="126" y="0" type="line"/>
			<point x="454" y="0" type="line"/>
			<point x="454" y="-172" type="line"/>
			<point x="553" y="-172" type="line"/>
			<point x="564" y="19" type="line"/>
			<point x="564" y="96" type="line"/>
			<point x="15" y="96" type="line"/>
			<point x="15" y="19" type="line"/>
			<point x="26" y="-172" type="line"/>
		</contour>
		<component base="El.as" xOffset="58"/>
	</outline>
</glyph>
<glyph name="Ef.sc" format="2">
	<advance width="671"/>
	<outline>
		<contour>
			<point x="359" y="64" type="line" smooth="yes"/>
			<point x="523" y="64"/>
			<point x="626" y="129"/>
			<point x="626" y="264" type="curve" smooth="yes"/>
			<point x="626" y="400"/>
			<point x="523" y="464"/>
			<point x="359" y="464" type="curve" smooth="yes"/>
			<point x="313" y="464" type="line" smooth="yes"/>
			<point x="149" y="464"/>
			<point x="46" y="400"/>
			<point x="46" y="264" type="curve" smooth="yes"/>
			<point x="46" y="129"/>
			<point x="149" y="64"/>
			<point x="313" y="64" type="curve" smooth="yes"/>
		</contour>
		<contour>
			<point x="305" y="148" type="line" smooth="yes"/>
			<point x="213" y="148"/>
			<point x="159" y="184"/>
			<point x="159" y="264" type="curve" smooth="yes"/>
			<point x="159" y="344"/>
			<point x="213" y="380"/>
			<point x="305" y="380" type="curve" smooth="yes"/>
			<point x="367" y="380" type="line" smooth="yes"/>
			<point x="459" y="380"/>
			<point x="513" y="344"/>
			<point x="513" y="264" type="curve" smooth="yes"/>
			<point x="513" y="184"/>
			<point x="459" y="148"/>
			<point x="367" y="148" type="curve" smooth="yes"/>
		</contour>
		<contour>
			<point x="287" y="-12" type="line"/>
			<point x="385" y="-12" type="line"/>
			<point x="385" y="535" type="line"/>
			<point x="287" y="535" type="line"/>
		</contour>
	</outline>
</glyph>
<glyph name="El.sc" format="2">
	<advance width="574"/>
	<outline>
		<contour>
			<point x="55" y="-12" type="curve" smooth="yes"/>
			<point x="139" y="-12"/>
			<point x="182" y="38"/>
			<point x="219" y="211" type="curve" smooth="yes"/>
			<point x="234" y="281"/>
			<point x="247" y="354"/>
			<point x="262" y="428" type="curve"/>
			<point x="375" y="428" type="line"/>
			<point x="375" y="0" type="line"/>
			<point x="491" y="0" type="line"/>
			<point x="491" y="523" type="line"/>
			<point x="175" y="523" type="line"/>
			<point x="156" y="422"/>
			<point x="136" y="322"/>
			<point x="113" y="223" type="curve" smooth="yes"/>
			<point x="87" y="110"/>
			<point x="66" y="96"/>
			<point x="39" y="96" type="curve" smooth="yes"/>
			<point x="31" y="96"/>
			<point x="24" y="97"/>
			<point x="16" y="100" type="curve"/>
			<point x="-5" y="-4" type="line"/>
			<point x="11" y="-10"/>
			<point x="31" y="-12"/>
		</contour>
	</outline>
</glyph>
<glyph name="Endescender.sc" format="2">
	<advance width="619"/>
	<outline>
		<contour>
			<point x="489" y="-172" type="line"/>
			<point x="588" y="-172" type="line"/>
			<point x="600" y="19" type="line"/>
			<point x="600" y="96" type="line"/>
			<point x="455" y="96" type="line"/>
			<point x="455" y="0" type="line"/>
			<point x="489" y="0" type="line"/>
		</contour>
		<component base="En.sc"/>
	</outline>
</glyph>
<glyph name="Eng.sc" format="2">
	<advance width="585"/>
	<outline>
		<contour>
			<point x="365" y="-12" type="curve" smooth="yes"/>
			<point x="480" y="-12"/>
			<point x="540" y="78"/>
			<point x="540" y="266" type="curve" smooth="yes"/>
			<point x="540" y="460"/>
			<point x="456" y="535"/>
			<point x="346" y="535" type="curve" smooth="yes"/>
			<point x="289" y="535"/>
			<point x="238" y="508"/>
			<point x="196" y="465" type="curve"/>
			<point x="196" y="523" type="line"/>
			<point x="83" y="523" type="line"/>
			<point x="83" y="0" type="line"/>
			<point x="199" y="0" type="line"/>
			<point x="199" y="367" type="line"/>
			<point x="228" y="414"/>
			<point x="276" y="439"/>
			<point x="313" y="439" type="curve" smooth="yes"/>
			<point x="379" y="439"/>
			<point x="421" y="393"/>
			<point x="421" y="266" type="curve" smooth="yes"/>
			<point x="421" y="119"/>
			<point x="389" y="84"/>
			<point x="352" y="84" type="curve" smooth="yes"/>
			<point x="337" y="84"/>
			<point x="327" y="86"/>
			<point x="316" y="91" type="curve"/>
			<point x="291" y="4" type="line"/>
			<point x="307" y="-7"/>
			<point x="340" y="-12"/>
		</contour>
	</outline>
	<anchor name="aboveUC" x="318" y="562"/>
	<anchor name="belowLC" x="310" y="-22"/>
</glyph>
<glyph name="Enhook.sc" format="2">
	<advance width="608"/>
	<outline>
		<contour>
			<point x="387" y="-161" type="curve" smooth="yes"/>
			<point x="491" y="-161"/>
			<point x="525" y="-84"/>
			<point x="525" y="20" type="curve" smooth="yes"/>
			<point x="525" y="523" type="line"/>
			<point x="409" y="523" type="line"/>
			<point x="409" y="321" type="line"/>
			<point x="199" y="321" type="line"/>
			<point x="199" y="523" type="line"/>
			<point x="83" y="523" type="line"/>
			<point x="83" y="0" type="line"/>
			<point x="199" y="0" type="line"/>
			<point x="199" y="221" type="line"/>
			<point x="409" y="221" type="line"/>
			<point x="409" y="20" type="line" smooth="yes"/>
			<point x="409" y="-40"/>
			<point x="401" y="-71"/>
			<point x="368" y="-71" type="curve" smooth="yes"/>
			<point x="358" y="-71"/>
			<point x="345" y="-69"/>
			<point x="333" y="-65" type="curve"/>
			<point x="312" y="-150" type="line"/>
			<point x="330" y="-156"/>
			<point x="354" y="-161"/>
		</contour>
	</outline>
</glyph>
<glyph name="Ettironian.sc" format="2">
	<advance width="422"/>
	<outline>
		<contour>
			<point x="135" y="0" type="line"/>
			<point x="253" y="0" type="line"/>
			<point x="377" y="455" type="line"/>
			<point x="377" y="524" type="line"/>
			<point x="26" y="524" type="line"/>
			<point x="26" y="428" type="line"/>
			<point x="272" y="428" type="line"/>
		</contour>
	</outline>
</glyph>
<glyph name="Finsular.sc" format="2">
	<advance width="535"/>
	<outline>
		<contour>
			<point x="83" y="-150" type="line"/>
			<point x="199" y="-150" type="line"/>
			<point x="199" y="0" type="line"/>
			<point x="420" y="0" type="line"/>
			<point x="420" y="98" type="line"/>
			<point x="199" y="98" type="line"/>
			<point x="199" y="367" type="line"/>
			<point x="228" y="413"/>
			<point x="272" y="439"/>
			<point x="307" y="439" type="curve" smooth="yes"/>
			<point x="357" y="439"/>
			<point x="383" y="409"/>
			<point x="383" y="324" type="curve" smooth="yes"/>
			<point x="383" y="281" type="line"/>
			<point x="499" y="294" type="line"/>
			<point x="499" y="337" type="line" smooth="yes"/>
			<point x="499" y="481"/>
			<point x="434" y="535"/>
			<point x="339" y="535" type="curve" smooth="yes"/>
			<point x="286" y="535"/>
			<point x="237" y="508"/>
			<point x="196" y="465" type="curve"/>
			<point x="196" y="523" type="line"/>
			<point x="83" y="523" type="line"/>
		</contour>
	</outline>
	<anchor name="aboveUC" x="310" y="562"/>
	<anchor name="belowLC" x="204" y="-166"/>
</glyph>
<glyph name="Gammalatin.sc" format="2">
	<advance width="470"/>
	<outline>
		<contour>
			<point x="238" y="-217" type="curve" smooth="yes"/>
			<point x="322" y="-217"/>
			<point x="375" y="-165"/>
			<point x="375" y="-89" type="curve" smooth="yes"/>
			<point x="375" y="-37"/>
			<point x="348" y="10"/>
			<point x="299" y="96" type="curve"/>
			<point x="302" y="42" type="line"/>
			<point x="473" y="523" type="line"/>
			<point x="357" y="523" type="line"/>
			<point x="283" y="280" type="line" smooth="yes"/>
			<point x="267" y="229"/>
			<point x="256" y="196"/>
			<point x="240" y="141" type="curve"/>
			<point x="236" y="141" type="line"/>
			<point x="220" y="196"/>
			<point x="208" y="229"/>
			<point x="191" y="280" type="curve" smooth="yes"/>
			<point x="117" y="523" type="line"/>
			<point x="-4" y="523" type="line"/>
			<point x="173" y="42" type="line"/>
			<point x="176" y="96" type="line"/>
			<point x="128" y="10"/>
			<point x="101" y="-37"/>
			<point x="101" y="-89" type="curve" smooth="yes"/>
			<point x="101" y="-165"/>
			<point x="154" y="-217"/>
		</contour>
		<contour>
			<point x="238" y="-142" type="curve" smooth="yes"/>
			<point x="212" y="-142"/>
			<point x="197" y="-123"/>
			<point x="197" y="-95" type="curve" smooth="yes"/>
			<point x="197" y="-65"/>
			<point x="211" y="-30"/>
			<point x="235" y="15" type="curve"/>
			<point x="239" y="15" type="line"/>
			<point x="265" y="-30"/>
			<point x="279" y="-65"/>
			<point x="279" y="-95" type="curve" smooth="yes"/>
			<point x="279" y="-123"/>
			<point x="264" y="-142"/>
		</contour>
	</outline>
	<anchor name="aboveUC" x="240" y="562"/>
	<anchor name="belowLC" x="240" y="-198"/>
</glyph>
<glyph name="Gheup.sc" format="2">
	<advance width="460"/>
	<outline>
		<contour>
			<point x="83" y="0" type="line"/>
			<point x="199" y="0" type="line"/>
			<point x="199" y="427" type="line"/>
			<point x="429" y="427" type="line"/>
			<point x="438" y="690" type="line"/>
			<point x="342" y="690" type="line"/>
			<point x="324" y="523" type="line"/>
			<point x="83" y="523" type="line"/>
		</contour>
	</outline>
</glyph>
<glyph name="Ginsular.sc" format="2">
	<advance width="536"/>
	<outline>
		<contour>
			<point x="268" y="-162" type="curve" smooth="yes"/>
			<point x="426" y="-162"/>
			<point x="517" y="-92"/>
			<point x="517" y="6" type="curve" smooth="yes"/>
			<point x="517" y="105"/>
			<point x="465" y="138"/>
			<point x="335" y="184" type="curve" smooth="yes"/>
			<point x="227" y="222"/>
			<point x="181" y="254"/>
			<point x="181" y="315" type="curve" smooth="yes"/>
			<point x="181" y="378"/>
			<point x="230" y="428"/>
			<point x="340" y="428" type="curve" smooth="yes"/>
			<point x="496" y="428" type="line"/>
			<point x="496" y="523" type="line"/>
			<point x="31" y="523" type="line"/>
			<point x="31" y="432" type="line"/>
			<point x="162" y="432" type="line"/>
			<point x="162" y="429" type="line"/>
			<point x="103" y="403"/>
			<point x="66" y="361"/>
			<point x="66" y="298" type="curve" smooth="yes"/>
			<point x="66" y="223"/>
			<point x="114" y="176"/>
			<point x="173" y="145" type="curve"/>
			<point x="173" y="142" type="line"/>
			<point x="90" y="107"/>
			<point x="41" y="57"/>
			<point x="41" y="-11" type="curve" smooth="yes"/>
			<point x="41" y="-118"/>
			<point x="141" y="-162"/>
		</contour>
		<contour>
			<point x="276" y="-74" type="curve" smooth="yes"/>
			<point x="196" y="-74"/>
			<point x="144" y="-49"/>
			<point x="144" y="8" type="curve" smooth="yes"/>
			<point x="144" y="52"/>
			<point x="172" y="84"/>
			<point x="234" y="114" type="curve"/>
			<point x="324" y="79"/>
			<point x="401" y="68"/>
			<point x="401" y="0" type="curve" smooth="yes"/>
			<point x="401" y="-42"/>
			<point x="360" y="-74"/>
		</contour>
	</outline>
	<anchor name="aboveUC" x="270" y="562"/>
	<anchor name="belowLC" x="272" y="-166"/>
</glyph>
<glyph name="Gstroke.sc" format="2">
	<advance width="602"/>
	<outline>
		<contour>
			<point x="317" y="-12" type="curve" smooth="yes"/>
			<point x="393" y="-12"/>
			<point x="461" y="15"/>
			<point x="501" y="50" type="curve"/>
			<point x="501" y="289" type="line"/>
			<point x="398" y="289" type="line"/>
			<point x="398" y="102" type="line"/>
			<point x="381" y="89"/>
			<point x="355" y="82"/>
			<point x="326" y="82" type="curve" smooth="yes"/>
			<point x="220" y="82"/>
			<point x="167" y="150"/>
			<point x="167" y="259" type="curve" smooth="yes"/>
			<point x="167" y="374"/>
			<point x="230" y="440"/>
			<point x="322" y="440" type="curve" smooth="yes"/>
			<point x="370" y="440"/>
			<point x="400" y="424"/>
			<point x="428" y="398" type="curve"/>
			<point x="490" y="466" type="line"/>
			<point x="452" y="507"/>
			<point x="398" y="535"/>
			<point x="321" y="535" type="curve" smooth="yes"/>
			<point x="169" y="535"/>
			<point x="49" y="433"/>
			<point x="49" y="259" type="curve" smooth="yes"/>
			<point x="49" y="81"/>
			<point x="165" y="-12"/>
		</contour>
		<contour>
			<point x="302" y="150" type="line"/>
			<point x="582" y="150" type="line"/>
			<point x="582" y="238" type="line"/>
			<point x="400" y="238" type="line"/>
			<point x="302" y="232" type="line"/>
		</contour>
	</outline>
	<anchor name="aboveUC" x="314" y="562"/>
	<anchor name="belowLC" x="314" y="-22"/>
</glyph>
<glyph name="IJ.sc" format="2">
	<advance width="565"/>
	<outline>
		<contour>
			<point x="83" y="0" type="line"/>
			<point x="199" y="0" type="line"/>
			<point x="199" y="523" type="line"/>
			<point x="83" y="523" type="line"/>
		</contour>
		<contour>
			<point x="325" y="-161" type="curve" smooth="yes"/>
			<point x="442" y="-161"/>
			<point x="482" y="-84"/>
			<point x="482" y="20" type="curve" smooth="yes"/>
			<point x="482" y="523" type="line"/>
			<point x="366" y="523" type="line"/>
			<point x="366" y="20" type="line" smooth="yes"/>
			<point x="366" y="-37"/>
			<point x="353" y="-68"/>
			<point x="309" y="-68" type="curve" smooth="yes"/>
			<point x="294" y="-68"/>
			<point x="280" y="-64"/>
			<point x="267" y="-60" type="curve"/>
			<point x="246" y="-145" type="line"/>
			<point x="264" y="-154"/>
			<point x="292" y="-161"/>
		</contour>
	</outline>
</glyph>
<glyph name="Icyr.sc" format="2">
	<advance width="596"/>
	<outline>
		<contour>
			<point x="83" y="0" type="line"/>
			<point x="204" y="0" type="line"/>
			<point x="358" y="268" type="line" smooth="yes"/>
			<point x="376" y="300"/>
			<point x="394" y="338"/>
			<point x="416" y="388" type="curve"/>
			<point x="420" y="388" type="line"/>
			<point x="414" y="330"/>
			<point x="406" y="254"/>
			<point x="406" y="194" type="curve" smooth="yes"/>
			<point x="406" y="0" type="line"/>
			<point x="512" y="0" type="line"/>
			<point x="512" y="523" type="line"/>
			<point x="392" y="523" type="line"/>
			<point x="236" y="255" type="line" smooth="yes"/>
			<point x="218" y="224"/>
			<point x="201" y="186"/>
			<point x="180" y="136" type="curve"/>
			<point x="176" y="136" type="line"/>
			<point x="182" y="190"/>
			<point x="190" y="270"/>
			<point x="190" y="330" type="curve" smooth="yes"/>
			<point x="190" y="523" type="line"/>
			<point x="83" y="523" type="line"/>
		</contour>
	</outline>
	<anchor name="aboveUC" x="305" y="550"/>
</glyph>
<glyph name="Iotalatin.as" format="2">
	<advance width="370"/>
	<outline>
		<contour>
			<point x="49" y="432" type="line"/>
			<point x="320" y="432" type="line"/>
			<point x="320" y="523" type="line"/>
			<point x="49" y="523" type="line"/>
		</contour>
		<component base="Iotalatin.sc" xOffset="44"/>
	</outline>
	<anchor name="aboveUC" x="186" y="562"/>
	<anchor name="belowLC" x="212" y="-22"/>
</glyph>
<glyph name="Iotalatin.sc" format="2">
	<advance width="282"/>
	<outline>
		<contour>
			<point x="199" y="-10" type="curve" smooth="yes"/>
			<point x="227" y="-10"/>
			<point x="249" y="-5"/>
			<point x="263" y="1" type="curve"/>
			<point x="248" y="92" type="line"/>
			<point x="240" y="90"/>
			<point x="234" y="90"/>
			<point x="228" y="90" type="curve" smooth="yes"/>
			<point x="213" y="90"/>
			<point x="199" y="100"/>
			<point x="199" y="130" type="curve" smooth="yes"/>
			<point x="199" y="523" type="line"/>
			<point x="83" y="523" type="line"/>
			<point x="83" y="130" type="line" smooth="yes"/>
			<point x="83" y="43"/>
			<point x="115" y="-10"/>
		</contour>
	</outline>
	<anchor name="aboveUC" x="142" y="562"/>
	<anchor name="belowLC" x="170" y="-22"/>
</glyph>
<glyph name="Ka.a" format="2">
	<advance width="597"/>
	<outline>
		<contour>
			<point x="83" y="0" type="line"/>
			<point x="199" y="0" type="line"/>
			<point x="199" y="294" type="line"/>
			<point x="294" y="294" type="line"/>
			<point x="471" y="0" type="line"/>
			<point x="599" y="0" type="line"/>
			<point x="384" y="348" type="line"/>
			<point x="564" y="654" type="line"/>
			<point x="437" y="654" type="line"/>
			<point x="293" y="388" type="line"/>
			<point x="199" y="388" type="line"/>
			<point x="199" y="654" type="line"/>
			<point x="83" y="654" type="line"/>
		</contour>
	</outline>
	<anchor name="aboveUC" x="324" y="682"/>
</glyph>
<glyph name="Ka.as" format="2">
	<advance width="534"/>
	<outline>
		<contour>
			<point x="83" y="0" type="line"/>
			<point x="199" y="0" type="line"/>
			<point x="199" y="224" type="line"/>
			<point x="272" y="224" type="line"/>
			<point x="413" y="0" type="line"/>
			<point x="538" y="0" type="line"/>
			<point x="357" y="277" type="line"/>
			<point x="506" y="523" type="line"/>
			<point x="382" y="523" type="line"/>
			<point x="270" y="317" type="line"/>
			<point x="199" y="317" type="line"/>
			<point x="199" y="523" type="line"/>
			<point x="83" y="523" type="line"/>
		</contour>
	</outline>
	<anchor name="aboveUC" x="296" y="550"/>
</glyph>
<glyph name="Kahook.a" format="2">
	<advance width="609"/>
	<outline>
		<contour>
			<point x="336" y="-174" type="curve" smooth="yes"/>
			<point x="464" y="-174"/>
			<point x="571" y="-86"/>
			<point x="571" y="107" type="curve" smooth="yes"/>
			<point x="571" y="307"/>
			<point x="433" y="386"/>
			<point x="286" y="386" type="curve"/>
			<point x="384" y="348" type="line"/>
			<point x="564" y="654" type="line"/>
			<point x="437" y="654" type="line"/>
			<point x="293" y="388" type="line"/>
			<point x="199" y="388" type="line"/>
			<point x="199" y="654" type="line"/>
			<point x="83" y="654" type="line"/>
			<point x="83" y="0" type="line"/>
			<point x="199" y="0" type="line"/>
			<point x="199" y="294" type="line"/>
			<point x="263" y="294" type="line" smooth="yes"/>
			<point x="380" y="294"/>
			<point x="456" y="234"/>
			<point x="456" y="106" type="curve" smooth="yes"/>
			<point x="456" y="-30"/>
			<point x="380" y="-81"/>
			<point x="318" y="-81" type="curve" smooth="yes"/>
			<point x="304" y="-81"/>
			<point x="288" y="-78"/>
			<point x="276" y="-74" type="curve"/>
			<point x="255" y="-161" type="line"/>
			<point x="273" y="-168"/>
			<point x="300" y="-174"/>
		</contour>
	</outline>
</glyph>
<glyph name="Kai.sc" format="2">
	<advance width="547"/>
	<outline>
		<contour>
			<point x="83" y="0" type="line"/>
			<point x="199" y="0" type="line"/>
			<point x="199" y="156" type="line"/>
			<point x="322" y="296" type="line"/>
			<point x="509" y="523" type="line"/>
			<point x="383" y="523" type="line"/>
			<point x="202" y="304" type="line"/>
			<point x="199" y="304" type="line"/>
			<point x="199" y="523" type="line"/>
			<point x="83" y="523" type="line"/>
		</contour>
		<contour>
			<point x="232" y="-168" type="curve" smooth="yes"/>
			<point x="398" y="-168"/>
			<point x="522" y="-83"/>
			<point x="522" y="85" type="curve" smooth="yes"/>
			<point x="522" y="240"/>
			<point x="422" y="318"/>
			<point x="263" y="318" type="curve"/>
			<point x="249" y="226" type="line"/>
			<point x="343" y="226"/>
			<point x="407" y="175"/>
			<point x="407" y="84" type="curve" smooth="yes"/>
			<point x="407" y="-14"/>
			<point x="333" y="-76"/>
			<point x="225" y="-76" type="curve" smooth="yes"/>
			<point x="175" y="-76"/>
			<point x="122" y="-62"/>
			<point x="85" y="-40" type="curve"/>
			<point x="50" y="-121" type="line"/>
			<point x="98" y="-152"/>
			<point x="158" y="-168"/>
		</contour>
	</outline>
</glyph>
<glyph name="Lambdabar" format="2">
	<advance width="501"/>
	<outline>
		<contour>
			<point x="20" y="480" type="line"/>
			<point x="480" y="480" type="line"/>
			<point x="480" y="568" type="line"/>
			<point x="110" y="568" type="line"/>
			<point x="20" y="562" type="line"/>
		</contour>
		<component base="Lambda.latin"/>
	</outline>
	<anchor name="aboverightUC" x="428" y="676"/>
	<anchor name="aboveUC" x="250" y="676"/>
	<anchor name="belowLC" x="250" y="-22"/>
</glyph>
<glyph name="Lbar.sc" format="2">
	<advance width="470"/>
	<outline>
		<contour>
			<point x="22" y="248" type="line"/>
			<point x="352" y="248" type="line"/>
			<point x="352" y="336" type="line"/>
			<point x="104" y="336" type="line"/>
			<point x="22" y="330" type="line"/>
		</contour>
		<component base="L.sc" xOffset="20"/>
	</outline>
	<anchor name="aboveUC" x="164" y="562"/>
	<anchor name="belowLC" x="286" y="-22"/>
</glyph>
<glyph name="Lbardbl.sc" format="2">
	<advance width="470"/>
	<outline>
		<contour>
			<point x="22" y="194" type="line"/>
			<point x="352" y="194" type="line"/>
			<point x="352" y="262" type="line"/>
			<point x="104" y="262" type="line"/>
			<point x="22" y="256" type="line"/>
		</contour>
		<contour>
			<point x="22" y="322" type="line"/>
			<point x="352" y="322" type="line"/>
			<point x="352" y="390" type="line"/>
			<point x="104" y="390" type="line"/>
			<point x="22" y="384" type="line"/>
		</contour>
		<component base="L.sc" xOffset="20"/>
	</outline>
	<anchor name="aboveUC" x="164" y="562"/>
	<anchor name="belowLC" x="286" y="-22"/>
	<guideline x="222" y="291" angle="0" identifier="gfCQgIir5Q"/>
</glyph>
<glyph name="Lbelt.sc" format="2">
	<advance width="518"/>
	<outline>
		<contour>
			<point x="140" y="202" type="curve" smooth="yes"/>
			<point x="396" y="202" type="line"/>
			<point x="396" y="290" type="line"/>
			<point x="128" y="290" type="line" smooth="yes"/>
			<point x="90" y="290"/>
			<point x="72" y="304"/>
			<point x="72" y="324" type="curve" smooth="yes"/>
			<point x="72" y="340"/>
			<point x="82" y="352"/>
			<point x="103" y="352" type="curve" smooth="yes"/>
			<point x="132" y="352"/>
			<point x="151" y="328"/>
			<point x="151" y="294" type="curve"/>
			<point x="202" y="280" type="line"/>
			<point x="202" y="346"/>
			<point x="164" y="412"/>
			<point x="92" y="412" type="curve" smooth="yes"/>
			<point x="38" y="412"/>
			<point x="-2" y="374"/>
			<point x="-2" y="318" type="curve" smooth="yes"/>
			<point x="-2" y="253"/>
			<point x="41" y="202"/>
		</contour>
		<component base="L.sc" xOffset="68"/>
	</outline>
	<anchor name="aboveUC" x="212" y="562"/>
	<anchor name="belowLC" x="334" y="-22"/>
</glyph>
<glyph name="Lje.a" format="2">
	<advance width="816"/>
	<outline>
		<contour>
			<point x="-4" y="0" type="line"/>
			<point x="115" y="0" type="line"/>
			<point x="206" y="329" type="line" smooth="yes"/>
			<point x="226" y="403"/>
			<point x="241" y="467"/>
			<point x="263" y="542" type="curve"/>
			<point x="267" y="542" type="line"/>
			<point x="289" y="467"/>
			<point x="304" y="403"/>
			<point x="325" y="329" type="curve" smooth="yes"/>
			<point x="417" y="0" type="line"/>
			<point x="526" y="0" type="line" smooth="yes"/>
			<point x="671" y="0"/>
			<point x="775" y="59"/>
			<point x="775" y="208" type="curve" smooth="yes"/>
			<point x="775" y="345"/>
			<point x="672" y="401"/>
			<point x="526" y="401" type="curve" smooth="yes"/>
			<point x="415" y="401" type="line"/>
			<point x="336" y="654" type="line"/>
			<point x="199" y="654" type="line"/>
		</contour>
		<contour>
			<point x="512" y="93" type="line"/>
			<point x="442" y="308" type="line"/>
			<point x="514" y="308" type="line" smooth="yes"/>
			<point x="612" y="308"/>
			<point x="662" y="276"/>
			<point x="662" y="206" type="curve" smooth="yes"/>
			<point x="662" y="126"/>
			<point x="610" y="93"/>
			<point x="516" y="93" type="curve" smooth="yes"/>
		</contour>
	</outline>
</glyph>
<glyph name="Lslash.sc" format="2">
	<advance width="470"/>
	<outline>
		<contour>
			<point x="32" y="132" type="line"/>
			<point x="122" y="174" type="line"/>
			<point x="216" y="218" type="line"/>
			<point x="406" y="298" type="line"/>
			<point x="362" y="384" type="line"/>
			<point x="208" y="316" type="line"/>
			<point x="114" y="272" type="line"/>
			<point x="-12" y="218" type="line"/>
		</contour>
		<component base="L.sc" xOffset="22"/>
	</outline>
	<anchor name="aboveUC" x="166" y="562"/>
	<anchor name="belowLC" x="288" y="-22"/>
</glyph>
<glyph name="Nlong.sc" format="2">
	<advance width="614"/>
	<outline>
		<contour>
			<point x="418" y="-150" type="line"/>
			<point x="534" y="-150" type="line"/>
			<point x="534" y="289" type="line" smooth="yes"/>
			<point x="534" y="467"/>
			<point x="452" y="535"/>
			<point x="346" y="535" type="curve" smooth="yes"/>
			<point x="289" y="535"/>
			<point x="238" y="508"/>
			<point x="196" y="465" type="curve"/>
			<point x="196" y="523" type="line"/>
			<point x="83" y="523" type="line"/>
			<point x="83" y="0" type="line"/>
			<point x="199" y="0" type="line"/>
			<point x="199" y="367" type="line"/>
			<point x="228" y="414"/>
			<point x="276" y="439"/>
			<point x="313" y="439" type="curve" smooth="yes"/>
			<point x="378" y="439"/>
			<point x="418" y="395"/>
			<point x="418" y="273" type="curve" smooth="yes"/>
		</contour>
	</outline>
	<anchor name="aboveUC" x="318" y="562"/>
	<anchor name="belowLC" x="298" y="-166"/>
</glyph>
<glyph name="OO.sc" format="2">
	<advance width="908"/>
	<outline>
		<contour>
			<point x="268" y="-12" type="curve" smooth="yes"/>
			<point x="354" y="-12"/>
			<point x="429" y="25"/>
			<point x="467" y="144" type="curve"/>
			<point x="442" y="144" type="line"/>
			<point x="479" y="25"/>
			<point x="555" y="-12"/>
			<point x="641" y="-12" type="curve" smooth="yes"/>
			<point x="768" y="-12"/>
			<point x="860" y="92"/>
			<point x="860" y="263" type="curve" smooth="yes"/>
			<point x="860" y="436"/>
			<point x="768" y="535"/>
			<point x="641" y="535" type="curve" smooth="yes"/>
			<point x="555" y="535"/>
			<point x="479" y="498"/>
			<point x="442" y="379" type="curve"/>
			<point x="467" y="379" type="line"/>
			<point x="429" y="498"/>
			<point x="354" y="535"/>
			<point x="268" y="535" type="curve" smooth="yes"/>
			<point x="141" y="535"/>
			<point x="49" y="436"/>
			<point x="49" y="263" type="curve" smooth="yes"/>
			<point x="49" y="92"/>
			<point x="141" y="-12"/>
		</contour>
		<contour>
			<point x="283" y="84" type="curve" smooth="yes"/>
			<point x="213" y="84"/>
			<point x="168" y="153"/>
			<point x="168" y="263" type="curve" smooth="yes"/>
			<point x="168" y="374"/>
			<point x="213" y="439"/>
			<point x="283" y="439" type="curve" smooth="yes"/>
			<point x="356" y="439"/>
			<point x="401" y="374"/>
			<point x="401" y="263" type="curve" smooth="yes"/>
			<point x="401" y="153"/>
			<point x="356" y="84"/>
		</contour>
		<contour>
			<point x="627" y="84" type="curve" smooth="yes"/>
			<point x="553" y="84"/>
			<point x="507" y="153"/>
			<point x="507" y="263" type="curve" smooth="yes"/>
			<point x="507" y="374"/>
			<point x="553" y="439"/>
			<point x="627" y="439" type="curve" smooth="yes"/>
			<point x="696" y="439"/>
			<point x="740" y="374"/>
			<point x="740" y="263" type="curve" smooth="yes"/>
			<point x="740" y="153"/>
			<point x="696" y="84"/>
		</contour>
	</outline>
	<anchor name="aboveUC" x="452" y="562"/>
	<anchor name="belowLC" x="452" y="-22"/>
</glyph>
